<?xml version="1.0" encoding="UTF-8"?>
<!-- Generator: Adobe Illustrator 21.1.0, SVG Export Plug-In . SVG Version: 6.00 Build 0)  -->
<svg version="1.1" id="Layer_1" xmlns="http://www.w3.org/2000/svg" xmlns:xlink="http://www.w3.org/1999/xlink" x="0px" y="0px" viewBox="0 0 36.3 50" style="enable-background:new 0 0 36.3 50;" xml:space="preserve">
<path d="M36,38.4c0,1.1,0,2.1,0,3.2c-0.1,0.5-0.2,1-0.3,1.4c-0.3,2.3-1.2,4.5-2.4,6.5c-1.5,0-2.9,0-4.4,0c0.2-0.2,0.3-0.5,0.5-0.7  c2.8-4.1,3.6-8.6,2.1-13.3c-1.7-5.3-5.6-8.4-10.8-10c-2.4-0.7-4.9-1.3-7.4-2c-4-1.2-6.3-5.5-5.1-9.6c1.1-4,5-6.4,8.9-5.5  c6,1.5,7.4,8.6,4.2,12.4c-0.4-0.3-0.9-0.6-1.5-1.1c0.4,1.7,0.8,3.2,1.2,4.7c0,0.1,0.2,0.3,0.4,0.3c1.5,0,2.9,0,4.4,0  c0-0.1,0-0.2,0-0.3c-0.3-0.3-0.7-0.6-1-0.9c4.8-6.9,1.9-14.9-3.3-18.1C16.2,2.3,9.4,3.8,5.9,8.9c-1.9,2.7-2.6,5.8-2.1,9  c0.6,4.2,2.9,7.3,6.7,9.3c-3.2,2.1-5.3,5-6.4,8.6C3.1,39.4,3.4,43,5,46.4c-0.7,0.4-1.3,0.8-2.2,1.3c2.3,0.4,4.4,0.7,6.5,1  c0.8-2.1,1.7-4.1,2.6-6.3c-1,0.6-1.7,1-2.5,1.4c-0.7-1.5-0.9-3.1-0.8-4.7c0.2-4.4,3.9-8.3,8.1-8.7c4.9-0.5,9.1,2.6,10.2,7.5  c1,4.7-1.7,9.5-6.1,11.1c-0.4,0.1-0.8,0.3-1.2,0.4c-6.4,0-12.8,0-19.2,0c0-11.3,0-22.6,0-33.8c0.1-0.3,0.1-0.7,0.2-1  c0.8-6.2,4-10.7,9.8-13.1c1.1-0.5,2.4-0.7,3.6-1c1.1,0,2.1,0,3.2,0c0.2,0.1,0.5,0.1,0.7,0.2c8.3,1.4,13.7,9,12.7,17.2  c-0.3,2.6-1.2,4.9-2.8,7c0.1,0.1,0.1,0.2,0.2,0.2c4.1,2.6,6.5,6.4,7.6,11C35.7,36.9,35.8,37.7,36,38.4z"/>
</svg>