<svg xmlns="http://www.w3.org/2000/svg" width="1888" height="2500" viewBox="0 0 256 339" preserveAspectRatio="xMidYMid"><path fill="#7D6A4C" d="M180.07 280.97l45-18.34.75-15.9 7.82-16.15 1.73-17.86 8.8-26.9 9.78-22.5-.75-5.4-1.45-4.9.98-5.62-1.73-6.6.98-4.63-8.8-10.77-39.15 13.7 1.73 5.15-3.66 6.13 3.42 10.52-5.38 10.53 7.58 22.74 16.14 8.56c-.74.24-20.54-1.72-20.54-1.72l4.64 9.55-5.38 14.92-6.37 3.18-5.37 1.73-10.52 12.22-7.8 19.3 6.6 19.07h.97zM14.52 145.87l39.93 4.58 5.15 25.38-8.63 20.5 4.84 3.52 8.37 23.22 9.74 10.8 6.75 4.06 11.87 11.33 13.78 10.26-4.88 10.52.82 7.82-1.63 4.33-2.97 8.35-28.86-8.36.8-4.88-4.05-5.38 1.35-5.15-39.4-28.87-2.97-7.3-8.63-2.7-.27-61.81-3.52-8.9 2.44-11.34z"/><path fill="#644D31" d="M217.47 191.53c-.65-.14-1.46-.27-2.2-.3-.24 0-.48 0-.68.03-.92.13-1.13.57-1.33 1.05-.1.28-.14.58-.2.9-.04.1-.04.2-.04.3 1.97.7 3.93 1.45 5.93 2.16.03 0 .06.03.13.03-.04-1.84.5-3.7-1.63-4.17zm-1.43 20.14c.07.1.17.2.24.33.1.17.17.3.24.48.88 1 1.72 2.03 2.47 3.14v.04c.02.03.06.07.06.1.03-.8.47-2.84-.1-3.52-.6-.8-2-.6-2.92-.57zm17.1-20.92c-.48-.13-.65.54-.17.65.44.03.54-.55.16-.65zm.03-36.92c.07 2-.07 3.18 2.23 3.18 2.27 0 3.83.18 3.93-2.36.03-.88.27-2.6-.48-3.28-.57-.54-2.06-.3-2.8-.37-2.5-.2-3.05.26-2.88 2.83zm-7.62 16.2c.4-.5.17-1.82.14-2.4-.1-.67.02-2.36-.38-2.9-.68-.88-4-.6-4.84.03-.92.68-1.2 4.9.06 5.42.72.27 4.4.57 5-.14zM97.2 271.37c.06 0 .1-.2.13-.27.1-.2.13-.48.13-.72 0-.3-.06-.68-.1-1a5.65 5.65 0 0 0-.06-.76c-.07-.07-.14-.17-.14-.27v-.14c.03-.2.03-.4.03-.6 0-.6-.07-1.18-.14-1.8h-1.02c-1.1-.02-2.94-.5-3.92-.02-.68.34-.78 1.1-.8 1.93 0 .48.05.95.05 1.36 0 .1-.03.17-.03.24 0 1.22.03 2 1.32 2.37.7.2 2.8.37 3.92 0 .07-.2.24-.3.5-.3h.1zm3.92-5.07c-.17-.08-.34-.12-.47-.15-.75.24-1.46.34-2.48.37 0 .27.14.58.14.85s.04.57 0 .84a.47.47 0 0 1-.1.32c.04.34.04.64.04.78v.07c0 .1 0 .2.04.3 0 .07 0 .1.03.17.04.24.08.54.15.85.03.2.06.32.1.66h.57c0-.67.14-1.1.38-1.66.5-1.15 1.35-2.3 1.82-3.38-.06 0-.13-.03-.17-.03h-.03zm-2.5 6.75l-.07.24c0 .06-.04.1-.04.1h-.43a91.07 91.07 0 0 0-.06 3c0 .34 0 .68.04 1.02.24.57.7.64 1.15.78.46-.07.94-.1 1.4-.14v-.03c-.12-1.7-.66-3.62-1.1-4.98h-.88zm.43 6.33c-.3.1-.57.2-.7.37-.44.6-.2 2.1-.17 2.9v.25c.64-.3 1.1-.67 1.48-1.1.6-.73.88-1.64.95-2.6-.43.08-.9.1-1.34.18h-.2zm82.2-7.54c1.36.06 2.8.27 3.63-.44.33-.3.54-1.53.54-2.7 0-1.2-.17-2.38-.5-2.72-.52-.47-4.58-.57-5.05-.24-.54.38-.65 1.12-.65 1.93 0 .4.04.85.04 1.25s-.04.82-.1 1.16c.03.03.03.13.06.16.1.4.24.82.38 1.2.03.06.03-.08.03.26h1.2c.2 0 .36 0 .43.14zm56-80.45c-1.14-.17-3.47-.38-4.08.7-.37.6-.27 4.1.27 4.78.64.8 2.6.64 4 .54.23-.04.43-.04.63-.04-.13-.2-.2-.4-.27-.6-.03-.14-.03-.28-.06-.4-.04-.6.17-1.16.44-1.7l.1-.2h-.07v-.04c-.5-1.42 1.16-2.7-.94-3.05zM31.42 156.7c1 .52 4.7.55 5.18-.6.44-1.05-.98-4.94.88-5.25-.44-.27-.9-.27-1.38-.23-1.42 1-4.03-.68-5.15.7-.74.9-.6 4.8.48 5.4zm187.25 102.75c-.24-.24-.57-.4-1.05-.47-1.15-.17-3.38-.34-4.1.6-.53.72-.8 4.07-.16 4.84.37.44.9.55 1.55.58.67 0 1.45-.1 2.1 0 .13 0 .26-.03.4-.03.34-.04.7-.07 1.05-.07.13-.07.27-.1.37-.17l-.1-1.25c-.1-1.36-.07-2.68-.07-4.03zm-17.56-7.38c-.15 0-.22.07-.25.07.03 0 .14.03.24.03-1.87.07-1.47 1.9-1.43 3.25.03 2.03-.17 2.64 1.92 2.7 1.15.04 3.14.42 3.9-.74.63-1.04-.05-2.74.2-4.1.02-.2.06-.3.16-.46-.24-.27-.5-.78-.75-.78-.15 0-.32 0-.53.03-1.18.34-2.33 0-3.48 0zm-138.97.17c-.98-.1-3.55-.37-4.16.5-.64.9-.3 3.53-.23 4.8.1.08.23.15.33.18.1-.1.2-.2.24-.37-.02.1-.02.2-.06.3l-.1.14c.27.16.5.33.75.5 1.14-.27 2.3-.17 3.44-.1 1.8.1 1.35-1.8 1.35-3.05-.04-1.6.3-2.74-1.57-2.9zm147.76-109c.46 0 .93 0 1.4-.04.2-.3.5-.54.95-.57.07-.2.1-.44.14-.7-.1-.1-.15-.2-.18-.38a18.56 18.56 0 0 0-.34-2.34h-.03c-1.6 1-2.5.28-2 2.85a4.7 4.7 0 0 1 .04 1.2zm.97 6.77c1.28.07 1.1-2.84 1.1-3.6 0-.35.15-.76.15-1.13a1.2 1.2 0 0 1-.95-.9c-.5.02-1.05.02-1.55.02-.72 1.75-2.37 3.27-3.56 4.8 0 .27 0 .54-.03.8 1.52.2 3.4-.1 4.84 0zm14.58 41.67c-.6-.58-4.43-.6-5.07-.07-1.2.98-.1 3.14-.82 4.43.48.3.95.64 1.43.95.2.13.43.27.63.44.07.03.13.1.2.13l.1-.1c.27-.23.6-.17.82.04.9-.5 2.26.32 2.94-.7.46-.7.36-4.53-.25-5.13zm-202.77 27c-1.02-.9-3.42.1-4.74-.54-.34 1.52-.85 3.04-.92 4.6 0 .54.04 1.1.17 1.66h.06c1.6.02 6.16.84 5.9-1.67-.15-1.18.46-3.2-.48-4.06zm202.7-1.35c.92-.82.4-3.5.4-4.47 0-1.66-3.92-1.52-5-1.05-1.62.75-.57 3.28-1.22 4.74.17.4.4.8.78 1.08 1.15 0 4.06.54 5.04-.3zm12.73-80.65c.9 0 1.3-1.08 1.4-2.2.03.44.13.82.23 1.1l.06.1c.06.17.03.1 0 0 .46 1.08 1.52.9 2.17.9 1.35 0 3.18.34 3.62-.95.16-.47.3-3.75.12-4.46-.06-.07-.37-.38-.64-.48-.54-.2-1.46-.03-2.03-.03-.85 0-2.5-.1-3.05.68-.3.37-.47 1-.54 1.72-.07-.6-.2-1.15-.37-1.5-.92-1.58-3.02-.1-3.87-1.17l-.6.24c-.14.57-.72 1.1-1.33 1.04-.06.72-.17 1.8-.17 2.7.04.76.14 1.43.38 1.8.75 1.02 3.6.5 4.6.5zM73.04 278.47c1.36-.04 2.95.4 3.8-.6.6-.72.57-4.24.16-4.88-.45-.76-4.07-.83-4.88-.42-1.36.68-.7 2.74-1.05 4.13.17.8 1.18 1.36 1.83 1.7.03.04.1.04.13.07zm114.22-32.83c-.92 0-1.12.82-1.12 1.73 0 .6.07 1.18.07 1.62v.16c0 .3-.04.54-.04.78.04.98.34 1.35 1.76 1.46.7.03 2.98.4 3.66-.17l.17-.17c.47-.65.47-1.9.64-2.6-.04-.96-.45-1.84-.45-2.72v.04c-.68-.1-.95-.14-1.35-.14h-3.35zM42.3 238.7c-.98 0-3.65-.5-4.5.24-.6.54-.47 2.95-.37 4.06 0 .14.03.24.03.34.55.5 1.12.95 1.73 1.32.23-.03.46 0 .7.1h.04c1.52-.54 3.24.6 3.45-1.72.1-1.12.6-4.33-1.1-4.33zm183.25-31.57c-.06-.44-.13-.84-.13-1.28a17.06 17.06 0 0 0-4.3-1.1l-1-.02c-.4 1.25-.62 3.76-.08 5.04.4.95 1.12 1.02 2.1 1.08.84.07 2.84.38 3.45-.33.63-.82.12-2.03.16-3.05-.1-.07-.17-.17-.2-.34zm-20.06 62.13c-.05-.94.32-2.1-.05-2.74-.57-.98-2.98-.88-4.16-.8l-.08-.08c-.47.48-.8-.03-1.05-.13 0 0 0-.03-.03 0 0 0 0 .04-.04.04-.7 1.12-.84 3.8-.5 5.08.13.5.34.78.57.9.37.2.85.08 1.4.1.26-.12.57-.22.87-.3a7.04 7.04 0 0 1 1.9-.16l1.75-.8a.67.67 0 0 1-.45.05c.17 0 .3-.02.44-.05-.45-.24-.58-.65-.6-1.1zM185 252.4l-.2-.07.16.06c-1.4-.37-2.83-.1-4.25-.2a362.08 362.08 0 0 1-1.6 3.53c.26.88.1 1.82 1 2.33.68.37 3.02.24 3.7.1 2.46-.47 1.1-3.2 1.75-5.14a2.64 2.64 0 0 1-.27-.54c-.1-.04-.2-.06-.3-.08zM50.25 187.57c-.17-1 .03-2.88-1.05-2.88-1.04 0-3.3-.45-4.22.06-.95.5-.65 1.9-.7 2.9-.05.9-.35 2.08.4 2.75.7.62 2 .6 3.07.76a16.86 16.86 0 0 1 1.66-1.83l.15-.13.03-.04c.24-.5.44-1.05.68-1.55v-.03zm46.56 91.88c-1-.54-2.9-.4-4-.2-1.14.23-1.2.57-1.3 1.76-.08.8-.42 3.22.2 3.83.6.64 3.24.37 4.1.37h.02c.34-1 1.22-1.32 1.9-1.93a.64.64 0 0 1-.07-.23c-.3-1.12.3-2.95-.85-3.6zm122.2-69.7c.34-1.1.4-4.04-.64-4.68-.64-.4-4.16-.44-4.77.06-.7.6-.4 1.53-.33 2.37a.3.3 0 0 1 .03.17c.04.54 0 1.12-.1 1.66.58.5 1.12 1.02 1.7 1.52.16.07.33.17.47.24 1.45-.72 3.08.5 3.65-1.36zM28.2 218.42c-2.65.24-4-.5-4.2 2.7-.07.86-.4 2.3.3 2.96.3.3.7.3 1.12.26h.07c.46-.04.93-.1 1.3.2.04.03.1.07.14.13.68-.5 2.17-1.76 2.37-.5.08.1.08.26.04.46.88-1.42 1.53-6.46-1.15-6.23zm184.9-76.4c.1.9.6 1.14 1.56 1.28.94.14 3.55.28 4.2-.5.47-.6.26-3.15.23-3.9-.08-1.1-.35-1.8-1.67-1.82-.88.27-1.8.57-2.64.9a9.46 9.46 0 0 1-1.8.83c.2.88.34 1.8.37 2.7.04.28-.1.45-.27.52zm-147.65 117c-1.4.5-.85 1.8-1 3l.02.53v.2c.24.17.47.4.68.65l.1.14c.6.48 1.25.95 1.86 1.4.1-.08.2-.1.3-.14a1.7 1.7 0 0 1 .45-.07c.3.03.55.1.75.2.6 0 1.22.04 1.66-.47.6-.68.17-3.45.17-4.33 0-1.8-3.9-1.46-4.98-1.1zm17.02 20.12c-.74-.14-2.9-.17-3.62.13-1.32.6-.95 2.8-.88 4.2v.4c1.93.75 3.96 1.02 5.96 1.56-.04-.14-.04-.24-.04-.37-.04-.6.13-1.25.1-1.9-.1-1.7.5-3.7-1.53-4.02zm117.1-19.6c.33 1.9.4 3.9 1.38 5.65 1.02-.47 2.13-.23 3.18-.27 1.02-.03 1.22-.5 1.4-1.4.12-.7.3-3.1-.04-3.78-.66-1.42-4.72-.94-5.94-.2zm-11.6-14.82c.76-.1 1.58-.27 2.4-.14.46.06.94.23 1.34.6-.2-1.8-.63-3.55-.73-5.34-.04-.68.74-3.8-.14-4.1-.23-.07-.64.3-1.15.88-1.4 1.63-3.38 5-3.92 5.55.5 1.48.17 2.77 2.2 2.53zm63.7-86.5a3.45 3.45 0 0 0-.97-.54v-.04h-.04l-.03-.04c-.07 0-.17-.03-.27-.03-.17 0-.34-.05-.54-.05-.24 0-.5-.03-.78-.03l-.14.1c-.6.44-1.28.78-2 .95-.16.88 0 2.17.04 2.77 0 .85-.13 1.7.68 2.17.57.35 1.76.3 2.77.2a14.2 14.2 0 0 0 1.38-.22v.9c-.44 0-1-.06-1.62-.1-.95-.06-2-.1-2.6.25-1.1.6-.52 1.96-.48 2.97.06 1.86-.07 2.24.7 2.58.35.13.82.3 1.56.54.82-2.07 2.44-3.8 2.44-6.16.24-.34.27-.7.27-1.12a93.62 93.62 0 0 1 1.02-4.43c-.54-.06-.95-.36-1.4-.67zm-40.84 12.9c-.95-.04-1.9.16-2.84-.07-.45 1.6-.96 3.18-1.16 4.8.47.34.88.75 1.15 1.25 1.3.12 3.5.42 4.15-.6.3-.5.14-1.62.14-2.2 0-1.32.36-3.1-1.47-3.18zm-18.7 102.48l.02.2a.67.67 0 0 0-.03-.2v-.07c0-.03 0-.04-.02-.06-.25-1.22-1.28-1-2.35-1-.85 0-2.67-.36-3.35.38-.75.78-.68 3.28-.07 4.77.2.5.5.88.85 1.05v.07c1.7-.8 3.58-1.66 5.4-2.34-.43-.33-.56-.8-.56-1.25 0-.45.14-1.04.1-1.54zm18.8-41.6c-1.25.14-2.5.1-3.72-.3-.12 2.23-.56 4.57-.02 6.77.17-1.63 4.16.3 5-1.25.45-.82.24-2.8.2-3.7-.02-1.08-.13-1.65-1.45-1.52zm1.3-80.57c.1-.6-5.7-1.36-6.17.84.7 1.7 1.42 3.4 2.67 4.74.44-.16.85-.3 1.3-.43a.53.53 0 0 1 .6.24c.5 0 1 0 1.4-.4.87-.98 0-3.82.2-4.97zm15.6 46.77c-2 .54-.38 2-1.2 3.18.1.13.2.23.3.37a7.44 7.44 0 0 1 1.67.58c.74.33 1.25 1.08 1.32 1.8.88-.04 2 .26 2.54-.45.4-.58.34-4.54-.14-5.08-.7-.8-3.52-.67-4.5-.4zM53.9 226.4c-.97.16-2 .12-2.97.12-.17 1.15-.1 2.84 0 3.4.27 1.3 1.25 1.17 2.44 1.2 1.7.07 3.65.34 3.82-1.9-.58-1.1-1.46-2.06-2-3.2-.4.16-.85.3-1.3.37zm-7.03-15a37.46 37.46 0 0 0-2.9 4.9c.36 1.32 1.3 1.32 2.46 1.32 1.05.04 3 .44 3.66-.64.4-.7.32-3.9.02-4.54-.64-1.35-2.13-.37-3.25-1.05zm20.1 24.5c.2.13.3.27.34.37.08.3-.23.54-.63.7-.7.28-1.42-.3-2.07-.4h-.1c.2 0 .1.04.14.04.03 1.56 3.7 1.9 4.8 1.36.92-.44 1.02-1.5 1-2.47-.6-.1-1.03-.55-1-1.3 0-.16 0-.3.04-.47-2.03-1.42-3.5-3.45-5.18-5.24l-.03-.05c.33 2.7-.07 5.65 2.7 7.45zm143.96 2.64c-1.25.33-2.5.1-3.75.1v1.5c0 1.47-.04 3 .3 4.5 1.7 0 4.5.8 4.84-1.37.07-.5.17-1.35.17-2.13 0-1.28-.35-2.6-1.57-2.6zm.24 19.6c1.46-.55 1.08-1.63 1.12-3.06 0-1.1.53-2.87-1.1-2.87-.98 0-1.96.18-2.9-.26.16 1.22.3 2.43.47 3.86a47.54 47.54 0 0 0-1.42-1.36c-.34-.3-.65-.6-.95-.9 0 .1 0 .26-.03.43-.1 1.18-.44 3.4.4 4 .58.4 3.83.36 4.4.16zm-.7-32.8c-.86-.34-1.87.3-2.5-.65-.72 2.23-.83 4.43-.8 6.73 2.17-1.02 4.98.9 5.12-2.23.02-.44.16-1.43.16-2.27 0-.48-.04-.85-.17-1.1-.38-.66-1.13-.5-1.84-.5zM38.1 205.04c-1 .6-.67 2.33-.64 3.38.04 2.77 1.26 2.37 3.7 2.37h.13a23.42 23.42 0 0 0 1.74-5.63H43c-1.04-.4-3.9-.7-4.9-.14zm206.13-26.5c-.27.03-.54.03-.74.03h-.1c.22 0 .43 0 .6-.07-.2-.03-.44-.03-.65-.03-.37 0-.54-.3-.57-.58v-.14c-1.56-.14-3.18-.07-3.28 1.62-.04.3-.04.7-.04 1.15 0 .98.1 2.17.48 2.74.2.3.5.5.88.6.1-.12.23-.16.44-.16h1.9c-.18-.32-.52-.3-.9-.36.42.07.86.04 1.03.37h.33c.8-1.68 1.65-3.2 2.23-4.9-.54-.03-1.2-.16-1.52-.23.03-.03-.07-.03-.1-.03zM91.93 252h-.15c-.37 1.4-1.12 5.86.78 6.1 1 .13 3.15.33 4.16-.04 1.32-.54.37-1.38 1.02-2.3-1.53-1.93-3.8-2.67-5.82-3.75zm135.45-113.36c.14-.38.5-.68.75-1.02-.4 0-.85.04-1.26.1-.23.34-.3.75-.27 1.26.38-.38.27-.48.78-.34zm-.34-2.2a.48.48 0 0 0 .14.1 36.55 36.55 0 0 1 1.93-.07c1.1 0 2.14 0 3.22.03.58-.98.24-2.87.27-3.9h-1.43v-1.1c-.67.2-1.18.44-1.72.7-.04.07-.14.1-.2.18-.85.84-1.8 1.42-2.82 1.82v1.63c0 .03.1.03.1.06.1.16.3.37.5.54zm1.6 6.87c1.38.04 3.5.5 3.9-1.18.22-.98-.25-2.13-.25-3.1 0-.6.06-1.03-.08-1.3-.54 0-1.08-.03-1.62-.07-.2.1-.4.24-.58.34.2-.1.24-.24.3-.35a23 23 0 0 0-2.16 0c-.24.34-.64.65-.78 1.02-.47-.14-.4-.03-.78.34.07 2.24-.67 4.24 2.03 4.3zm-34.66 114.63c.03 0 .1-.04.14-.04.1 0 .2 0 .3-.04.3-.03.64-.03.95-.03-.65-2-1.42-3.96-2.2-5.93-.17.44-.3 1.12-.37 1.8-.17 1.1-.17 2.37.13 3.14.2.55.58.85 1.05 1.1zm1.08 1.08c-.34 0-.67.04-1 .08-.08 0-.15-.04-.25-.07-.26.04-.53.15-.73.38-.65.78-.2 3-.17 3.9 0 .33.06.6.1.8.2.18.34.38.44.62.37.23.95.2 1.83.2 1.08 0 2.5.27 3.4-.44.15-.1.25-.2.35-.34a421.66 421.66 0 0 0-3.18-5.14c-.27 0-.5 0-.78.03zM50.36 152.7c-2.13-.34-4.3-.64-6.33-.98-2.03-.27-4.4-.54-6.43-.8-.34 1.37-.03 3 0 4.45.07 1.87 1.12 1.46 2.8 1.4 1.16-.04 2.5.33 2.95-.96.48-1.3-.34-2.54.58-3.9 1.05 2.37-.95 4.84 2.5 4.88.85 0 2.64.37 3.35-.17.7-.57.54-3.07.65-3.9l.03-.1v-.02h-.03c-.04 0-.04.07-.07.1zm-29.4 64.9c2.56.24 2.22-1.9 2.2-4.02-.08-2.44-2.07-1.86-4.07-1.9-.62 1.94-.86 3.97-1.1 5.96 1 .04 1.97-.13 2.95-.03zM47.3 245.3h-.06c-2.47 0-2.57.1-3.2 2.2-.04.1-.04.24-.04.34v.04c1.7 1.25 3.38 2.53 5.4 3.8 0-.05.08-.08.1-.15.62-.6.86-2.06.86-3.32 0-.73-.07-1.5-.24-1.92-.47-1.2-1.6-.98-2.8-.98zm8.2-68.2c.1-.73.14-1.5.17-2.3-.2-1.2-.44-2.46-.64-3.68-.92 0-1.8.04-2.7 0-.92 0-1.13.44-1.33 1.16-.14.54-.17 3.18 0 3.72.47 1.6 2.88 1.22 4.5 1.1zm128.46 95.38c-.9.03-1.82.03-2.77.03a.6.6 0 0 1-.45.22h-.88c.4 1.35.74 3.92 1.66 5.34.37.07.74.14 1.1.24.8-.3 2.18.54 2.6-1.08l.02-.14a9.67 9.67 0 0 0 .2-1.93c.04-1.32-.3-2.7-1.5-2.67zm27.1-27h-3.6c.26 2.06.53 4.12.84 6.22 1.42-.64 3.48.47 4-1.4.3-1.2.56-4.86-1.23-4.83zm1.13-25.15c0-.24 0-.44.05-.64 0-.4-.16-.7-.67-.66-.1 0-.17-.03-.24-.03-1.4.52-2.5 1.5-2.98 3.16-.03.06-.03.13-.06.2l-.3 2.1c1.07-.07 3.2.3 4.12-.65-.1-.87-.17-1.75-.1-2.6.03-.23.1-.57.17-.87zm17.58-15.4c-.03.03-.03.07-.06.1.57.7 2.64 2.9 1.35 3.08-.37.05-1.42-.73-1.76-.87-.87-.37-1.75-.74-2.66-.94v.12c0 .14.03.27.06.4a.54.54 0 0 1-.13.48c-.1 1.22-.17 2.8.7 3.38.75.5 4.04.48 4.75-.1.9-.7.74-3.55.5-4.57-.3-1.4-1.45-1.1-2.74-1.07zm-210.15-.03a7.4 7.4 0 0 1-.88 1.96l.3 3.65.04.32v.07c2.3-.05 3.98.53 4.05-2.15.03-1.04.4-2.97-.47-3.68-.82-.65-2.07-.04-3.05-.17zm39.5 26.97c-.1-.1-.2-.16-.23-.2l-.05-.04c-1.28.7-1.96 5-.67 6.03.5.4 1.76.2 2.36.2 1.46 0 3.15.24 3.42-1.63-1.9-1.27-3.4-3.04-5.06-4.55a.67.67 0 0 0 .22.2zm41.65 26.9c-.03-.03-.07-.03-.1-.06-.64.4-1.52.07-2 .68-.5.65-.3 2.44-.33 3.18-.14 2.44.77 2.03 2.1 2.3.13-.03.26-.03.4.07.3.14.6.2.9.24h.22c.77-1.3 1.15-2.23 1.1-3.1-.1-1.1-.8-2.08-2.3-3.3zM251 145.13c-.06.1-.17.17-.34.2h-.13c-.58.08-1.7-.1-2.17.3-.4.35-.4 1.23-.5 1.74l-.2.9-.1.45c1.18.44 3.04 1.22 3.7.7.35-.22.52-2.02.6-2.46.06-.44.1-.84.1-1.25a4.2 4.2 0 0 1-.38-1.4h-.17s0 .02-.02.02c.13.3 0 .7-.38.8zM89.95 258.03c.88-1.22 1.02-4.37-.54-4.77-.2.1-.43.2-.67.23l-1.05.1a6.13 6.13 0 0 1-1.1 0c-.52.7-1.03 1.42-1.57 2.1.25.57.08 1.3-.43 1.7a1.2 1.2 0 0 1-.47.66c0 .04 0 .04-.04.07.04 0 .04.03.07.03 0 0 .03 0 .03.04 1.63.44 5.05.84 5.8-.17zm121.2-93.67c-.08.06-.18.1-.32.13-.3.03-.57.06-.88.06a1.2 1.2 0 0 1-.9.68 2.14 2.14 0 0 1-.1.27v.07c.02 1.66-.35 3.25-.76 4.8 1.52-.06 3.48.45 4-1.1.33-1.12.63-4.88-1.06-4.9zm1.07-3.08c0-.75.37-2.6-.17-3.25-.3-.37-.9-.44-1.52-.44a.55.55 0 0 1-.24.12 6.17 6.17 0 0 0-.85.27c.9 1.72 1.62 3.48.54 5.3a.78.78 0 0 0 .02.14c.27 0 .54-.03.8-.07h.1c.1 0 .17.03.23.07.8-.3 1.07-.65 1.07-2.16zm33.84-15.9c0-1.16-1.28-1.36-2.5-1.36-.65 0-1.3.06-1.76.1-1.6.1-2.03 1.66-1.8 3.15a4.28 4.28 0 0 0 .48 1.48c1.8-1.72 3.8-.74 5.9-.33-.1-.2-.15-.4-.22-.6-.17-.83-.1-1.64-.1-2.45zm-42.13 106.05c.27-.03.54-.03.74-.03-1.35-1.66-1.86-4.2-2.57-6.23-.27.07-.54.17-.74.34a.62.62 0 0 1-.85-.03c-.87.17-1.1 1.32-1.1 2.5.06.92.2 1.87.3 2.34.37 1.6 2.6 1.27 4.23 1.13zm5.45-67.34c.84-.56 1.8.12 2.54-.66.7-.8.27-3.2.33-4.2.1-1.85-2.47-1.14-3.92-1.1 0 .1.03.23.03.36 0 .3-.1.58-.3.8.44 1.64.84 3.16 1.32 4.8zm16.45 35.9c-.04-.1-.07-.2-.04-.28.06-2.06-3.6-1.3-4.88-1.25 0 0 0 .03.03.03 1.2 1.83 1.52 3.96 2.44 5.9h-.15c-.1-.04-.13-.04-.13 0 .8 0 1.96.23 2.5-.48.58-.75.24-2.8.2-3.93zM52.76 164.35c-2.34-.2-1.8 2.47-1.76 4.02.03 2.88 2.03 1.3 4 2.24-.45-2.34-.9-4.67-1.33-7.04-.06.54-.4.84-.9.78zm131.9 86.8c.8-.6.52-1.93.52-2.8h.07c0-1.36.03-2.1-.5-2.52-.1-.06-.18-.2-.3-.2h-1.57a94.3 94.3 0 0 0-1.9 5.72v.03c.92 0 2.88.37 3.7-.24zM77.1 280.44c.03.27.07.6 0-.04-.05-.33-.03-.2 0-.02-.2-1.5-2.42-1.34-4-1.2-.17.2-.44.34-.75.2-.1-.03-.17-.1-.27-.13 0 .64-.1 1.32-.03 1.93 0 .06 0 .13.03.2v.03c.1.52.3.96.82 1.3 1.04.7 3.35.8 4.6 1.1-.07-.1-.1-.2-.14-.3-.47-1-.18-2.03-.27-3.06zm-25.8-56.6c.75.04 1.53.04 2.24-.1.37-.06.7-.23 1.05-.43a49.85 49.85 0 0 0-.66-3.82c-.23-.23-.47-.47-.64-.74-.1-.14-.17-.27-.24-.4-.77.13-1.65.2-2.03.9-.4.75-.13 2.75-.06 3.6.03.43.17.74.33 1zm159.87 41.87c-1 .08-3.6-.5-4.43.25-.44.37-.5 1.8-.48 2.94 0 .57.07 1.1.07 1.38 1.76-.78 3.52-1.6 5.28-2.37.1-.5.32-.94.7-1.34l-.15-.34c-.2-.3-.44-.54-.98-.5zm36.2-122.73c.38.34 1.06.44 1.77.44a.42.42 0 0 1 .27-.2c.25-.1.5-.16.7-.2.06 0 .12-.03.2-.03-.48-.7-.62-1.42-.62-2.27-.2-.9-.03-1.86.75-2.8.03-.18.1-.35.17-.55-.55-.03-1.12-.1-1.7-.07-.3 0-.57.04-.8.1-1.36.38-1.2 1.1-1.2 2.4 0 .96-.3 2.48.48 3.2zM51.52 156.44c.35.03.65 0 .96-.07.06 0 .13-.04.2-.04-.17-.74-.34-1.45-.54-2-.2-.53-.4-.94-.65-1.2a3.5 3.5 0 0 0-.5-.25c.13.75-.1 1.46-.07 2.17 0 .44.34.95.6 1.4zm-.5 4.44a7.34 7.34 0 0 1 0 .14v-.14c-.03.23-.03.6-.03.8 0-.12 0-.28.02-.54-.06 2.43.1 2.44 2.67 2.44-.03-.1-.03-.27-.06-.44-.13-1.15-.37-3.5-.74-5.7-.07.05-.13.05-.2.05a4.5 4.5 0 0 1-.95.1c-.2.3-.56.56-.7.93-.27.72.03 1.56 0 2.3v.05zm-6.83 34.58c0 .03-.06.03-.07.06.05.94.28 1.46.94 1.7 0-.38.17-.65.28-1 0 0 .03-.12.03-.2.4-1.4.98-2.76 1.76-3.95-1.14.2-2.26.07-2.22 1.86 0-.13.06-.3.06-.4 0 .06.05.16.06.33h-.06c0 .68 0 1.36.27 2-.05-.1-.12-.17-.15-.24-.2-.6-.38-1.82-.17-2.47.37-1.15 1.35-.98 2.26-1.2.1-.18.24-.35.38-.52-.95-.04-2.6-.07-2.9.13a.93.93 0 0 0-.42.55c-.37.92-.07 2.58-.03 3.36zm8.76 56.75c-.64 0-1.32-.1-1.83.45-.03.03-.07.1-.13.13 1.72 1.56 3.65 2.85 5.55 4.23.13.05.27.1.4.18v-.07c-.03-.6.1-1.4.1-2.15 0-.78-.06-1.52-.4-2-.75-1.05-2.6-.74-3.7-.74zm-1.15-67.78v-.06c.84-2.07 2.06-3.93 3.45-5.6.03-.1.03-.23.07-.33.03-.13.03-.23.07-.37-1.1-.03-2.14-.13-3.2.14-2.02.5-1.44 4.7-.5 6.1.04.02.07.06.1.12zm31.88 74.8c-1.63 1.95-3.4 3.82-5.18 5.64 1.32 0 4.3.6 5.25-.47.7-.86.3-3.6.2-5.05-.1 0-.17-.07-.27-.14zm129.78-39.8v.1c-.03.54-.2 1.08-.27 1.65-.07.82-.04 1.63.07 2.4.23.48.6.82 1.25.8 1.17-.05 2.36 0 3.54 0h.48c-1.56-1.8-2.98-3.74-5.08-4.95zm-13.8 24.67c.1.2.23.32.4.43.17.1.34.13.5.16l.04-.04.27-.2c.17-.1.37-.2.54-.27a3 3 0 0 1-.92-1.16 2.46 2.46 0 0 1-.2-1.02c0 .34.06.64.2.95.2.47.54.88.95 1.22.16-.08.3-.1.47-.15-.75-3.45-1.08-6.97-.95-10.52-.1 0-.24.1-.34.1l-.83 4.7a75.57 75.57 0 0 1-.4 2.07v1.15c.02-.34.06-.54.1-.58.9.65-.35 2.2.16 3.12zm-1.8 28.5l-.17-.02c0-.03.03-.03.04-.03h-.03c-1.25-.1-3.76-.7-4.67.6-.3.44-.3 1.05-.27 1.7.03.5.13 1 .1 1.42l5.96-2.64c-.28-.37-.45-.88-.96-1.02zm14.4-85.37c0-2.35-.62-2.13-2.62-2.8.54 1.9 1.04 3.8 1.1 5.78.05.82-.02 1.7.28 2.34.17.34.4.6.88.75.04-.15.04-.28.04-.45-.04-.17.06-.3.1-.44-.27-.57-.65-1.07-.44-1.85.13-.54.64-.85.78-1.42.13-.6-.1-1.32-.1-1.9zM52.87 211.4c-1.6.5-2.03 1.45-2 3.08.04 2.06.4 2.87 1.97 3.07-.1-.67.1-1.35.57-1.9-.17-1.4-.37-2.83-.54-4.25zm195.47-75l.98-.03h.28a4.1 4.1 0 0 1 1.32.3l.3-.5c-.67-1.46-3.82-4.44-4.33-5 .1.3.14.56.14.87.04.78-.2 1.6-.2 2.27h-.06v.04c0 1.86.67 2.06 1.6 2.06zM35.1 239.2c-.9.05-1.73-.05-2.6-.12.43.47.84.98 1.14 1.55.2.34.37.68.5 1.05a40.56 40.56 0 0 0 2.3 1.6c.04.06.1.37.14.7 0-.33.04-.88.07-1.45.14-1.6.07-3.35-1.55-3.32zm-5.8-14.27c-.84 2.07-1.85 4.03-2.36 6.23.64 0 2.06.17 2.57-.27.65-.55.35-1.8.35-2.82h-.03c.03-.97.33-2.53-.5-3.15zm23.73-20.2h-.24c-.58.23-1.26.1-1.63.74-.37.65-.03 2.07-.07 2.78-.03 1.82-.13 2.2 1.7 2.87-.4-.88-1.1-1.5-1.1-2.53 0 .97.72 1.64 1.1 2.46v.03c.03-2.1-.04-4.27.23-6.37zM17.46 225.2h-.06c.13.8 2.64 2.2 4.4 2.64.1-.07.2-.17.27-.24.3-.27.54-.64.74-1.08.1-.1.18-.27.28-.44-.54-1.6-4.26-.88-5.62-.88zm223.8-40.5v.03c-.07 0-.14.03-.17 0-.62.2-.93.7-.96 1.96v1.14c0 1.2.07 2.34.27 3.52.9-2.2 1.77-4.3 2.68-6.67h-1.82zM28.3 231.93c-.55.03-1.1.03-1.43-.54-.23.37-.27.77-.13 1.25.1.5.37 1.05.7 1.6.38.4.75.83 1.12 1.27.14.17.3.34.48.5.27.28.54.52.8.76.15-1.66.75-5.05-1.55-4.84zm66.15 54.04s-.03 0-.06-.03h.1c-.14 0-.27-.02-.4-.03h.05H94h.02c-1.27-.07-2.38.16-2.98 1.48a1.62 1.62 0 0 0-.1.24c.67.34 2.77 1.52 3.6 1.18.93-.37 1.06-2.33 1.23-3.1-.03 0-.06 0-.1.02-.4.1-.8.28-1.22.24zm-22.33-48.16c.78.34 2.4.28 3.62.07l-.2-.3c-.2-.05-.38-.05-.58-.08.1 0 .3.03.54.03a6.22 6.22 0 0 1-.5-.9L71.8 235a1.05 1.05 0 0 1-.36.3c.58 1.4 1.63 2.1 3.18 2.13-1.52 0-2.67-.74-3.28-2.06a.48.48 0 0 1-.24.06c0 .98.1 1.96 1.02 2.36zm6.3 13.13c.25.45.68.67.87 1.12h-.08v.03c-1.32.36-1 1.22-1 2.44 0 .6-.35 1.7-.2 2.54.05.5.26.9.76 1.08h.04c.13-.54.17-.8.13-.88.14-1.08.27-2.94.38-4.1l.04-.97a.82.82 0 0 0 .12-.57c0-.03 0-.06-.04-.1 0-.07 0-.13.04-.17.13-.98.2-2 .2-3 0-.62-.04-1.26-.07-1.87-.54-.15-.8-.5-.95-.9-.37.2-.57.55-.67.96-.03.13-.06.27-.06.44v.23c-.03.54.03 1.1.03 1.53 0 .74.04 1.52.44 2.2zM223.1 136.6c.07 0 .1-.03.17-.03h-.18c1.42-.07 1.96-.34 2.3-.98v-1.06c-.68.17-1.46.27-2.2.34l-1.66.6c-.64.25-1.28.52-1.93.8-.03 0-.03.1-.07.1 1.16.33 2.3.3 3.5.3.02 0 .02-.07.06-.07zm.23 89.75h-.03c.85 1.7 1.35 3.52 1.35 5.7 1.16-.9 1.22-3 .95-4.34-.2-1.28-1-1.35-2.27-1.35zm-205.1-77.4a.34.34 0 0 0 0 .02v.23c.23 1.08 2.02.94 2.94.9 1.23-.02 1.87-1.02 2.97-1.14.03.7.44 1 1.08 1.1 1.6.3 3.1-.22 4.63-.3a1 1 0 0 0-.54-.13 29.25 29.25 0 0 0-5.15-.67c-1.96-.58-4.03-.54-6.03-1.02.2.34.12.67.1 1zm192.65 55.98c-1.05.04-2.13 0-3.18 0l4.47 3.45v-.67c0-.2.05-.33.16-.43.03-1.2-.04-2.4-1.46-2.34zM61.96 259.45c-.7.1-1.42-.1-2.13-.17h-.1l.3.47c.04.04.04.1.07.14.75.73 1.53 1.48 2.34 2.12.27.04.54.1.8.17 0-.14 0-.28-.02-.4v-.08a.63.63 0 0 1 .44-.54c-.1-1.05-.44-1.9-1.7-1.73zM242.72 129.8c.82-.06 1.6-.03 2.4 0h.4c-.7-.9-1.43-1.55-2.2-1.82-1.03-.34-2.18-.14-3.47.7.72 1.02 1.73 1.23 2.88 1.12zM47.2 210.9c1.8 0 2.94.3 2.97-1.77v-2.74a.55.55 0 0 1-.27.1h-.03c-.95 1.4-1.86 2.86-2.67 4.4zm172.76 16.57c-.17.9-.38 2 0 2.64.3.52.9.72 1.52.86.37.06.78.13 1.08.2-.54-1.7-1.35-3.22-2.4-4.64a5.98 5.98 0 0 1-.2.95zm-.14 33.16c0 .82 0 1.63.03 2.44.04.37.04.75.07 1.12l.6-.62c.1-.1.25-.2.38-.3a3.04 3.04 0 0 1-.06-.6c-.04-1.37.34-3.26.37-3.97-.82.24-1.23 1.02-1.4 1.93zm27.04-88.08c0 .2-.07.4-.07.67v-.07.1c0 .24.04.18.04 0 0 .75.04 1.53.04 2.3.8-1.35 1.52-2.94 2.06-4.3-.8 0-1.28.04-1.6.2-.33.1-.43.42-.46 1.1zM89.07 286l.1-.02c-.03 0-.06-.03-.1-.03-.74 0-1.5.07-2.23.07h-.75c1.48.6 3 1.2 4.6 1.62 0-.1.03-.17.03-.27v-.2c-.03-.92-.6-1.26-1.66-1.15zm134.66-87.84h-.88v.04c.88.94 1.93 1.65 2.98 2.4.3-2.03-.04-2.44-2.1-2.44zm-182.1 47.92h-.17c-.14 0-.3-.1-.44-.17.1.1.2.25.3.35.6.58 1.25 1.35 1.97 1.7l.02.26.03.05c0-.44 0-.8-.06-1.12-.15-.74-.56-1-1.67-1.05zm58.5 12.12a6.65 6.65 0 0 0-1-1.15 1.4 1.4 0 0 1-.78-.68c-.04-.03-.07-.07-.1-.07.06 1.8.1 1.83 1.9 1.9zm-25.9 13.47h.02c2.64 0 2.84-.58 2.98-3.15v-.47c0-2.07-.64-2.14-2.95-2.14-2.2 0-2.97.08-3.04 2.45v.7c0 .82.03 1.4.24 1.8.2.4.5.65 1.1.75.4.06.94.07 1.64.07zM47.27 164.4h-.37c-2.16.02-2.53.46-2.53 2.9v.13h-.07c0 2.37.34 2.92 2.94 2.95 2.68.03 2.9-.34 3.05-2.95.13-2.53-.48-3-3.02-3.04zm-2.95 71.36c.04 1.3-.1 1.83 1.26 2.1.9.17 2.35.13 3.27 0 1.73-.27 1.3-1.63 1.3-3.15-.02-1.88-.02-2.7-2.05-2.76-.88-.04-2.8-.38-3.55.3-.78.7-.27 2.6-.24 3.52zm-3.96-10.42c-2.53 0-2.77.27-2.77 2.8 0 1.9-.14 2.8 1.9 2.98.94.07 2.7.34 3.45-.17.7-.5.57-2.03.64-2.87v-.37c-.04-2.1-1-2.36-3.23-2.36zm48.36 40.4c-.8 0-2.9-.37-3.55.2-.88.78-.34 2.82-.4 3.8-.14 2.3 1.58 1.96 3.4 1.93 1.6-.04 2.38-.07 2.52-1.8.17-2.03.5-4.13-1.97-4.13zM30.7 167.87c.06 2.7 1.32 2.5 3.75 2.48 1.93-.04 2.13-.65 2.13-2.04v-.12c0-.34.04-.7.04-1.12 0-2.64-.37-2.64-2.95-2.64h-.03c-2.57 0-2.94.58-2.94 2.75v.7zm3 43.05c2.48.17 2.92-.2 2.92-2.67v-.44c0-2.26-.27-2.77-2.88-2.77-2.57 0-2.84.34-2.9 2.85 0 .3-.04.54 0 .8.02 1.87.53 2.07 2.87 2.24zm50.23 57.84c0-1.93.07-3.02-2.03-3.05-.95-.02-2.6-.26-3.4.3-.4.35-.5.96-.5 1.57 0 .4.04.85.04 1.2v.6c0 1.86.5 2.18 2.3 2.27l.6.03c2.62.03 3-.3 3-2.9zM44.2 181.58c.07 2.54 1.28 2.3 3.62 2.27 2.27-.04 2.33-.4 2.33-2.6 0-2.72 0-3.46-2.9-3.32-2.92.13-3.12.8-3.05 3.65zm-7.55 32.93c-.23-2.43-.54-2.8-3-2.8-2.55 0-2.95.37-2.95 2.94 0 2.33.42 2.8 2.5 2.96l.54.02c2.7 0 3.15-.44 2.9-3.1zm3.7-44c2.66 0 3.04-.4 3.04-3.03 0-2.7-.5-3.05-3.2-3.05-2.53.04-2.74.65-2.74 3.08-.03 2.68.14 3 2.88 3zm47.5 94.43c2.5 0 2.85-.44 2.85-2.9.03-2.28 0-3.02-2.4-3.05h-1.02c-2.03-.04-2.64.3-2.64 2.87h.07c0 2.7.45 3.08 3.15 3.08zM40.4 157.65c-2.73 0-2.87.78-2.97 3.35v.24c-.03 2.4 1.08 2.34 3.45 2.37 2.37.04 2.5-.8 2.5-2.7v-.84c0-2.44-.57-2.4-2.97-2.4zM97.3 259.5c-.5-.78-1.7-.44-2.48-.4-2.6.07-3.75-.44-3.75 2.57 0 2.74.5 3.28 3.28 3.28h.44c2.02 0 2.53-.1 2.56-2.43 0-.44.14-1.3.14-1.97 0-.4-.07-.8-.2-1.05zm-20.1 1.76v.75c0-2.65-.38-3.16-3.02-3.16-2.5 0-2.94.44-2.94 2.98 0 2.2.13 3 2.43 3.04.27 0 .5.04.75.04 2.2 0 2.8-.3 2.8-2.9-.03-.4-.03-.62-.03-.76zM54 238.74c-2.63 0-3 .34-3 2.98-.03 2.87.64 2.98 3.45 2.94 2.34-.03 2.47-.78 2.47-2.98 0-2.5-.4-2.94-2.9-2.94zm6.78 6.73h-1c-1.57.04-1.98.38-2 2.37-.08 2.74-.18 3.7 2.8 3.73.7 0 2.26.3 2.8-.4.48-.65.18-2.58.24-3.33.27-2.6-.47-2.33-2.84-2.37zm-27.75-48.12h1.56c1.65-.03 2.05-.3 2.05-2.47 0-2.74-.54-3.55-3.38-3.52-2.57.03-2.54.78-2.54 3.08 0 2.47.17 2.84 2.3 2.9zm14.32 41.52c-2.64 0-3.05.3-3.15 2.9v.42c-.04 2.3.6 2.5 3.18 2.46 2.57-.03 2.74-.6 2.77-3.08v-.37c0-2.16-.33-2.66-2.8-2.33zm2.03-13.23c-.44-.23-1.12-.27-2.17-.27-2.26 0-3.07.04-3 2.47.07 2.57.27 3.4 2.94 3.4 2.7 0 3.08-.45 3-3.16v-.43c-.02-.55-.08-.97-.2-1.3-.3-.13-.46-.4-.56-.7zm-5.22-66.33c-.06.66-.23 3.02.14 3.63.64 1.12 3.05.82 4.26.65 1.97-.24 1.66-1.9 1.63-3.56-.1-2.43-.82-2.47-3.16-2.26-1.66.13-2.6-.68-2.88 1.55zm22.37 85.36c2.1.1 3.73.37 3.86-2 .16-2.64.16-3.65-2.58-3.9-2.1-.16-3.2-.4-3.35 1.94-.1 2.13-.37 3.83 2.06 3.96zM48 218.43h-.93c-2.84 0-3.1 1.5-2.84 4.13.2 2.2 1.76 1.83 3.7 1.8.84 0 1.58.13 2.1-.58.5-.74.3-2.54.26-3.38-.15-1.76-.96-1.97-2.3-1.97zm24.8 20.27c-1.9.04-1.5 1.1-1.5 2.58.04 1.25-.54 2.8.88 3.3.75.28 3.42.28 4.17-.02 1.18-.47.8-1.73.67-2.84.04-.38.14-.85.14-1.32v-.04a.57.57 0 0 1 0-.34c0-.1 0-.2-.03-.3-.24-.34-.5-.64-.78-.98-.95-.34-2.78-.04-3.56-.04zm13.77 40.55c-2.24.2-1.97 2.03-1.83 4 .17 2.22 1.62 2 3.6 1.95 2.56-.07 2.56-.98 2.3-3.38-.32-2.7-1.4-2.84-4.07-2.57zM47.2 171.15c-2.43 0-2.87.4-3 2.85 0 .3-.04.6-.04.88 0 1.9.55 2.23 2.92 2.23 2.64 0 3-.32 3-2.96v-.04c.04-2.54-.33-2.94-2.87-2.94zM33.75 190.6c2.54 0 2.9-.44 2.9-2.94 0-2.67-.06-2.98-2.8-2.98-2.64 0-3 .34-3.04 2.98-.04 2.54.4 2.94 2.94 2.94zm40.64 55.06c-.84 0-2.03-.23-2.64.48-.47.57-.47 2.3-.5 3-.2 2.88 1.5 2.27 3.9 2.2 2.15-.06 2.05-.3 2.05-2.43 0-2.62-.04-3.26-2.82-3.26zm-48.08-28.1c.44 0 .88.08 1.28.08 1.22 0 2.17-.17 2.3-1.76.2-2.16.48-4.13-1.96-4.16h-.37c-.4 0-1.2-.07-1.86-.07-.62 0-1.13.07-1.37.27-.6.54-.32 1.83-.28 2.6H24c0 2.38.03 3 2.3 3.05zm2.16-26.14c-1.05.03-2.9-.38-3.86.13-1.08.6-.54 2.06-.54 3.05.04 2.36-.06 2.74 2.47 2.77 1.3 0 2.68.3 3.22-1.05s.78-4.97-1.3-4.9zm68.5 81.45v-.07a2.4 2.4 0 0 0-1.4-.4c-.3 0-.63.07-1.1.07-.96.1-2.48-.34-2.95.84-.26.63.04 2.46 0 3.2-.1 1.93.9 1.97 2.58 1.93 1.12-.03 2.2.04 2.84-.44-.06-.65-.1-1.3-.06-1.93 0-1.1.06-2.14.1-3.22zM54.1 231.97c-2.76-.03-2.96.64-3.13 3.4-.14 2.35.64 2.52 2.87 2.52 2.24 0 3-.18 3.05-2.5.02-2.7 0-3.43-2.8-3.43zM33.8 237.9c2.5-.04 2.63-.68 2.84-3.12.2-2.57-.27-2.84-2.8-2.84-2.96 0-3.16.8-3.12 3.65.03 2.46.7 2.33 3.08 2.3zm9.64-58.45c-.03-.85-.3-1.5-1.46-1.5-1.52 0-3.92-.87-4.46.92-.07.24-.04.58 0 .98-.04.72.1 1.5.1 1.97 0 .17-.07.3-.07.44 0 .47 0 .94.37 1.28.68.65 3.8.5 4.6.2.78-.3.95-.84.95-1.48 0-.38-.1-.8-.13-1.3v-.02c.03-.48.1-.98.1-1.5zm-9.88-15.87h.64c2.3-.04 2.47-.3 2.47-2.9 0-2.8-.7-3.03-3.45-3.06-2.34-.03-2.47.75-2.47 2.98 0 2.54.37 2.94 2.8 2.98zm2.77 55.06c-.7-.58-2.36-.17-3.17-.14-2.33.14-2.54.27-2.4 2.57.03.65-.24 2.58.34 3.08.54.5 1.86.2 2.54.2 1.1 0 1.16 0 .85-.03 2.1-.1 2.37-.74 2.27-3.28-.03-.58.17-1.93-.4-2.4zm-5.6-44.17c.06.7.23 2.03.84 2.5.7.52 1.8 0 2.57.14.1 0 .25.08.35.08.04-.03.07.03.1.03.07-.15.24-.26.5-.26h1.1l.03-.06c.2-.75.6-1.6.64-2.2.07-.85.07-1.93-.37-2.7-.75-1.4-2.64-1.03-4.03-.8-1.76.28-1.9 1.53-1.72 3.3zm.98 9.34c1.08.35 4.26.5 4.87-.66.2-.4.34-1.25.34-2.2 0-1.2-.18-2.5-.7-2.98h-1.14c-.13 0-.27-.03-.34-.1-1.35-.1-3.38-.37-3.96.84-.2.4-.3 1.1-.3 1.8 0 1.42.34 3 1.22 3.3zm29.03 54.9c-1.37 0-2.6-.27-3 1.26-.24.94-.27 3.58.47 4.33.72.7 3.15.53 4.1.4 1.66-.24 1.45-1.46 1.32-2.95.26-3.52 0-3-2.9-3.04zm6.68 19.36c2.5-.03 3.05-.23 3.08-2.8-.03-2.48-.24-3.02-2.74-3.05-2.5-.03-3.18.08-3.22 2.68-.03 2.68.14 3.22 2.88 3.18zm-29.54-73.2c-.78.7-.95 3.25-.88 4.17.13 1.72.3 1.72 2 1.72v-.17h2.53c1.34 0 1.5-1.18 1.5-2.2 0-.77.6-2.94-.1-3.48-.56-.48-4.4-.65-5.06-.04zm-1.2 15.8c.05-1.3.45-2.56-1.34-2.5-2.57.1-4.33-.67-4.5 2.44-.14 2.57-.1 3.45 2.64 3.52.7.03 2.3.3 2.87-.27.7-.64.35-2.37.35-3.18zm38.08 57.67c2.3-.06 2.47-.94 2.47-2.8v-.82c0-2.42-.55-2.5-2.95-2.5-2.78 0-2.67.48-2.8 3-.04.5-.18 1.1-.2 1.64-.05.48.05.92.4 1.22.6.58 2.33.3 3.07.27zm-34.1-26.4c-1.9 0-3.26-.2-3.12 1.97.03.54.27 1.12.27 1.66 0 .34-.27 1.05-.17 1.35.44 1.4 2.77 1.03 4.03.96 2.23-.07 1.76-1.22 1.82-3.12.1-2.53-.23-2.8-2.84-2.8zm-15-48.12c1.4.12 3.86.56 4.26-1.07.24-.9.07-2.33.1-3.28.04-.85.17-1.46-.9-1.5-1.16-.02-2.34.28-3 .04-1.92-.35-2.12.6-2.05 2.26.03 1.8-.58 3.42 1.6 3.55zm63 88.7c-.83-.02-2.63-.36-3.3.15-1.12.78-.38 2.33-.44 3.45-.04.4-.07.64-.07.78a5.07 5.07 0 0 0 .06-.52c-.1 2.55 1.45 2.17 3.9 2.04 2.24-.13 1.83-.8 1.9-2.84.04-1.93.07-2.95-2.03-3.05zM28.2 171.17c-1 .07-2.2-.2-3.12 0-1.5.3-1.22 1.93-1.15 3.1.1 2.3-.07 2.65 2.23 2.7 1.6 0 3.22.8 3.7-1.06.36-1.56.53-4.94-1.67-4.74zm-4.37-16.92c0 .5.03 1 .06 1.28.16 1.26.84 1.46 1.92 1.46h.5c3 0 3.5-.07 3.5-3.15 0-1.22-.04-2.16-1.26-2.6-.94-.34-3.38-.92-4.16-.04-.44.47-.57 1.92-.57 3.04zm5.75 14.24h.27c0-1.35.37-3.07-1.05-3.55-1-.37-4.33-.6-4.7.44-.24.6-.1 1.96-.14 2.67-.03.4-.17 1.36 0 1.76.44.92 1.22 1.02 2.2 1h-.03l.03-.08c2.6-.1 3.42.8 3.42-2.24zm-4.77 42.24c.72.37 3.97.47 4.64-.04 1-.74.44-3.68.4-4.77-.02-1.37-2.1-.87-3.07-.93-.8-.04-2.1-.34-2.67.44-.65.9-.34 4.78.7 5.32zm-7.06-54.28c.3.2.7.34 1.35.34.87.06 2.8.4 3.5-.17.85-.64.52-2.2.52-3.17 0-.95.27-2-.68-2.5-.98-.55-3.6-.08-4.67-.08a1.9 1.9 0 0 0-.3 1.05c.1.8-.1 1.7-.2 2.5.16.68.36 1.36.47 2.04zm52.7 90.93c.02-1.93-.83-2.1-2.92-2.1-2.24 0-3.08.24-3.08 2.27v.5c.13 2.6.33 3.3 2.97 3.32.72 0 2.2.27 2.72-.34.24-.23.27-.88.27-1.52.03-.47 0-.98 0-1.32v-.27l.03-.53zm-27.05-52.3c.05-2.25.22-3.57-2.28-3.64-2.06-.07-3.32-.58-3.55 1.66-.27 2.63-.48 3.74 2.33 4.12 2.4.27 3.4.54 3.5-2.14zm-16.3 3.2c-3.04 0-2.77.7-2.97 3.3-.03.32-.07.6-.07.86.04 1.76.78 1.9 3.08 1.86 2.17-.04 2.8-.42 2.78-2.35v-.33c-.14-2.54-.27-3.32-2.95-3.32h.14v-.03zm5.1 32.85c1.34-.03 3.17.38 3.78-.9.37-.8.7-2.38.54-3.2-.48-2.02-2.4-1.92-4.1-1.85-2.23.07-2.13 2.88-2.1 4.47.04 1.76.5 1.48 1.87 1.48zM24.53 191c.84.5 3.96.12 4.74-.52 1.08-.9 1.38-5.92-.68-5.82h-.04c-.94.03-3.3.14-4.12.7-.82.55-.5 2.4-.5 3.43h.02c0 1-.3 1.68.58 2.2zm17.83-19.74c-.95-.34-4.1-.37-4.67.54-.44.68-.27 2.64-.24 3.55.04.95.14 1.76 1.3 1.76.87-.02 3.14.32 3.88-.1.88-.5.7-1.95.75-3.03.02-1.2.2-2.27-1.03-2.7zm1.05 29.54c-.03-1.72-.27-2.57-2.44-2.64-1.82-.03-3.72-.33-3.72 1.9.34 2.4.4 3.96 2.95 4.06-.03 0-.06-.03-.1-.07l.2-.03c.55 0 1.02.07 1.43.03.54-.03.95-.13 1.22-.44.34-.36.47-.94.5-1.95 0-.3-.03-.58-.03-.85zm38.46 71.68c-.1-.03-.16 0-.25 0-2.2.1-3.18.03-3.42 2.4-.16 1.96-.53 3.66 1.87 3.6 1.83-.04 3.62.12 3.86-1.94.3-2.36.36-4.07-2.05-4.06zm-30.84-23.93c.2 2.44.88 2.7 3.28 2.85 2.2.1 2.8-.55 2.64-2.75-.24-2.57-.58-3.2-3.18-3.18-2.54.04-2.95.58-2.74 3.08zm-31.07-85.18c.4.34 1.9.38 2.37.17 1.15-.54 1.35-5.82-.04-5.82-1.45 0-2.94-.37-4.36.27.44.77.88 1.55 1.32 2.36.74.82-.14 2.3.7 3zm1.32 21.3c-2.35 0-1.94 1.3-1.94 3.3 0 1.97.14 3.02 2.47 2.6 1.83-.3 1.32-2.08 1.3-3.68-.05-1.66-.12-2.24-1.84-2.24zm.6 6.76l-.55-.08a1.1 1.1 0 0 0-.16-.02l.12.02c-.9-.1-1.56.02-1.9 1.06-.33 1-.47 4.07.38 4.78 1.18.98 3.1.1 3.32-1.22.23-1.38.6-4.23-1.22-4.53zm-.8 12.7c2.73 0 2.05-2.38 2.02-4.55-.04-1.3-2.37-2.1-3.35-1.25-.58.48-.55 1.7-.48 2.68.53.85.67 1.87.53 2.92.27.13.65.2 1.26.2zm2.02-24.95c.03-1.25-1.53-1.5-2.5-1.05-1.06.47-.85 1.5-1.3 2.47v1.02c.1 1.72.28 2.33 2.14 2.23 2.47-.14 1.62-2.7 1.66-4.67zm-2.98-8.43c.37.24 1.96.3 2.37.04.5-.32.82-1.67.82-3.03 0-1.28-.27-2.53-.9-2.74.1.04.1.07 0 .07v-.17a3.52 3.52 0 0 0-.5-.1c-.05 0-.1-.03-.12-.03l.1.03c-1.98-.27-2.27 1.77-2.27 3.65 0 1.02-.3 1.76.5 2.27zm1.6.37c-1.26-.03-1.9-.03-2.1 1.32-.18 1.2-.55 4.1.8 4.64 1.22.47 2.47-.27 2.68-1.4.27-1.4.64-4.52-1.4-4.56zm15.9 52.83c.64.8 4.3.75 5 .37 1.46-.78.8-4.84.44-6.16-.88 1.76-1.8 3.52-2.67 5.25l-.3-.1v-.3c.17-3.4.38-6.83.55-10.28l.3-1.05-.14.1c-.15.1-.4.17-.5.23.08 0-.26-.16-.26-.3-.54 0-1.76-.07-2.78-.07v.14c0 .1.1.13-.17.2-.48.95-.35 3.82.13 4.84.47 1 1.9.75 2.87.75-.13 1.36-1.1.55-1.82.78-1.12.38-.2.17-.38.92-.23 1.05-1.15 3.65-.27 4.7zm178.8-67.5c.28 0 .45.16.55.36.3.04.57.04.7 0 1.22-.2 1.3-.57 1.32-1.78.04-.85.24-2.3-.03-3.12-.38-1.15-1.03-.84-2.1-.84-1.9 0-3.66-.82-3.73 1.55-.04 1.23-.37 2.92.34 3.94a42.6 42.6 0 0 1 2.95-.1zm2.18 1.34c-.24-.2-1.8-.04-2.54-.2-.78 0-1.6.02-2.37.06-.73.6-.67 1.55-.5 2.47.34 1.8-.78 3.28 1.66 3.45 1.7.1 3.86.6 4.2-1.32.13-.88.4-3.83-.44-4.47zm19.25 26.86c-.47 0-.94.07-1.28.07-.4 0-.96-.1-1.5-.1s-1.1.06-1.4.37c-.67.68-.3 2.64-.3 3.5-.13.5-.27.66-.37.66-.27-.03-.47-1.28-.47-1.8v-.03c0-1.9-.04-2.57-2.03-2.64-.44 0-.92-.07-1.42-.07-1.08 0-2.12.2-2.46 1.28-.3 1.03-.2 3.97.78 4.62 1.92 1.18 4.94-.92 7.07.1.97 0 3.2.4 4.12-.07.88-.47.74-1.25.77-2.2.03-.78.47-2.5.03-3.18-.34-.44-.95-.5-1.56-.5zm-4.57-36.48c0-.16.03-.34.06-.52a.92.92 0 0 0 .18.52v.03c0 1.03-.13 1.64.85 1.9.3.1.73.1 1.2.1.85 0 1.77-.12 2.3-.23.85-.17 1.26-.84 1.43-1.52h-.1c.06-.34.03-.57.03-.88.34-.74 0-1.52-.07-2.16-.14-1.08-.72-1.42-1.57-1.45-.64 0-1.48.17-2.23.27-1.83.3-1.86 1.25-2.2 2.67 0 .4.1.84.1 1.28zm-3.68 69.44c2.47 0 2.9-.37 2.9-2.84v-.03c0-2.64-.33-3.08-3-3.08-2.6 0-2.92.57-2.92 2.74v.8c.04 2.3.78 2.42 3.02 2.42zm-6.33-66.73c-2.08 0-3.33-.42-3.46 1.92-.04.54-.07 1.05-.07 1.52 0 1.5.3 2.6 2.26 2.57 2.2-.02 3.7-.02 3.76-2.43 0-.47.03-.9.03-1.28 0-1.6-.34-2.3-2.54-2.3zm5.23 46.52c.8.07 2.78.2 3.5-.27 1.04-.7.53-1.96.6-2.98a13.7 13.7 0 0 0 .02-.76v-.18.17c-.02-1.38-.4-2-2.12-2-1.5 0-3.42-.34-3.86 1.35-.5 1.96-.44 4.43 1.86 4.67zm-13.94-47.4v.06c1.34 0 4.05.54 4.08-1.32 0 .1.24.06.24-.04-.03-.2.2-.44.17-.64-.08-.85.43-3.25-.55-3.66-.58-.67-2.98-.8-4.43-.23.08-.03.16-.04.24-.05a2.48 2.48 0 0 0-.58.17l-.17.1a1.5 1.5 0 0 1-.53.68c0 .03-.04.07-.04.07-.4 1.05-.3 2.7-.44 3.75-.35 1.6.97 1.1 2 1.1zm21.55 7.6c-.98 0-1.97-.17-2.5.75-.45.77-.38 2.5-.3 3.35.12 2.26 2.05 1.93 4.02 1.82 2.4-.1 1.96-1.7 1.96-3.82-.04-2.37-.98-2.06-3.18-2.1zm-11.6 27.18c-.55-.1-1.64-.27-2.58-.3-.75 0-1.46.1-1.76.47-.67.74-.53 3.55-.26 4.46.34 1.1 1.18 1.2 2.13 1.2.34 0 .64-.05.98-.05h.27c.37 0 .78.07 1.15.07.4 0 .78-.07 1.05-.37.54-.54.1-2.1.2-2.84.04-.3.04-.58.04-.82v.14h.07l.03-.07.03-.04v-.13c.05-.3.03-.23 0-.03.08-.92-.08-1.48-1.36-1.7zm5.8-27.92c2.04-.04 2.2-.65 2.2-2.1v-1.12c0-2.67-.33-2.77-2.94-2.77s-3 .4-3 3c0 .3-.03.68-.03 1.08 0 .65.1 1.3.58 1.66.7.54 2.4.24 3.2.24zm-12.17 14.35c-.75-.34-2.64-.17-3.4-.07-1.17.13-1.48.27-1.65 1.52a25.78 25.78 0 0 0-.1 2.03c0 .62 0 1.2.14 1.53.27.75.78.85 1.45.88v-.05c.34 0 .4-.07.6-.07h.1v.07c1.37 0 3.4.57 3.8-1.2.04-.06.04-.12.04-.22.07-.44.13-1.02.13-1.6-.07-1.18-.3-2.4-1.12-2.8zm2.1 12.45c.8.7 4.83.78 5.34-.44.3-.64.2-1.56.2-2.23 0 .72-.03 1.46-.33 2.1.3-.77.36-3.96.05-4.73-.37-.44-4.5-.6-5.14-.34-1.04.44-1.5 5.1-.12 5.65zm9.27-5.8c-2.88 0-2.98.76-2.9 3.53.05 2.48.97 2.45 3.34 2.45 2.56 0 2.6-.44 2.56-2.95-.04-2.6-.34-3-3-3zm2.87-32.85c-.54-.84-1.55-.57-2.5-.9-2.64 0-3.18-.2-3.32 2.56-.03.4-.03.84-.03 1.14 0 1.42.37 2.1 2.33 2.17 2.07.08 3.52.52 3.66-1.8.03-.4.1-1.17.1-1.85 0-.47-.07-1-.24-1.32zm-18.17 38.82c.37 0 .92.2 1.56-.14h.07c.3 0 .65.08.92.08.9 0 1.65-.1 1.95-1.22.2-.78.37-3.62-.17-4.3-.34-.4-1.18-.54-2.06-.54-.88 0-1.8.1-2.24.24-1.48.44-1.35 1.7-1.35 3.08v.07c-.03 2.4-.07 2.78 1.32 2.75zm30.37-46.36h.05c-.04-.04-.1-.03-.2-.02h-.57c-2.24.1-3.66-.5-3.76 2.1-.14 2.7-.14 3.66 2.7 3.6.8.03 2.4.4 3.02-.28.54-.6.37-2.67.34-3.45-.12-1.5-.43-1.9-1.58-1.96zM220.14 158c-.64.64-.2 2.16-.17 2.9.07 1.16-.37 2.6 1.15 2.68 1.76.07 4.23.84 4.64-1.4.2-.97.47-3.75-.5-4.46-.75-.5-4.58-.27-5.12.27zm19.22 15.05c-.1-2.13-1-1.86-3-1.86-2.58 0-2.95.33-3 2.9v.3c0 1.7.04 2.55 1.97 2.68.98.07 2.78.3 3.52-.4.48-.45.58-1.22.58-2 0-.58-.07-1.15-.07-1.63zm-9.6-1.9c-2.68 0-3.06.4-3.12 3.02-.07 2.67.4 2.94 3.1 2.9 2.62-.02 2.82-.56 2.85-3.07.03-2.6-.18-2.84-2.85-2.84zm-10.94-6.4c-.44-.63-2.17-.36-2.8-.33-2 0-2.82 0-2.92 2.14-.1 2.3-.4 3.72 2.17 3.82.74.03 2.87.44 3.45-.1.6-.58.4-2.64 0-3.25-.44-.7.54-1.6.1-2.27zm-2.27 19.88c-2.16.03-3.38.03-3.45 2.43-.07 2.8.07 3.52 2.98 3.52 2.64 0 2.98-.4 2.98-3.04 0-2.24-.14-2.95-2.5-2.9zm6.33-13.47c-2.37.07-2.94-.3-2.98 2.3-.06 2.57.1 3.72 2.9 3.62 2.9-.07 3.03-.7 3.03-3.5 0-2.46-.55-2.42-2.95-2.42zm.03-33.8c-.76 0-2.25-.25-2.8.43-.54.63-.2 2.5-.16 3.2.13 1.77.27 2.2 2.06 2.27.75.04 2.2.27 2.9-.1 1.33-.68.96-2.74.9-4-.08-2.06-1-1.8-2.9-1.82zm21.57 33.76c-2.5.2-4.13-.74-4.2 2.24-.06 2.74-.16 3.72 2.88 3.72.6 0 1.15.03 1.63-.03.64-.1 1.15-.44 1.28-1.4.1-.46.17-1.14.2-1.85 0-1.36-.3-2.78-1.8-2.68zm-20.5-27c-3.26-.17-3.97.37-3.97 3.65v.04c0 2.24.75 2.38 2.8 2.38h.6v-.07c1.34 0 2.32-.13 2.46-2 .07-.66.13-1.34.13-1.88 0-1.2-.38-2-2.04-2.1zM234 183.65c.76.47 3.84.5 4.58.16.68-.32.78-.86.78-1.54-.03-.27-.03-.54-.03-.8v-.96c0-2.57-.17-2.57-2.98-2.57-1.83 0-2.5.06-2.8 1.93-.1.57-.28 1.32-.28 2.03 0 .7.13 1.37.74 1.75zm-7.1-20.3c.72.63 3.7.4 4.5.23 1.56-.34 1.16-1.7 1.16-3.12-.1-.77.37-1.86-.27-2.5-.72-.7-1.5-.07-2.3-.14-1.47-.13-2.92-.5-3.3 1.2-.13.67-.4 3.75.2 4.32zm12.16-20.48c.57-.68.27-2.64.23-3.4 0-1.24-.07-2.25-1.7-2.12-1.45.14-3.25-.5-3.92 1.08-.4 1-.68 4 .3 4.67.8.55 4.47.5 5.08-.23zm-1.36 21.5c-.98.16-2.74-.42-3.62.22-.95.7-.64 2.26-.57 3.24.2 2.5 1.02 2.5 3.42 2.5 1.5 0 2.2.14 2.37-1.45.16-1.53.77-4.95-1.6-4.54zm-6.9 54.06c-1.63-.03-3.8-.6-4.16 1.3-.17.84-.3 3.07.06 3.88.75 1.57 5.22 1.16 5.6-.56.36-.82.36-2.17.22-3.05-.13-1.3-.37-1.53-1.72-1.57zm1.7-53.02c-.38-1.62-2.5-1.08-3.97-1-2 .08-2.08.9-1.8 2.47-.12-.6-.2-1.04.1.7.25 1.3-.63 2.37 1.06 2.8.6.18 3.2.2 3.88-.13 1.05-.54.95-3.75.7-4.83zm7.9 4.34c.7.88 3.97 1 4.92.54 1.35-.68.74-3.62.7-4.87 0-1.3-4.63-1.52-5.54-.57-.7.74-.64 4.13-.07 4.9zm4.92-11.2c-1.46.23-3.05-.04-4.5.16a1.3 1.3 0 0 1-.65-.06c-.23.94.14 2.64.24 3.52.25 1.76 1.2 1.45 2.85 1.45 1.15-.16 2.34.42 2.78-.94.13-.47.17-1.96.2-2.5 0-.64-.1-1.12-.3-1.46-.24 0-.44-.06-.6-.16zm-17.16 66.66c-2.06-.3-1.4 2.17-1.46 3.4-.13 2.93 1.22 2.32 3.66 2.52 1.18-1.75 1.83-3.82 1.7-5.95-1.33.07-2.6.24-3.9.03zm12.5-74.28c-.72.68-.9 4.27-.4 5.28.12-.13.32-.17.52-.2.85-.1 1.7-.04 2.54-.04.58 0 1.76.14 2.27-.23.12-.1.26-.17.4-.24.03-.04.03-.08.06-.1a9 9 0 0 0-.2-1.03c-1.7-1.25-3.4-2.47-5.2-3.45zm-2.42 47.24c-.27 0-.6-.03-.98-.06-1.15-.1-2.6-.24-3.28.2-.88.6-.5 1.56-.47 2.54.04.88-.47 2.37.28 3.04.44.4 1.42.38 2.16.1.3-.1.55-.23.7-.4l1.67-5.1c0-.05 0-.08-.02-.1 0-.08-.04-.15-.04-.22zm-4.87 8.87c0 1.08-.37 4.53 1.15 3.22a.4.4 0 0 0 .17-.17c.57-1.56.43-3.4 1.38-4.8-.14-.08-.3-.1-.44-.15-1.76-.6-2.27-.13-2.27 1.9zm-7.54 30.6c0-.24.03-.58.06-.92a58.85 58.85 0 0 1-.28-4.22c-.13-.24-.34-.4-.6-.54-.18 1.22.5 2.43.1 3.7-.62-.15-1-.7-1.3-1.37-.33-.8-.57-1.8-.97-2.37h-.88c-1.5.1-2.07.48-2.1 2.44-.04.88-.34 2.77.4 3.35 1 .73 4.4.26 5.42-.04.13.03.2.03.3.03 0-.1-.04-.2-.04-.3a.55.55 0 0 1-.14.22zm.94-4.88c.04 1.45.14 2.9.3 4.36.04-.02.04-.05.08-.1.1-.16.2-.3.27-.46a39.72 39.72 0 0 0 2.47-4.57c-.52 0-1.06 0-1.6-.03-.82-.07-1.26.27-1.53.8zm-10.45 11.95c2.5 0 2.74-.48 2.74-2.95.03-2.7-.17-2.88-2.88-2.88-2.64 0-3.05.2-3.05 2.88-.03 2.7.48 2.95 3.2 2.95zm-6.84 14.28c-1.05 0-2.3-.27-2.94.74-.48.75-.24 2.4-.17 3.25.13 1.76.84 1.93 2.3 1.96h.67c1.53 0 2.7.37 2.95-1.32.12-.83.26-2.86-.05-3.64-.47-1.3-1.65-.98-2.77-.98zm6.63-21.12c2.62 0 2.96-.58 2.96-2.78v-.7c-.04-2.34-.75-2.44-2.98-2.44-2.5 0-2.84.44-2.84 2.94v.04c0 2.6.23 2.94 2.87 2.94zm.7-12.66c-2.82-.06-3.33 0-3.56 2.74-.24 2.54-.04 3.12 2.33 3.18h1.25c2-.03 2.24-.33 2.24-2.77 0-2.23.17-3.1-2.27-3.15zm.56 27c-.47-.03-1.35-.13-2.2-.13-.64 0-1.28.1-1.6.37-.97.82-.32 2.68-.32 3.76v.1a4.33 4.33 0 0 0-.07.38l.06-.37c-.23 2.4 2.6 2.03 4.34 1.86 1.93-.17 1.5-1.55 1.5-3.24 0-1.73.2-2.6-1.7-2.7zm.1-6.73h-1.08v-.03c-1.9.14-3.2-.24-3.25 1.93-.03.88-.23 2.16 0 3 .3 1.06.82.92 1.93.96 1.8.07 3.83.7 3.96-1.56.1-1.45.44-4.4-1.55-4.3zm7.18-6.6c-2.47 0-4.74-.84-4.77 2.17v.24c0 2.67.34 3.42 3.2 3.42 1.03-1.66 1.97-3.35 2.75-5.1-.14-.66-.6-.73-1.18-.73zm-4.77 8.5c0 1.72-.64 4.47 1.86 3.8.27-1.9-.03-3.94.88-5.66-.23-.03-.43-.03-.63-.03-1.4 0-2.07.14-2.1 1.9zm.7 4.94c-1.24.08-1.5 5.97.65 5.86.34-1.55.27-3.18.3-4.77-.1-.55-.23-1.12-.94-1.1zm-28.72 7.25c-.54-.74-1.66-.6-2.47-.57h-.17c-2.5 0-3.1.03-3.1 2.57 0 2.74.03 3.35 2.8 3.38.92 0 1.6.04 2.07-.1.1-.44.4-.8.9-.9.1-.35.18-.83.18-1.43 0-.7.27-2.34-.2-2.95zm-.75 6.4c-.44-.17-1.1-.2-2.1-.14-2.53.18-2.94.38-2.94 2.96 0 2.7.54 2.94 3.22 2.94 2.5-.03 2.7-.57 2.74-3 0-1.1-.07-1.8-.3-2.24a1.3 1.3 0 0 1-.62-.5zm.78-13.1c-.57-.88-1.72-.6-2.64-.6-2.87 0-3.2.6-3.14 3.44.03 1.42 0 2.23 1.52 2.43 1.56.24 4.57.58 4.47-1.66-.05-.95.32-2.84-.22-3.62zm-6.87 6.57c-.66-.68-1.37.06-2.15-.3-1.26-.58-3.08-.45-3.5.94-.23.78-.36 3.92.28 4.6.68.68 3.7.44 4.5.24 1.53-.34 1.12-1.7 1.12-3.08-.1-.7.37-1.8-.24-2.4zm12.5 6.32c-1.08 0-3.55-.5-4.3.4-.54.7-.34 2.58-.3 3.4.1 1.86.64 2.03 2.43 2.13 1.3.06 2.8.44 3.35-.92.48-1.25.68-5.04-1.18-5zM27.07 157.66c-2.67 0-3.07.9-3.07 3.1 0 .14-.04.3-.04.48.07 2.68 1.36 2.37 3.76 2.34 2.3-.04 2.16-.75 2.23-2.98v-.47c.04-2.14-.5-2.46-2.88-2.47z"/><path fill="#885630" d="M86.62 245.6c-.26-.23-.5-.48-.75-.73a34.45 34.45 0 0 0-.88-.85c-1.1-1-2.15-.75-2.55-.6-.4.15-1.32.64-1.5 2.03-.15 1.22-.2 2.43-.24 3.6-.06 1.63-.12 3.17-.48 4.65l-.56 2.47h3.78l.55-1.1 1.57-3.18a930.78 930.78 0 0 1 1.57-3.16 2.67 2.67 0 0 0-.37-2.98l-.15-.16zm110.34-15.23l-.7-.3c-1.27-.56-2.43.1-3.2.53-.16.1-.32.2-.45.24-1.55.56-2.3 1.58-2.24 3.02.1 2.88.4 5.92.97 9.58l1 6.4 2.78-5.84c.44-.9.56-1.68.64-2.24l.04-.28.82-4.8.4-2.28c.03-.15.1-.32.15-.48.25-.7.63-1.8.13-2.86l-.32-.7zm-3.88-28.07c-.88.1-1.75.24-2.62.38-2.32.36-4.5.7-6.75.24a9.36 9.36 0 0 1-.34-.06 8.73 8.73 0 0 0-1.97-.2h-7.85l7.16 3.9c1.87 1.02 3.98 2.18 6.6 2.1.73-.02 1.5.08 2.3.2l1 .12h.02c1.26.14 2.56.2 3.9.2 2.4 0 4.98-.2 7.88-.65l5.7-.86-5-2.85c-2.5-1.43-5.92-3-10.02-2.52zm-133.04-1.8c.52 0 1.02-.17 1.48-.5l.45-.3c.13-.1.26-.2.4-.28l.1-.07c4.4-3.33 9.2-5.46 14.72-6.5 2.33-.43 4.67-.84 7-1.25 5.6-.96 11.35-1.96 16.97-3.36 1.18-.22 2.7-.55 4.17-1.16l15.9-6.62-24.3 4-4.06.5c-4.16.52-8.45 1.04-12.7 1.5-3.44.4-7.35.84-11.05 2.54-1.2.54-2.4 1.1-3.6 1.68-1.32.63-2.66 1.26-4.02 1.87-2.6 1.18-3.67 2.96-3.5 5.77 0 .1.02.22.04.32v1.86h2zm154.22-3.13c-1.62-1.2-3.6-1.97-5.86-2.27-1.45-.2-2.9-.4-4.36-.57a2.26 2.26 0 0 0 1.12-.4 3.4 3.4 0 0 0 1.38-1.8l.2-.57-.17-.57a18.07 18.07 0 0 1-.17-.72 23.2 23.2 0 0 0-.2-.85l-.1-.35-11.68-16.4-3.44-3 .16.08c.7.4 1.4.77 2.12 1.16.7.38 1.4.75 2.06 1.13.3.17 1.17.67 2.26.36l2.62-.75-1.5-2.27c-1.88-2.83-7.18-6.63-11.85-10-2.45-1.75-5-3.58-5.75-4.4a5.52 5.52 0 0 0-.54-.52l-.16-.15-.26-.25-.34-.15a33.52 33.52 0 0 0-4.4-1.6l.28.05c1.58.3 2.92.7 4.22 1.28 3 1.32 6 2.9 9.2 4.84a12.98 12.98 0 0 0 2.74 1.6l8.22 3.53-5.94-6.7c-6.4-7.2-16.16-16.8-26.32-21.58a2.13 2.13 0 0 0-.35-.13l-.16-.06c-3-.92-6.07-.77-9.67.46h-.02c-2.06.74-2.4 2.35-2 3.64.8 2.54.77 5.2.75 8.02v1.26c0 1.48.7 2.56 1.88 3.03-.32.13-.65.33-.94.62-.97.96-.93 2.27-.92 2.65l-.04 1.68-.64-1.28v6.37a4.7 4.7 0 0 0-.03 1.98l.02.4v.08l.04.66.36.36.2.38-.06.02.38 1-.22-.15a2.2 2.2 0 0 0-1.97-.16c-.45.2-.8.5-1.08.93.34-2.1.43-4.27-.84-6.4-.06-.13-.14-.25-.22-.38l.67.14.76-.9c.75-.87 1.08-2.34 1.37-3.9l.08-.44c.78-3.48.63-7.04-.48-11.54-1.66-6.8-4.92-12-9.96-15.9-5.14-3.97-11.82-7.16-17.42-8.32-7.07-1.48-14.45.73-20.96 2.67l-1.62.48c-1.27.4-2.5.85-3.6 1.27-1.04.45-2.02.98-2.98 1.6-3.68 2.33-7.85 4.97-11.46 8.4-.14.12-.3.26-.43.4-.13.12-.25.25-.4.37l-.14.1c-.96.75-1.75 1.48-2.5 2.18l-1.1 1-.7.62c-3.84 4.2-7 9-9.8 13.22-1.35 2.04-2.76 4.26-3.92 6.9-.48 1.1-1.08 2.15-1.7 3.28-.74 1.32-1.5 2.7-2.1 4.17l-3.05 7.46L67 168.6c2.53-2.1 4.9-4.42 7.24-6.7l.3-.28.38-.35.2-.2c1-1 1.93-1.94 2.98-2.6l2.43-1.58c3.75-2.46 7.3-4.77 11.32-6.2l.5-.2a69.08 69.08 0 0 1 2.78-1.13l.42-.2c1.54-.68 3-1.32 4.54-1.6l3.42-.6c1.84-.32 3.68-.63 5.48-1 3.92-.73 7.44-1.33 10.9-1.24 3.4.1 6.86.53 10.3 1.3a29.5 29.5 0 0 0-5.5-.36c-3.04.1-6.2.2-9.26.24-2.5.04-5.18.36-8.45 1.03-10.16 2.2-19.9 7.02-29.8 14.77-4.1 3.24-7.8 6.97-11.4 10.57-1.05 1.07-2.1 2.13-3.18 3.2a6.22 6.22 0 0 0-.85 1.08c-3.05 4.8-6.1 9.62-9.1 14.43a11.23 11.23 0 0 0-1.45 3.4l-1.33 5.5 4.48-3.45.52-.38c.37-.27.72-.53 1.08-.86 3.5-3.27 7.97-4.8 12.68-6.43l.15-.05c5.2-1.8 10.92-2.9 16.96-3.32 8.97-.6 17.78-2.57 25.22-4.42 6.3-1.57 11.13-3.54 15.22-6.18 2.1-1.36 4.2-2.95 6.47-4.9-.1 1.55-.57 2.92-1.48 4.2-2.02 2.86-5.1 4.45-8.36 6.13l-.18.1c-5.78 3.02-12.23 5.5-19.7 7.58-2.67.74-5.48 1.3-8.2 1.86-2.32.47-4.73.96-7.1 1.56-1.73.44-3.54.8-5.3 1.18-4.6.95-9.34 1.93-13.8 4.27-3.92 2.1-6.75 4.96-8.4 8.57-.94 2.14-1.14 4.23-.6 6.37l1.3 5.18 2.4-4.74c.25-.47.47-.92.67-1.36.44-.93.82-1.73 1.32-2.38 2.03-2.7 4.84-4.38 8.36-5.02 2.15-.4 4.3-.64 6.6-.9 1-.1 2.04-.2 3.07-.34 4-.5 8.13-.83 12.1-1.13 4.87-.37 9.88-.75 14.82-1.5 7.06-1.08 14.52-2.67 21.07-7.05 1.1-.75 2.25-1.47 3.38-2.18 3.3-2.1 6.74-4.25 9.66-7.23 2.85-2.9 5.6-6.1 7.36-10.02-.95 5.46.42 10.17 4.12 14.04.2.2.42.42.6.57 3.35 3.03 7.48 6.43 12.73 8.65 4.1 1.73 8.35 3.52 12.84 4.57 1.92.46 3.7.6 5.43.42l.68-.08c4.14-.48 8.42-.96 12.58-.87l2.5.05c3.33.05 6.47.1 9.64.57l7.86 1.16-6.37-4.73zM168 178.8a166.56 166.56 0 0 0 5.57 4.1l1.88 1.38c2.4 1.78 4.87 3.62 7.95 4.7 1.17.42 2.36.9 3.52 1.35 1.66.66 3.38 1.34 5.1 1.88.43.15.86.28 1.3.4l.93.3.2.05c1.98.4 4.04.78 5.85 1.1-4.64-.63-9.34-1.34-13.88-2.5-3.6-.9-5.97-2-7.94-3.65-4.13-3.5-7.5-6.4-10.48-9.1z"/><path fill="#FFF" d="M176.94 277.87c-1.23-2.97-2.44-6-3.6-8.94l-.63-1.56-.06-.2c-.1-.26-.22-.6-.6-.93l-.4-.32-1.2 1.46c-1.47 2.4-3.28 4.58-5.58 6.74l-.72.9c-1.83 1.57-3.9 2.57-6.08 3.62-1.3.62-2.62 1.27-3.9 2.04l-1.4.85 1.64.08c.7.04 1.37.07 2.08.14 5.42.43 9.73 1.46 13.57 3.24 1.5.7 1.6 1.95 1.74 3.42.03.47-.07.58-.08.58 0 .02-.08.04-.2.02h-.13c-.02 0-.18.03-.62-.13-5.13-2-10.52-3.28-15.73-4.52a409.72 409.72 0 0 1-4.5-1.1c-.08 0-.2-.06-.32-.1l-.35-.12-.13.02c-.24.05-.67.24-.8.94-.1.54-.35 1.84 1.2 2.2.8.2 1.65.5 2.48.8 1.6.56 3.22 1.06 4.8 1.55 4.3 1.32 8.74 2.7 12.57 5.35.4.3.8.45 1.34.5.54-.04 1.03-.27 1.6-.56 2.94-1.48 3.85-3.75 2.8-6.93-.77-2.4-.43-4.58 1-6.43.58-.73.65-1.6.2-2.6zm-55.73 7.25c-2.02.3-3.66.46-5.16.46s-2.7-.1-3.8-.3c-.43-.08-.5-.2-.54-.58-.02-.15 0-.2 0-.2s.05-.04.2-.06c1.24-.25 2.46-.53 3.68-.82 3.32-.77 6.76-1.57 10.24-1.64v-.5h.47v-.38l.12-.52-.54-.07c-1.54-.18-2.84-.96-4.2-1.8a32.48 32.48 0 0 0-1.48-.84c-4.1-2.2-7.1-5.15-9.17-9.04-.65-1.2-1.53-2.27-2.46-3.4l-1.1-1.37-.58-.74-.3.9-.5 1.57c-.44 1.45-.87 2.8-1.4 4.08-1.17 2.76-1.16 5.07.04 7.26.45.87.28 1.7-.54 2.6-.78.83-1.56 1.7-2.33 2.58-.53.6-1.06 1.2-1.6 1.78l-.12.13c-.3.3-.7.73-.53 1.47.1.35.14.73.18 1.13.12 1.07.26 2.28 1.53 3.1.07.03.08.14.05.5l-.02.32V297.28c0 .47-.02 1.1.53 1.5 1.2.82 2.63 1.1 3.88 1.3l.12.02.12-.04c.57-.2.8-.8 1-1.26.1-.2.18-.43.27-.56a2.04 2.04 0 0 0 .26-.43 4.57 4.57 0 0 0 .1-.18c1.2-.64 2.3-1.45 3.37-2.22 1.42-1.04 2.77-2 4.33-2.66 1.73-.73 3.45-1.6 5.1-2.4 3.58-1.8 7.27-3.63 11.33-4.27l3.13-.5-3.14-.5c-3.45-.53-6.57-.57-10.6.05zm25.36-1.9c-.02-.44-.15-.76-.4-.97-.28-.26-.65-.27-.9-.25h-.05c-.05 0-.12 0-.2.02l-.15.02a18.05 18.05 0 0 1-3.53.33c-.47 0-.92 0-1.42-.04h-1.1c-.37 0-.72 0-1.03.04h-.27c-.05 0-.1 0-.14-.02-.1 0-.18-.02-.36 0-.4.07-.65.34-.7.83-.06.9.4 1.52 1.28 1.73 1.2.3 2.48.46 3.78.46h.03c1.3 0 2.57-.1 3.92-.3 1.28-.2 1.26-1.08 1.24-1.62v-.23zm102.38-161.47c.98-.34 1.28-.9 1.32-1.83.17-2.5.37-5.04.6-7.54.28-3.42.58-6.84.9-10.46l-.6.13c-20 5.86-41.38 11.34-61.38 17.16-1 .32-.06 1.9.34 2.62 3.15 5.5 6.5 10.6 9.58 16.14.27.47.5.7.84.78.17 0 .72-.44.92-.5 15.8-5.53 31.64-11.04 47.48-16.5zM246 107.33c2.13-.03 3.24 1.12 3.3 3.42.08 2.1-1.78 4.23-3.75 4.27-1.82.03-3.52-1.63-3.58-3.6-.14-2.06 1.86-4.1 4.02-4.1zM35.6 146c3.18.45 6.33.9 9.5 1.33 4.9.68 9.76 1.32 14.63 2a.84.84 0 0 0 .27.03c.58-.03.68-.54.82-1.05a940.4 940.4 0 0 1 3.92-12.85c.3-.9.03-1.18-.85-1.42-9.1-2.37-18.2-4.77-27.32-7.17l-27.27-7.2a1.88 1.88 0 0 0-.53-.1c-.27 0-.44.06-.54.26-.04.07-.07.14-.07.2a1.7 1.7 0 0 0-.07.44A1347.98 1347.98 0 0 1 5.9 140.6c-.1.84.07 1.22.72 1.4l.5.1L35.6 146zM13.64 128.2c.88-.85 2.03-.74 3.05-.8 2.08 0 3.1.7 3.8 2.63 1.2 3.12.72 5.76-1.34 7.55a4.03 4.03 0 0 1-5.35 0c-2.66-2.37-2.73-6.87-.16-9.37z"/><path fill="#1A1A1A" d="M245.96 107.33c-2.17.04-4.13 2.07-4.03 4.13.1 1.93 1.76 3.62 3.6 3.56 1.92-.04 3.78-2.17 3.75-4.27-.07-2.33-1.15-3.45-3.32-3.42zM16.72 127.37c-1.02.06-2.17-.04-3.05.8-2.6 2.5-2.53 7.02.17 9.38 1.53 1.36 3.76 1.36 5.35 0 2.05-1.8 2.56-4.43 1.34-7.54-.74-1.92-1.76-2.63-3.82-2.63z"/><path fill="#1A1A1A" d="M116.28 329.67c-.47-.44-.78-.95-.88-1.6-.37-1.82-.07-3.6.24-5.4.54-3.46 1.62-6.84 1.45-10.4-.07-1.38-.28-2.67-1.7-3.34-1.52-.75-2.64.06-3.7 1-2.02 1.87-3.78 4-5.5 6.14l-5.18 6.43c-.27.33-.58.98-1.12.7-.44-.2-.27-.77-.2-1.2.13-1.57.34-3.1.5-4.65.2-2.03.48-4.06.14-6.1-.44-2.43-2.2-3.1-4.16-1.58-.48.37-.92.85-1.32 1.3-1.6 1.78-2.9 3.78-4.2 5.8-3.18 4.9-6.1 10.02-9.9 14.5-.72.84-1.47 1.65-2.1 2.56-.7 1.02-.96 2.17-.32 3.25.58.95 1.56 1.3 2.64 1.22 1.16-.07 1.76-.9 2.37-1.73l8.84-12c.16-.2.22-.62.73-.48a24.2 24.2 0 0 0-.17 1.54c-.13 1.93-.54 3.86-.13 5.82.47 2.24 2.23 3.15 4.3 2.14 1.08-.55 2-1.32 2.87-2.14a51.74 51.74 0 0 0 4.67-5.1c1.6-2.04 3.2-4.1 4.9-6.3.5 1.7.3 3.2.24 4.74-.16 2.64-.66 5.28-.16 7.95.34 1.66 1.3 2.64 2.64 2.74 1.4.1 2.74-.2 3.93-1 1.77-1.1 1.94-3.34.28-4.83zm121.93.64c-.83-.02-1.48-.43-2.12-.97-1.96-1.62-3.6-3.55-5.1-5.58-1.26-1.7-1.33-1.7.36-2.85 3.55-2.43 4.8-5.88 4.54-10-.2-3.1-1.87-4.9-4.78-5.36-2.4-.4-4.33.6-6.12 2.03-.4.3-.64.68-1.32.24-1.5-1-2.9-.74-4.16.55-.7.74-1.22 1.63-1.46 2.64-1.76 7.1-3.55 14.17-5.24 21.3-.58 2.38.67 3.6 3.14 3.22 2.24-.33 3.35-1.62 3.73-4.5.37-2.77.74-5.5 1.55-8.4 2.1 2.65 4.1 5.12 6.1 7.6 1.96 2.4 4.1 4.53 6.97 5.8 2.02.93 3.78.4 5.37-1.04.88-.78 1.1-1.8.77-2.9-.3-1.12-1.08-1.73-2.23-1.77zm-8.55-16.5a5.46 5.46 0 0 1-.98 1.86c-1.83 2.27-4.13 3.8-7 4.97.33-2.2.7-4.16 1.55-6 .88-1.88 2.3-3.13 4.43-3.34 1.66-.14 2.47.9 2 2.5zM80 306.12c-.94-.38-2-.44-2.43.8-.27.72-.75.62-1.3.55-3.6-.54-6.8.54-9.36 3.08-5.34 5.2-8.08 11.47-7.78 19.1.2 5.03 3.12 7.46 8.02 6.35 9.72-2.27 17.26-11.78 17.67-22.3.1-2.7-2.36-6.64-4.8-7.58zm-1.35 11c-.5 4.12-2.2 8.35-5.96 11.53-1.33 1.12-2.85 1.8-4.58 1.97-2.13.17-3.75-1.15-3.55-3.3.4-4.42 1.63-8.6 4.57-12.1 1.9-2.27 4.74-2.88 7.48-1.8 1.56.62 2.1 1.4 2.03 3.7zm121.46-2.75c1.05-.33 2.3-.1 3.46-.13 3-.07 6.02-.1 8.93-1.05 1.07-.38 2.06-.86 2.7-1.84.98-1.52.6-2.54-1.15-2.6-3.86-.17-7.72-.48-11.58 0-2.3.27-4.5.9-5.34 3.48-.04.14-.2.34-.34.37-2.65.7-3.56 2.86-4.28 5.06-1.48 4.87-2.8 9.8-4.2 14.68-.33 1.2.14 1.97 1.12 2.58.78.47 1.56.44 2.44.2 4.57-1.12 9.14-2.34 13.9-2 .65.04 1.23-.13 1.8-.4 1.12-.58 1.86-2.07 1.66-3.4-.2-1.27-1.22-1.65-2.3-1.82a21 21 0 0 0-2.5-.23c-2.9-.07-5.82.34-8.73.74.45-3.2.68-3.4 3.73-3.4 2.27 0 4.53-.14 6.67-1.02 1.42-.6 2.33-1.6 2.47-3.18.1-1.1-.34-1.73-1.46-1.76a23.47 23.47 0 0 0-2.66.03c-2.07.17-4.13.37-6.4.58.34-.75.5-1.42.88-1.93.6-.88-.1-2.5 1.2-2.95zm-143.55-6.05c-1.72-1-3.52-1.63-4.84-1.63-3.74.16-6.35 1.38-8.62 3.34-4.87 4.27-7.7 9.78-9.1 16.04-.54 2.37-.2 4.7 1.05 6.8.98 1.66 2.23 2.27 4.13 1.9 4.26-.88 8.4-2.2 12.25-4.3 1.2-.64 2.27-1.4 3.2-2.37.73-.8 1.17-1.7 1.17-2.86 0-1.05-.47-1.42-1.45-1.46-.98-.03-1.83.34-2.7.65-2.92 1.04-5.76 2.33-8.77 3.1-1.5.38-2 .04-2.3-1.48a4.24 4.24 0 0 1 .06-1.73c.6-2.37 1.4-4.67 2.65-6.8.92-1.56 1.93-2.98 3.45-4 1.97-1.24 4-1.92 6.23-.57.74.44 1.46.24 2.13-.17 1.1-.64 1.7-1.65 2.1-2.84.24-.7.03-1.25-.6-1.62zm130.63 1.55c-3.9-3.2-9.5-2.87-13.06.7-2.2 2.28-2.58 4.58-1.2 7.43 1.06 2.13 2.52 3.95 3.94 5.85 1 1.32 2.1 2.64 3.04 4.03.68.98.34 1.76-.8 2.13-.7.25-1.33.18-1.97-.06-2-.7-3.76-1.83-5.28-3.25-.5-.48-1.02-1.06-1.15-1.77-.17-1.05-.75-1.52-1.76-1.62-1.15-.1-2.2-.1-2.88 1.12-1.12 1.97-.8 3.73 1.22 5.55 3.9 3.46 8.53 4.98 13.16 5.35 4.23.07 6.84-3.75 5.45-7.34-.62-1.63-1.67-3.05-2.68-4.44-1.7-2.23-3.45-4.4-5.04-6.7-1.26-1.75-.68-3.04 1.38-3.72 1.9-.6 3.52-.07 5.08 1.12 1.83 1.42 3.38.68 3.8-1.63.23-1.2-.42-2.02-1.26-2.73zm59.46-184.03c1.96-.67 3.9-1.52 5.9-2.13 1.1-.33 1.4-.97 1.47-1.98.66-8.53 1.3-17.1 1.98-25.62.1-1.2-.1-1.42-1.32-1.05-6.4 2.03-12.8 3.96-19.22 5.95-1.97.6-2 .6-2.88-1.32-3.25-7.3-5.8-14.9-8.46-22.4-.58-1.6-.58-3 .1-4.46.95-2.64.34-5.32.27-8-.03-.13-.07-.26-.07-.4-.67-7.34-1.66-14.65-3.58-21.82a84.85 84.85 0 0 0-7.04-17.9c-3.22-6.1-6.67-12.12-10.4-17.98-1.58-2.5-3.27-4.77-6.12-6.02-1-.44-2.03-.58-3.1-.68-1.26-.13-1.97.34-2.8 1.32-1.37 1.7-1.88 4.1-.97 6.06 2.67 5.8 5.1 11.7 7.44 17.63.13.27.3.54.54.95-.54-.04-.7-.3-.88-.6-4.2-4.38-9.14-7.86-14.08-11.35-6.66-4.74-13.94-8.5-21.18-12.28-.98-.5-1.97-.8-3.02-.92-1.8-.2-3.62-.37-5.4-.57-2.85-.34-5.02 1.3-5.02 4.13 0 1.5-.64 1.85-1.9 1.95-1.1.07-2.63 1.62-2.77 2.7-.4 3.46.68 6.37 3.22 8.74 6.26 5.84 12.32 11.9 18.37 17.96l.2.1c.18.14.3.3.4.54-.1.04-.2.04-.26.04a.8.8 0 0 1-.5-.3c-.04-.04-.07-.08-.07-.1-.9-.52-1.8-1-2.65-1.57-4.23-2.8-8.4-5.68-12.63-8.42-1.96-1.3-4.02-2.24-6.5-2.4-2.3-.18-3.95.43-5.5 2.02-1.06 1.05-1.43 2.14-1.26 3.56.23 2.06 1.62 3.35 3.15 4.4 7.08 4.77 13.4 10.35 19.26 16.54.5.55 1.05 1.12 1.63 1.6 1.64 1.35 2.66 3.14 3.67 5 .48.85.3 1.05-.6 1.05-6.03 0-11.78 1.66-17.57 2.88-2.37.5-4.7 1.32-5.55 3.96-.9 2.94-1.35 4.6 2.27 5.52 7.2 1.8 14.18 4.33 20.98 7.27.6.27 1.15.64 1.66 1.08 1.7 1.46 3.25 3.08 5.1 4.27 5.36 3.48 10.87 6.73 17.2 8.22.74.17 1.42.54 2.13.7.7.2 1.18.62 1.3 1.33.42 2.5 1.97 3.93 4.3 4.64.3.1.55.3.86.4.74.23 1.08.77 1.32 1.52a342.14 342.14 0 0 0 2.97 10.08c.38 1.12.04 1.42-.98 1.73-5.24 1.52-10.45 3.1-15.67 4.7-1.86.58-1.9.6-.94 2.3l12.8 23.05c1.78 3.25 1.85 3.25 5.13 1.56.33-.17.8-.75 1.1-.2.3.5.85 1.24.35 1.82-1.6 1.83-2.68 3.96-4.03 5.92-.44.64-.44 1.05-.07 1.66a500.13 500.13 0 0 1 4.23 7.07c.17.28.48.62.4.83-.53 1.72-1.14 3.45-1.72 5.17-.95-3.75-2.57-7-4.46-10.08-2.54-4.06-5.8-7.65-8.74-11.44-.47-.58-1-1.08-1.55-1.62-2.8-2.9-6.42-4.67-9.84-6.74-1.52-.9-3.08-1.45-4.8-1.8-5.3-1.1-10.53-1.55-15.78.08-1.08.33-1.65.06-2.3-.85-1.28-1.8-2.33-3.86-4.06-5.25-4.23-3.38-8.7-6.46-13.9-8.22-3.97-1.35-8-2.23-12.2-2.37-2.16-.06-4.35.08-6.52.25-5.6.44-11.14 1.05-16.08 4.13-.98.6-2.1.94-3.1 1.52-5.1 2.74-10.1 5.45-14.32 9.58-4.37 4.3-8.74 8.6-12.66 13.3-4.54 5.4-7.95 11.54-11.03 17.86-.2.44-.3 1-.97 1.36-.58-3.6-1.15-7.04-1.7-10.5-.1-.64.3-.6.75-.53 1.25.13 2.47.2 3.72.37.95.13 1.46-.07 1.7-1.12.3-1.45.64-2.9.94-4.4 1.15-5.58 2.8-11 4.26-16.48.27-1.05.1-1.42-.98-1.7-5.38-1.28-10.76-2.7-16.14-3.98-1-.24-1.5-.6-1.18-1.7 1.2-4.2 1.76-8.6 3.4-12.7.18-.43.35-.87.8-1.2 1.38-1.1 2.4-2.34 2.26-4.27-.1-1.46.58-2.38 1.96-3.02 2.58-1.22 5.05-2.64 7.48-4.06 1.93-1.12 3.52-2.67 4.6-4.7 4.54-8.53 8.33-17.5 13.8-25.52.5-.7.86-1.5 1.43-2.1 3.56-3.72 6.87-7.68 10.87-11 1.25-1.05 1.6-2.47 1.62-4.03 0-1.8-1.05-3.04-2.13-4.3-1.06-1.2-2.14-2.26-3.94-2.06-.4.05-.8-.12-1.25-.2.28-.53.72-.67 1.1-.9a3334.3 3334.3 0 0 0 14.3-9.28c5.8-3.72 11.55-7.48 17.37-11.2.74-.47 1.08-.84.27-1.56-.2-.16-.34-.4-.5-.6-1.2-1.4-1.2-1.4-2.82-.4C105.15 31.9 88.97 41.98 72.8 52.03c-1.43.88-1.43.88-2.14-.7-1.6-3.7-2.5-7.6-3.7-11.42-.26-.88-.02-1.4.66-1.93 4.06-3.26 7.78-6.9 11.54-10.46 1.52-1.46 2.37-3.2 2.64-5.22.3-2.4-1.3-3.65-3.46-2.77-1.08.44-2.13.9-3.1 1.5-9.6 5.27-19.8 8.9-30.3 11.93-.6.17-1.15.38-1.66-.27-1.04-1.27-2.6-1.98-3.92-2.93-.27-.2-.54-.27-.88-.2-1.42.37-2.88.77-3.76 2.06-2.23 3.28-5.04 6.2-7.14 9.6-2.4 3.97-4.7 7.93-7.4 11.7-.52.7-.72.8-1.2-.05-2.97-5.24-5.98-10.5-8.96-15.73-.95-1.66-1.96-3.25-3.15-4.78-1.32-1.65-2.94-2.47-5.04-2.23-.37.03-.85-.07-.98.5-.3 1.57-1.02 3.2-.8 4.68.46 3.82 1.14 7.65 2.08 11.37C3.76 53.14 5.6 59.54 7.5 65.9c1.88 6.27 3.97 12.43 6 18.66.17.54.48 1-.27 1.45-.94.55-2.47.83-2.64 1.77-.18.98.7 2.13 1.1 3.18l.1.24c.35.8.52 2.02 1.13 2.33.8.4 1.56-.72 2.3-1.16.68-.4.9-.3 1.22.4C18.2 96.92 20 101 21.8 105.14c.27.65.33 1.3.1 1.93-1.26 3.28-2.07 6.7-2.7 10.15-.18 1-.55 1-1.3.8a1517.76 1517.76 0 0 0-11.74-3c-1.73-.43-1.73-.43-1.93 1.33v.14a7850.9 7850.9 0 0 1-2.57 28.12c-.07.84.03 1.18.95 1.28 2.75.34 5.46.78 8.16 1.18.5.07.95.1.82.85-.6 3.2-1.1 6.4-1.76 9.55-.2.95-.07 1.6.47 2.3.94 1.22 1.85 2.47 2.8 3.73.64.88 1.1 2.03.54 2.94-.37.57-.47 1.08-.47 1.66.1 5.85.1 11.7.37 17.56.13 2.84.1 5.7.17 8.53.14 7.55.58 15.06.85 22.6.14 3.7-.5 7.35-.34 11.04.05.92.25 1.43 1.2 1.73 2.23.7 4.4 1.63 6.67 2.34 1.2.37 2.06 1.05 2.6 2.2.48 1 .6 2.03.54 3.08-.02 1 .35 1.62 1.16 2.2 3.5 2.5 6.94 5.07 10.43 7.65 9.16 6.76 18.33 13.57 27.53 20.3.85.64 1.05 1.15.55 2.06-.48.88-.78 1.9-1.26 2.78-.4.8-.34 1.32.44 1.9 1.15.8 2.27 1.72 3.32 2.63.9.78.95 2 .68 2.95-.2.68-1.22.07-1.87 0-.44-.04-.88-.14-1.32-.2-4.37-.72-8.7-1.83-13.13-2.2-7.08-.58-14.15-1.2-21.3-1-.36 0-.94-.32-1.04.42-.1.6-.23 1.25.45 1.66a6.3 6.3 0 0 0 1.08.5c4 1.4 7.72 3.4 11.37 5.5 2.37 1.34 4.7 2.87 7.3 3.78.5.17.96.54 1.54.03a2900.27 2900.27 0 0 1-11.75-9.36c.54-.4.98-.24 1.38-.2 4.7.37 9.37 1 13.94 2.1a534.4 534.4 0 0 1 29.92 8.08c3.25.98 6.7 1.46 9.6 3.42.72.47 1.13.95 1.06 1.83.17.2.37.47.13.64-.27.18-.5-.16-.7-.33-2.3-.2-4.6-.37-6.88-.6-6.53-.65-13.02-1.56-19.62-1.36-4.94.14-9.9-.2-14.8.14-6.96.48-13.93 1.4-20.87 2.14-.34.03-.88-.04-.88.37 0 .5.2 1.08.84 1.22.5.1 1.05.17 1.6.17 3.5.13 7 .1 10.52.17 8.73.2 17.5-.16 26.23.58 3.14.27 6.32.14 9.4.7 14.52 2.72 28.97 5.56 43.4 8.7 1.68.38 3.4.65 5.06 1.46-.77.72-1.8.92-2.23 1.93-3.08 7.14-5.1 14.66-7.48 22.03-.4 1.26.44 2.7 1.7 3.05 2.3.64 4.56-.78 4.97-3.1.26-1.54.53-3.06.73-4.62.07-.5.24-.77.75-.94 1.86-.76 3.7-1.54 5.55-2.28 2.74-1.12 5.3-2.5 7.44-4.57 1.9-1.8 3.5-3.86 3.52-6.63 0-.85.2-1.4.87-1.9 3.12-2.4 5.9-5.14 8.6-7.95 2.6-2.74 5.5-5.14 8.46-7.5.34-.28.6-.7 1.15-.5 2.54 1.03 5.04 2 7.88 3.13-5.28 3.2-10.28 6.3-15.26 9.3-.24.14-.5.2-.74.27-1.83.55-3.42 1.53-4.77 2.85-5.3 5.24-8 11.47-7.7 19.02.2 5.07 3.12 7.47 8.06 6.32 8.66-2.03 16.07-10.32 17.36-19.42.34-2.54.74-5.04-1.08-7.24a31.74 31.74 0 0 0-2.5-2.74c.26-.17.4-.28.53-.38 10.97-6.53 22.9-10.96 34.9-15.1 14.65-5.03 29.6-9.06 44.6-12.92-.34-.06-.72-.17-1.05-.23-.98.1-1.93.2-2.9.27-4.14.37-8.27.8-12.3 1.9a1.6 1.6 0 0 1-.24.1c-.37.16-.8.2-1.3.2-.22 0-.42 0-.7.03.92-.88 3.56-3.72 4.27-3.52l.04-.06h.05c0-.1.27-.3.27-.3.24-.4.58-.68 1.05-.7.78-1.1 1.7-1.97 2.78-2.65.7-.45 1.45-.9 2.27-1.23h-.04c2.27 0 4.5-2.73 6.86-3.68-.02-.1-.13-.16-.2-.26-3.38.48-6.7 1.02-9.94 2.24-6.94 2.57-14.1 4.57-20.88 7.54-10.46 4.57-20.88 9.14-30.93 14.6-.32.16-.62.3-1.1.5-.27-2.44-.5-4.77-.77-7.1-.07-.48.17-.7.57-.9 8.9-4.7 17.84-9.36 27.14-13.22 7.65-3.18 15.23-6.63 22.9-9.75.05-.06.08-.13.15-.13h.06c.03 0 .03.03.06.03.1.17.04.27-.06.37-.04.04-.07.04-.14.07H230c-2.04 2.9-3.9 5.95-5.26 9.3.54.13.75-.04.95-.24 1.58-1.7 3.17-3.35 4.73-5.04 3-3.32 6.2-6.47 9.9-9.04.25-.17.66-.3.5-.67-.22-.4-.66-.2-.96-.13-3.5.7-6.97 1.35-10.42 2.17-1.15.27-1.1-.14-1.12-.95-.03-2.8.37-5.5.47-8.27a8.9 8.9 0 0 1 .82-3.48c1.38-3.2 2.77-6.33 4.2-9.5.7-1.6 1.1-3.3 1.38-5 .44-2.7.78-5.44 1.05-8.18.44-4.2 1.93-8.15 2.64-12.32.9-5.28 1.65-10.6 3.6-15.63 1.77-4.47 3.46-8.93 5.25-13.37 2.47-6.02 5.62-11.74 7.1-18.17.52-2.23 1.1-4.26.08-6.46-.58-1.2-.75-2.54-1.15-3.83a5.53 5.53 0 0 1-.17-2.88c.7-3.46 1-6.87-.87-10.1-.5-.87.1-1.4.6-1.95 1.26-1.3 1.33-1.86.24-3.25-1.25-1.56-2.47-3.15-3.82-4.6-1.12-1.2-2.16-2.47-3.28-3.7-.78-.47-.7-.77.17-1.08zM155.57 328.7c-1.32 1.1-2.84 1.78-4.57 1.92-2.06.17-3.7-1.15-3.48-3.22.4-4.53 1.62-8.8 4.67-12.35 1.85-2.13 4.55-2.7 7.26-1.7 1.6.65 2.13 1.43 2.1 3.8-.54 4.13-2.23 8.36-6 11.54zm45.41-233.92c-.33-.95-.74-1.46-1.8-1.22-1.24.3-1.92-.24-2.46-1.35-.88-1.8-1.6-3.95-3.04-5.07-1.46-1.12-3.76-1.15-5.7-1.62-1.45-.37-2.9-.8-4.4-1.04-3.2-.54-5.98-1.93-8.62-3.86-4.26-3.15-8.66-6.06-13.16-8.83-1.46-.1-2.85-.5-4.27-.85-3.92-.8-7.8-1.66-11.74-2.4-.96-.17-1.13-.88-1.2-1.52-.1-.78.1-1.56.92-2.04 1.25-.74 2.67-.88 4.1-1.1 6.25-1 12.58-1.74 18.95-1.84 1.55-.03 2.94.54 4.4.9.87.25 1.55.15 2.33-.4 3.04-2.02 6.13-3.95 9.17-5.95.47-.3 1.35-.5.98-1.32a1.18 1.18 0 0 0-.2-.3c-.17-.14-.37-.17-.6-.17s-.48.03-.72.03h-.1c-3.45-.1-6.53 1-9.4 2.82-1.13.7-3.67.27-4.38-.78-4.8-7.27-11.6-12.52-18.07-18.17-2.87-2.5-5.68-5.1-8.73-7.4-.78-.6-1.12-2.04-.6-2.8.67-1 1.55-.56 2.36-.2 2.62 1.16 5.12 2.48 7.46 4.14 7.95 5.7 16.48 10.5 24.97 15.3.24.14.48.28.7.38 1.3.44 1.97-.14 1.77-1.5-.1-.7-.4-1.3-.88-1.9-6.87-8.08-14.1-15.83-21.22-23.7-1.5-1.63-3.25-3.06-4.9-4.5-1.32-1.13-2.37-2.4-3.12-3.94-.47-.94-.37-1.86.34-2.67.58-.64 1.08-.78 1.93-.34 2.4 1.15 4.67 2.5 6.8 4.13 3.76 2.84 7.55 5.7 11.34 8.53l11.36 8.48.88.7c.7.66 1.32 1.33 2 2l.4.42c.27.27.5.64.85.84.77.48 1.58.88 2.4.07.26-.26.4-.5.43-.77 0-.1.03-.2 0-.3 0-.04 0-.1-.03-.14a2.42 2.42 0 0 0-.6-1.02l-2.55-2.64c-1.42-1.46-2.84-2.88-4.4-4.2-4.9-4.1-9.95-8.05-15.02-11.9-2.58-1.97-5.6-3.3-8.4-4.92-1-.57-1.7-1.42-2.43-2.23-.5-.62-.65-1.37-.34-2.14.3-.75 1.05-.72 1.7-.78 1-.1 1.92.27 2.8.7 6.53 3.22 12.96 6.67 19.2 10.4.5.3 1 .6 1.5.94 3.5 2.24 6.8 4.78 10.1 7.35 1.55 1.22 2.7 3.04 4 4.63.53.68.16 1.3-.35 1.76-.33.34-.8.55-1.2.78-.45.3-1.02.58-.86 1.22.14.58.78.7 1.3.8.74.15 1.55.1 2.22-.2 2.37-.97 4.37.7 5.9 2.34.4.44.57 1.32 1.3 1.05.8-.3.9-1.15.82-1.93-.16-2.13-.7-4.2-1.18-6.26-1.25-5.3-3.8-10.1-5.9-15.12-.73-1.8-1.55-3.6-2.3-5.38-.4-.98.15-1.86.7-2.58.43-.57 1.14-.06 1.7.2 2.15.96 3.36 2.68 4.4 4.68 1.13 2.13 2.52 4.1 3.7 6.16 2.03 3.58 4.54 6.97 6.16 10.72 2.37 5.5 5.38 10.7 6.8 16.6 1.22 5.2 2.95 10.3 3.56 15.7.23 2.02-.14 3.98.1 5.95.47 3.9-.1 7.63-1.73 11.22-.45.98-.3 1.93.16 2.94 3.55 7.52 6.5 15.27 9.44 23.05.37 1.03.2 1.43-.84 1.74-6.8 2-13.6 4.06-20.4 6.12-1 .3-1.3.04-1.6-.84a676.35 676.35 0 0 1-4.98-13.64zm-42.7 42.9c2.77-.94 5.55-1.3 8.46-.43.06.03.13.03.2.07 3.66 1.1 7.38 2 10.86 3.65.58.27 1.2.54 1.6 1.08 2.26 1.63 4.33 3.5 6.05 5.72 2.68 3.46 5.35 6.94 7.85 10.9l-.47-.18v-.03a14.35 14.35 0 0 1-2.6-1.46 90.95 90.95 0 0 0-9.52-5c-1.5-.67-3.03-1.1-4.66-1.42-4.26-.8-8.52-.94-12.82-.57-1.2.1-2.4 0-3.6 0-.87 0-1.27-.4-1.27-1.28 0-3.3.16-6.67-.85-9.88-.2-.68.2-.95.78-1.15zm-.87 24.42l.12-.27s.03-.14.06-.2.04-.14.07-.24c.04-.08.04-.15.07-.22s.03-.17.07-.23l.02-.2.04-.24c0-.06.03-.13.03-.2l.02-.23c0-.07.04-.14.04-.2l.03-.24.02-.2c0-.07.04-.18.04-.24 0-.08 0-.15.03-.22 0-.06 0-.17.02-.23V155c-.03-1.16.38-1.6 1.53-1.57 1.14.03 2.28 0 3.43-.06l1.05.06a29.28 29.28 0 0 1 1.73-.07 31.46 31.46 0 0 1 5.38.34c3.08.23 5.92.8 7.75 2.3 1.3.57 2.63 1.28 3.9 2.03 3.13 1.86 6.24 3.8 9.35 5.68.65.42 1.22.9 1.66 1.54l3.16 4.43c.17.24.44.5.2.8a.53.53 0 0 1-.27.2v.02c-.26.04-.5-.05-.72-.18-1.4-.78-2.8-1.53-4.2-2.3-4.83-2.7-9.94-4.64-15.3-6.1a145.4 145.4 0 0 0-1.4-.38c-1.5-.44-2.92-.87-4.55-1.07l-2.13-.48c-.07.03.07.16.24.33a.9.9 0 0 1 .17.2c.18.2.34.34.58.48.04 0 .2.1.27.14 3.22 1.63 8.63 2.64 12.6 4.47l-.08-.02-.2-.1-1.32-.6c-.13-.08-.24-.1-.37-.18l-.1-.05.1.05.37.17 1.32.6c.05.03.1.06.17.08l.03.03c.3.13.6.3.88.44 2.2 1.15 4.2 2.57 6.2 4.1l3.8 2.9c5.67 4.13 9.16 9.72 10.85 16.48.03.2.1.4.13.6l.14.22c.27.4.34.9.24 1.35.04.1.04.2.07.3-.06 1-.84.58-1.28.58-2.96-.1-5.8-.75-8.6-1.56l-.1-.03c-.72-.2-1.66-.54-2.33-.75-2.97-1.05-5.78-2.3-8.66-3.35-3.54-1.25-6.32-3.7-9.33-5.82-4.97-3.52-9.78-7.2-14.1-11.5-.45-.44-.9-.92-1.13-1.5a57.85 57.85 0 0 1-.88-2.16l-.5-1.33c-.1-.27-.2-.54-.34-.85 0-.03 0-.03-.04-.06-.03-.04-.03-.1-.03-.14v-.03c0-.05-.04-.1-.04-.15-.12-.47-.16-.98 0-1.45zm21.32 2.07l-.3-.12h-.04.03l.32.12zm-.44-.17l-.04-.02c-.23-.06-.44-.17-.67-.23l-.27-.1.27.1c.23.06.44.17.67.23l.04.02zm-6.74-2.22l-.2-.06.2.06zm-1.72-.54c-.06-.27-.03-.37.05-.4.14.07.27.1.4.12h.02c-.18.1-.4.07-.47.28zm-13.37-22.57zm-1.56 29.95c.1-.32.28-.5.47-.45 0 .02.02.03.03.04.1.05.2.15.3.35 1.1 2.17 2.58 3.96 4.24 5.62 1.76 1.7 3.65 3.25 5.48 4.9a460.42 460.42 0 0 0 11.54 10.06c2.5 2.13 5.5 3.2 8.73 4.06 7.3 1.85 14.78 2.56 22.2 3.58 1.95.27 3.7.9 5.27 2.2h-.1c.13.1.23.16.33.27-4.16-.6-8.32-.55-12.48-.65-4.57-.1-9.04.44-13.54.95-1.62.17-3.18 0-4.74-.37-4.33-.98-8.42-2.74-12.52-4.47-4.63-1.95-8.5-4.96-12.15-8.28-.27-.27-.54-.5-.8-.78-1.25-1.23-2.2-2.55-2.87-3.95l-.02-.08-.04-.08c-1.27-2.98-1.2-6.32-.23-9.98.28-.98.6-1.96.9-2.94zm36.7 59.32h-.87c-.54 0-1.08.14-1.62.17-.6 0-.97.28-1.2.82-.25.55-.55 1.02-.82 1.56-.04.07-.07.14-.1.24-1.1 2.6-2.6 4.84-4.47 6.77-.4.43-.84.83-1.28 1.24a48 48 0 0 1-3.52 2.87c-2 1.44-4.3 2.32-6.6 3.16l-.5.2a6.2 6.2 0 0 0-.48.2c-.1.04-.17.08-.27.1l-.44.14c-.5.2-.9.5-.63 1.3.27.84.88 1.07 1.66 1.1.17 0 .37 0 .57-.03a8.62 8.62 0 0 0 2.1-.47c.68-.24 1.35-.54 2.06-.85.48-.2.95-.4 1.46-.57-.4 1.72-.64 3.32-1.2 4.8l-.3.75a96.14 96.14 0 0 1-1.24 2.7 27.73 27.73 0 0 1-.88 1.77c-1.63 3.24-3.45 6.36-5.72 9.23a23.68 23.68 0 0 1-1.46 1.7 23.84 23.84 0 0 1-3.55 3.1 55.56 55.56 0 0 1-1.45 1.03 67.2 67.2 0 0 1-2.95 1.72c-.8.44-1.6.8-2.4 1.2l-.92.4-.74.3c-.2.06-.4.17-.6.23-.57.25-1.15.45-1.72.66-.17.06-.34.13-.55.17a37.7 37.7 0 0 1-1.82.57 68.3 68.3 0 0 1-5.75 1.46c-.74.16-1.52.3-2.3.44-.1 0-.17.03-.27.03-.78.14-1.52.24-2.3.37-.8.1-1.62.24-2.47.34-2.77.34-5.5.17-8.2-.24-.12 0-.22-.03-.32-.06a60.12 60.12 0 0 0-.4-.1 9.58 9.58 0 0 1-2.04-.85c-.88-.5-1.7-1-2.57-1.43a24.32 24.32 0 0 1-1.82-1.02c-.78-.47-1.56-.95-2.27-1.5-1.4-1-2.6-2.2-3.28-3.9a25.32 25.32 0 0 0-1.3-2.75c-.13-.27-.3-.5-.43-.75-1.12-1.83-2.47-3.55-3.9-5.18-.57-.67-1.14-1.35-1.75-2-.3-.33-.58-.67-.88-.97a99.63 99.63 0 0 0-3.66-3.9l-.94-.94c-1.3-1.25-2.64-2.44-4.07-3.5-.33-.26-.7-.53-1.08-.77a39.24 39.24 0 0 0-3.43-2.2 17.2 17.2 0 0 1-.84-.5c-.27-.18-.58-.4-.85-.56-3.86-2.57-6.97-5.95-8.73-10.45a1.87 1.87 0 0 0-.14-.3c-.6-1.3-1.5-1.72-3.1-1.75-1.24 0-2.46-.2-3.55-.68l-.03-.02c-.68-.27-1.3-.68-1.87-1.2l-.35-.2c-.3-.38-.54-.83-.83-1.28-2.02-3-3.9-6.06-5.44-9.28l.04.1-.07-.18.03.07a53.15 53.15 0 0 0-1.02-2.77l-.5-1.2c-.15-.55-.24-1.04-.24-1.48 0-.23 0-.5.03-.7l.1-.45.06-.2c.04-.14.1-.27.17-.4.38-.72.98-1.36 1.8-2 .3-.24.6-.48.94-.72.65-.47 1.32-.87 1.97-1.3a54.08 54.08 0 0 1 3.08-1.74c3.82-1.96 7.88-3.35 12.08-4.43l.74-.16c.48-.1.98-.14 1.5-.2a22.83 22.83 0 0 1 1.48-.07c.5 0 1.02-.04 1.5-.04.23 0 .5 0 .73-.03 1.7-.07 3.4-.17 5.08-.27 2.54-.17 5.08-.37 7.6-.6 2.55-.25 5.1-.52 7.63-.8 4.6-.53 9.03-1.6 13.26-3.37.88-.38 1.76-.78 2.6-1.2.52-.26 1.06-.5 1.57-.77.3-.18.56-.3.87-.48 2.03-1.08 4.06-2.13 6.02-3.28.2-.27.43-.38.77-.48l.13-.03v.17c-.03.2-.13.34-.27.47a53.56 53.56 0 0 0-.3.2c-1.96 2.5-4.67 4.24-7 6.33-.24.2-.48.4-.72.65-.73.6-1.48 1.25-2.32 1.93 2.94 0 5.8-.34 8.42-1.12 3.83-1.12 7.3-3.1 10.3-6.16a25.88 25.88 0 0 0 1.96-2.3c1.45-1.93 2.77-4.2 3.92-6.8.9 3.28 3.28 5.58 5.28 8.08.14.17.27.38.4.55.14.17.28.37.4.54.25.34.52.6.86.84.2.18.44.35.64.5.24.16.44.3.64.46l.3.24a142.1 142.1 0 0 0 4.5 3.42c1.03.74 2.04 1.45 3.1 2.16 1.55 1.08 3.1 2.13 4.63 3.22 2.1 1.45 4.3 2.67 6.6 3.75.57.27 1.15.5 1.72.78a59.85 59.85 0 0 0 5.35 1.96l.3.1c1.12.3 2.34.4 3.52.54.44.03.88.1 1.3.13.23.04.53.17.83.34.3.18.65.45.95.72 1.05.95 2.03 2.3 2.1 3.1 0 .15 0 .25-.03.35l-.07.14c-.14.25-.34.45-.47.7-.4.7-.85 1.4-1.2 2.15l-.16.37c-.44 1.12-.6 2.3.04 3.7 1.63-1.63 3.08-3.36 4.13-5.32.3-.54.55-1.08.78-1.66.18-.37.32-.78.45-1.18.14-.38.04-.82.14-1.2.12-.4-.35-.97-.15-1.24 0-.03.04-.03.07-.07a.56.56 0 0 1 .2-.1c.14-.03.27-.07.38-.07.27-.03.5-.06.77-.06.68 0 1.32.1 1.97.3.4.14.27.64.23 1.02v.06c-.07 1.22-.57 2.34-1 3.42a7.7 7.7 0 0 1-.35.78c-.75 1.83-1.52 3.7-2.7 5.28-1.67 2.2-3.6 4.26-6.7 4.36zm3.7 6.37c-.44 2.37-.8 4.7-1.22 7.08-.1.67-.17 1.4-.68 2.33l-.1-.6c-.03.1-.1.2-.17.34-.57-3.48-.94-6.7-1.05-9.95-.03-.75.48-.92.95-1.1.78-.26 1.76-1.14 2.27-.73.07.06.13.13.17.2.03.03.07.03.1.07.6.47-.1 1.55-.27 2.37zm-50.05 50.23a24.7 24.7 0 0 1-3.86.3c-1.33 0-2.62-.14-3.94-.44-.7-.18-.98-.65-.9-1.23.02-.37.3-.37.57-.37.17-.03.37 0 .54.03h2.54c.38.04.75.04 1.16.04a16.07 16.07 0 0 0 3.35-.34c.2-.03.4-.07.58-.03.44-.04.78.06.8.74 0 .6.15 1.15-.83 1.3zm-63.08-30.36c.68-2.77.4-5.65.78-8.46.07-.57.37-.5.7-.2.55.5 1.06 1.05 1.6 1.56l.2.2c.27.24.3.55.17.85a1099.68 1099.68 0 0 1-3.15 6.34l-.33-.1c0-.07.03-.1.03-.17zm108.93-46.9c-1.18-.14-2.36-.38-3.58-.34-2.4.07-4.33-1.2-6.37-2.27h.24c-.18-.1-.35-.17-.52-.27.34.02.7.02 1.05.06.4.03.78.13 1.2.2 3.34.7 6.6-.27 9.9-.6 3.42-.38 6.37.84 9.24 2.5-.07 0-.1 0-.17.03.14.06.27.16.44.23-3.82.57-7.6.84-11.44.44zM64.37 164.02c1.1-2.14 2.37-4.17 3.7-6.13.66-1 1.34-1.97 2.05-2.92.34-.47.7-.95 1.08-1.42 1.1-1.42 2.2-2.8 3.35-4.16 1.15-1.36 2.3-2.7 3.5-4.06 1.17-1.36 2.36-2.68 3.5-4.03.48-.5 1.06-.94 1.63-1.38l.37-.42c1.1-.95 2.07-1.94 3.36-2.96l.18-.14.94-.88c3.4-3.2 7.3-5.72 11.24-8.22.4-.26.8-.5 1.2-.72a45.68 45.68 0 0 1 1.57-.67c.14-.06.27-.12.4-.16a35.67 35.67 0 0 1 2.45-.9l1.65-.52c1.97-.57 3.93-1.05 5.86-1.66 3.58-1.15 7.3-1.65 11.02-1.62.54 0 1.05.03 1.6.03 2.77.14 5.47 1.22 8 2.34 1.13.52 2.25 1 3.36 1.53l.8.4c.83.4 1.67.82 2.45 1.3l1.6.9c.5.35 1.04.65 1.5 1.02a27.35 27.35 0 0 1 2.93 2.34c3.07 2.83 5.24 6.18 6.53 10.14.9 2.84 1.58 5.75 1.8 8.7.25 2.84-.6 5.6-1.34 8.35-.1.4-.27.5-.4.47-.2-.07-.3-.3-.48-.5-1-1.2-2.03-2.34-3.05-3.53-3.95-4.6-8.7-7.95-14.68-9.64-4.64-1.3-9.3-2.03-14-2.17-3.77-.1-7.6.58-11.35 1.3-2.98.56-5.96 1.04-8.9 1.58-1.93.35-3.7 1.23-5.45 2-.84.38-1.68.75-2.55 1.07l-.26.06c-5.3 1.86-9.8 5.07-14.45 8.04-1.28.84-2.33 1.96-3.43 3.07l-.13.12-.92.9c-2.13 2.07-4.23 4.17-6.53 6.07-1.06 1.45-2.48 2.47-3.8 3.75.34-2.4.98-4.63 2.07-6.66zm-.94 13.57c.17-.3.33-.52.57-.76 4.7-4.64 9.2-9.54 14.42-13.6 8.66-6.77 18.1-12.05 28.97-14.4 2.63-.56 5.3-.97 8.04-.97 3.1-.03 6.23-.13 9.3-.23 5.96-.2 11.45 1.48 16.45 4.56a28.65 28.65 0 0 1 5.1 4l.2.2a30.34 30.34 0 0 1 4.54 5.8c1.1 1.82.8 3.8.44 5.8-1.02 5.73-4.47 9.96-8.36 13.92-3.73 3.8-8.4 6.26-12.73 9.14-6.13 4.1-13.14 5.68-20.28 6.73-8.9 1.3-17.93 1.45-26.87 2.63-3.25.4-6.53.68-9.78 1.25-3.86.7-7.17 2.6-9.58 5.8-.9 1.17-1.43 2.63-2.27 4.25a2.72 2.72 0 0 1-.14-.5c-.48-1.93-.18-3.52.5-5.05 1.56-3.45 4.16-5.9 7.5-7.6 5.87-3.1 12.4-3.7 18.66-5.3 5.07-1.28 10.3-2.02 15.33-3.4 6.93-1.94 13.7-4.4 20.1-7.76 3.37-1.76 6.9-3.55 9.23-6.83 1.7-2.42 2.13-5.02 1.7-7.87-.08-.47-.2-.7-.38-.74-.17-.04-.4.1-.7.36-2.55 2.27-5.2 4.44-8.07 6.33-4.5 2.9-9.47 4.66-14.62 5.9-8.2 2.04-16.44 3.77-24.87 4.38-5.97.4-11.82 1.5-17.47 3.42-4.8 1.65-9.68 3.3-13.54 6.9-.48.44-1.06.8-1.84 1.4l.1-.55-.37.27v-.07c.12-.1.22-.18.34-.24.23-1.1.67-2 1.18-2.8 3-4.8 6.06-9.6 9.1-14.4zm33.76 8.9l7.37-1.23 1.3-.24c-1.54.8-3.2 1.2-4.85 1.53-7.9 1.96-15.94 3.1-23.93 4.6-5.76 1.08-10.9 3.35-15.58 6.87-.27.2-.57.44-.87.6-.38.24-.55.18-.6-.13-.05-.07-.05-.17-.05-.27-.13-2.03.48-3 2.34-3.86 2.54-1.15 5.07-2.37 7.6-3.55 3.33-1.52 6.88-2 10.47-2.37 5.6-.6 11.18-1.32 16.8-1.96zm-.3-.28h.02zM68.03 54.17c.14.37.17.67-.23.9l-3.63 2.25c-.1.06-.24.1-.65.27-.1-.18-.23-.5-.44-.72l-7.6-8.74c-.35-.4-.7-.77 0-1.15 2.5-1.43 4.4-3.73 7.03-4.95.68-.3.92-.34 1.26.4 1.7 3.8 2.84 7.83 4.26 11.72zm-20.64-17.8c3.6-1.3 7.1-2.74 10.66-4.16 5.14-2.02 9.8-4.93 14.65-7.5.5-.28.97-.62 1.48-.9.44-.2.8-.8 1.4-.5.67.38.43 1.1.43 1.9.18.85-.36 1.56-1.14 2.27C70 32 64.9 36.3 59.7 40.47c-2.07 1.65-4.6 2.43-6.9 3.68-.48.24-.75 0-1.02-.34-1.7-2.15-3.35-4.35-5.04-6.52-.65-.78.23-.74.64-.9zm-30.7 46.3C12.84 70.7 8.8 58.83 5.56 46.68c-.74-2.82-1.05-5.76-1.6-8.64-.16-.85.42-1.3.96-1.6.75-.36.8.52 1.06.86 5.3 7.34 8.93 15.63 13.26 23.5 1.3 2.38 2.74 4.68 4.13 7.02.27.44.48.8 1.15.58.75-.28.6-.75.48-1.3-.55-2.43-1.8-4.63-2.7-6.93-.35-.82-.35-1.46.02-2.28 1.93-4 4.64-7.47 6.77-11.3 1.96-3.48 4.47-6.6 6.36-10.12.98-1.8 3.22-2.1 4.7-.67 1.02.94 1.83 2.03 2.55 3.2 2.43 3.97 5.82 7.15 9.1 10.4 2.3 2.3 4.63 4.54 7.07 6.63.8.7.95 1.8 1.4 2.7.16.35.02.62-.28.8-.17.1-.34.16-.44.26-2 1.7-3.9 1.45-6.23.27-4.63-2.34-8.63-5.42-12.18-9.1-.14-.15-.27-.25-.4-.35-1.63-1.22-1.7-1.15-2.4.7-.75 1.9-1.23 3.87-2.07 5.7-.3.64.16 1.3.64 1.8.53.53.9 1.38 1.88 1.24.44-.08.68-.3.78-.8.24-1.1.54-2.22.85-3.6 3.7 3.1 7.8 5.5 11.85 8.2-1.42.83-2.67 1.54-3.92 2.25-10.05 5.65-20.14 11.3-30.15 17-.82.43-1.16.53-1.5-.5zm3.53 7.84c-.37-.76-.23-1.1.48-1.54a8095.2 8095.2 0 0 0 36.4-22.64c.66-.4 1.26-.17 1.87-.3 2.13-.48 4.2-1.12 6.06-2.3.15-.1.38-.18.45-.3 1.35-3.02 4.37-4.04 6.9-5.22 5.8-2.64 11.65-5.08 16.76-8.94 1.2-.9 2.44-.57 3.32.1.82.65 1.46 1.76 1.12 3.08-.4 1.6-1.02 2.95-2.27 4.1-4.87 4.53-8.83 9.78-12.42 15.4-3.2 5.07-6.4 10.1-8.8 15.63-.47 1.12-1.25 2-2.06 2.9-3.4 3.87-7.42 6.85-12.06 9-1 .5-1.45 1.2-1.52 2.25-.07.84-.34 1.65-.4 2.5-.14 2.17-.85 4.03-2.68 5.38-.58.44-.64 1.15-.85 1.76l-3.86 12.9c0 .1 0 .2-.04.26 0 .2.04.44-.24.55-.57.13-1.08-.04-1.6-.3-6.28-1.46-12.5-3.05-18.73-4.7-.78-.18-1.53-.42-2.34-.52-1.26-.17-1.36-.75-.8-1.7.83-3.95 1.77-7.88 4.2-11.23.55-.74.52-1.35.04-2.16-2.67-4.47-4.7-9.28-6.93-13.95zM7.1 142.13a7.22 7.22 0 0 1-.5-.1c-.6-.17-.8-.54-.7-1.4.73-6.7 1.45-13.4 2.16-20.12.03-.17.03-.3.06-.44.04-.07.07-.14.07-.2.1-.2.3-.28.53-.28.14 0 .34.04.54.1l27.28 7.2c9.1 2.42 18.2 4.8 27.3 7.2.9.23 1.16.5.86 1.4l-3.92 12.87c-.13.5-.24 1.05-.8 1.05-.08 0-.18 0-.28-.04-4.87-.67-9.75-1.32-14.62-2l-9.5-1.3c-9.45-1.37-18.96-2.65-28.47-3.94zm7.5 13c-.18-.5-.15-.92 0-1.22a4.16 4.16 0 0 1 .22-.58c.04.07.04.14.07.2.06.45-.1.92-.3 1.6zm83.58 126.33v-.04c-.34.05-.38.25-.55.35-.06.07-.16.14-.27.2a5.13 5.13 0 0 1-.54.38c-.44.3-.88.67-1.08 1.22 0 .1 0 .06-.03.13s0 .2-.03.2h.1v.2c-.34 1-.5 1.7-.67 2.2-.04.14-.1.24-.14.34-.03.1-.1.17-.13.24a.73.73 0 0 1-.14.17c-.1.1-.2.14-.35.17h-.1c-.2 0-.4-.07-.7-.17-.48-.17-1.1-.4-1.94-.68-.06-.03-.12-.03-.16-.06a.36.36 0 0 0-.17-.08l-.37-.17h-.14v-.14h-.03c-1-.33-1.96-.53-2.88-.9-.54-.2-1.1-.37-1.7-.6-.7-.18-1.4-.52-2.12-.52-1.96-.67-3.96-1-5.86-1.7-.16 0-.27.04-.6 0v.04c-1.36-.27-2.44-.6-3.73-.84-1.25-.2-1.72-.85-1.6-2.1.08-.5.05-1.12.05-1.62 0-.17-.05-.24-.05-.58-.2-.34-.5-.74-.77-1.18-.1-.14-.14-.24-.2-.38-.18-.17-.52-.33-.52-.54-.33-.07-.2-.13-.3-.2-1.05-.98-.74-2.3-.6-3.55l.02-.4.1-.8c.04-.12.04-.26.07-.36.55-2.1.68-4.1-1.6-5.35-.26-.17-.43-.34-.77-.57v.06c-1-.8-2.13-1.64-3.18-2.32-.17-.34-.2-.4-.54-.54-1.7-.92-3.04-1.96-4.36-3.22-.34-.2-.7-.37-1.05-.57h.13c-.2-.34-.44-.3-.6-.47-.28-.2-.5-.34-.85-.55-1.7-1.45-4-2.8-5.82-4.46-.64-.2-1.04-.7-1.55-1.12v-.07c-1.8-1.25-3.55-2.47-5.3-3.82h.02c-.2 0-.2-.17-.54-.34-1.02-.5-2.03-1.35-2.9-2.03-.28-.35-.55-.35-.82-.35-.8-.68-1.52-.98-2.2-1.6-.26-.16-.5-.36-.84-.57-2.03-1.25-3.92-2.43-5.58-4.06l-.17-.17-.3-.33a2.64 2.64 0 0 1-.37-.6c-.07-.18-.13-.35-.17-.55v.27c-1.22-1.32-2.03-2.85-3.04-4.23l-.1-.2c-.04-.06-.07-.13-.07-.2-.04-.14-.04-.27-.04-.37.05-.27.18-.5.35-.75 0-.07.04-.17.04-.27.32-2.15 1.5-4.12 2.36-6.15v-.5s0-.3-.04-.44c-.03-.1-.03-.13-.07-.2l-.06-.06a.53.53 0 0 0-.25-.14h-.1c-.2 0-.48.1-.82.3a4.4 4.4 0 0 0-.77.6l-.27.22c-.08.06-.15.17-.22.27-.03.02-.06.1-.1.12 0 .04-.03 0-.03 0 0 .04-.04 0-.04 0v.04c-.66.77-1.68 1.45-2.56 2.16-.17.17-.47.37-.47.54v-.03h-.1c-.27.34-.65.34-1.02.17-1.45-.64-2.9-1.25-4.36-1.93-.35-.17-.52-.54-.6-.88a8.9 8.9 0 0 1-.1-.45c-.02-.13-.06-.24-.1-.37v.07c-.5-2.37.3-4.13.75-6.16.04-.18.07-.35.07-.52.34-1.96.47-4.06 1.05-5.96v-.88c-.3-2.16-.3-4.3-.47-6.46 0-.37.03-.74.03-1.12-.2-4.02-.47-8.05-.6-12.08-.3-8.42-1-16.82-.75-25.24.03-1.36-.24-2.5-.68-3.62-.1-.28-.24-.55-.37-.82-.4-.78-.88-1.52-1.4-2.3-.74-1.05-1-2.06-.67-3.35.5-1.96.88-4 1.25-6 .18-.94.45-1.44 1.54-1.07.4.13.88.1 1.32.13 1.8.42 3.65.45 5.45.9.17 0 .24.03.48.13 1.6.07 3.42.3 5.1.68.18 0 .38.04.55.14 2.03.27 4.06.5 6.1.85.47 0 .87-.05 1.3.22.08 0 .18-.03.18 0 2.38.27 4.24.44 6.27.78h-.2v.07c1.35.17 2.23.34 3.28.5 1.08.18 2.2.45 3.25.45h.03c.1 0 .17.03.24.03.07.04.3.07.3.07.68.03.95.4 1.05.98.54 3.2.98 6.43 1.66 9.64 0 .24.14.45.1.65.1.53.17 1.04.27 1.54l.88 4.67c0 .15 0 .45.04.52v.14c.34 2.03.7 3.86 1.05 5.78v.65c-.65.66-1.26 1.48-1.83 2.25a22.7 22.7 0 0 0-2.4 4.23c-.45 1.05-1 2.14-1.43 3.2l-.07.02c-.34 1.08-.88 2.13-1.4 3.15-.02 0-.06.06-.1.13-.06.14-.1.34-.16.44v.04a47.9 47.9 0 0 1-1.93 4.43c-.23.46-.5.94-.77 1.4-.1.28-.34.55-.34.8-.34 1.27-.65 2.56-1.3 3.75-.2 1.1-.5 2.16-1.04 3.18-.4 2.03-1.08 3.72-1.83 5.55-.1.27-.27.5-.27.77 0 .04-.03.07-.03.1-.04.1-.07.28-.14.4-.04.15-.08.32-.14.45 0 .04-.04.1-.04.14l-.54 10.45.3.1c.45-.88.9-1.73 1.33-2.6.45-.86.78-1.74 1.26-2.62.27-.6.7-1.2.7-1.82 1.02-1.7 1.94-3.4 3-4.94.1-.17.3-.27.4-.6.87-1.37 1.9-3.16 2.94-4.72.36-.6.76-1.13 1.1-1.72h-.02c.24-.68.6-.78.9-1.1.32-.3.5-.6 1.16-.9 0 .27.07.5.04.75l-.04.13c0 .14-.06.27-.1.4l-.03.14-.06.27c-.03.1-.03.17-.03.27s-.06.17-.03.27c0 .08-.03.15-.05.22h.05c-.3 2.03-.3 4.33-.34 6.46 0 .1-.06.27-.06.34l.06-.03c.28 2.02.6 4.05.88 6.08h-.02c.03 0 .07.44.07.6.34 2.04.78 4.1 1 6.17 0 .06.05.16.05.23.03.14.07.24.07.37.33 1.63 1.55 2.75 2.3 4.17.54.78 1.1 1.7 1.62 2.37h.02v.02c1.7 1.5 3.12 3 5 4.36.28 0 .55.34.83.34H65v.17c.7.06 1.26.6 1.97.4.14-.04.28-.1.38-.17.1-.07.23-.14.27-.24.17-.3-.14-.48-.38-.58-2.77-1.76-2.33-4.64-2.67-7.35h.1v-.03c.68.64 1.15 1.3 1.73 1.96.1.14.2.27.34.37.23.28.47.5.7.78.48.5 1 .98 1.53 1.42.54.44 1.12.92 1.76 1.26.27.1.54.34.78.34h-.06c2.03.98 3.8 1.92 5.65 2.9.4.07.77.2 1.1.5.7 2.04 1.5 4.07 1.3 6.44.06 0 .13.25.16.42.04.17 0 .3-.03.44.24 1.96.24 3.96-.03 5.92a.62.62 0 0 1-.04.54c-.03.07 0 .1-.03.17h.03c0 1.95-.03 3.92-.54 5.85-.03 1.93-.64 3.8-.85 5.72 0 .06-.03.13-.06.23-.1.37-.26.8.55.7v-.02c1.83-1.9 3.65-3.76 5.35-5.9v.15c.03-.68.44-1.02.8-1.36.72-.67 1.43-1.82 2.14-2.8.7-1 1.42-1.93 2.13-2.92 0-.06.04-.1.04-.16.1-.35.24-.56.4-.66.08-.03.15-.07.2-.07h.22c.2.04.44.1.7.28.38.2.75.44 1.1.67 2.02 1.12 4.32 1.86 5.85 3.8.16.16.37.2.54.53.72.34 1.36 1.12 1.87 1.86.17.18.37.35.54.52.04.04.08.04.1.07 2.7 2.26 2.9 3.48.96 6.5-.07.1-.17.2-.24.2a3.34 3.34 0 0 1-.34.77c-.06.17-.17.34-.27.5-.02.07-.1.18-.12.24-.5.83-1.05 1.67-1.25 2.62-.17.78-.3 1.6-.17 2.37.37 1.3.7 2.66.98 4.02.17.8.34 1.62.4 2.47.28 1.98-.67 3.2-2.36 4.05zm9 16.48c-.44.54-.5 1.66-1.22 1.55h-.07c-.08 0-.14.04-.2 0-1.3-.16-2.65-.47-3.77-1.2-.4-.28-.3-.8-.3-1.27v-6.38c0-.44.17-.95-.27-1.25-1.5-.95-1.12-2.58-1.5-3.93-.13-.54.24-.8.55-1.15 1.33-1.47 2.6-2.92 3.93-4.38.88-.94 1.26-2 .6-3.14-1.2-2.3-1-4.5-.02-6.84.8-1.83 1.3-3.76 2-5.92l.2.23c1.33 1.66 2.65 3.08 3.53 4.74 2.13 4.1 5.28 7.07 9.34 9.23 1.9 1.02 3.6 2.42 5.83 2.7h.04c.1 0 .16-.02.26-.03.24 0 .57-.03.5.34-.03.2-.24.2-.44.17h-.1c-.07 0-.14 0-.2-.02-2.36.07-4.66.46-6.95.94-1.2.26-2.4.54-3.58.82-1.08.25-2.16.5-3.24.7a1.3 1.3 0 0 0-.2.07.52.52 0 0 0-.03.02c-.48.1-.68.33-.6.8.06.58.26.9.94 1.02 1.2.23 2.46.26 3.67.24h.17a35.32 35.32 0 0 0 4.98-.47 34.16 34.16 0 0 1 5.55-.43c1.8 0 3.6.13 5.4.4-6.05.98-11.05 4.4-16.54 6.7-2.84 1.2-5.04 3.46-7.75 4.9-.2.25-.3.62-.5.86zm17.53 4.46c0 .03-.03.03-.03.06-.03.04-.06.04-.1.04l-.13-.04a.42.42 0 0 1-.17-.17c-3.96-1-7.96-1.97-12.15-3.02 1.4-1.12 2.4-1.76 4.1-1.12 2.77 1.1 5.34 2.6 8 3.86.15 0 .32.04.42.14.07.03.07.06.07.17v.06zm11.95 12.96c-.64 1.08-1.62 1.86-2.6 2.6-1.97 1.5-4.1 2.6-6.8 3.42.98-3.05 1.8-5.85 3.45-8.26 1.08-1.55 3.7-1.96 5.3-1.05 1.1.6 1.4 2.07.65 3.3zm15.77-18c-3.1 2.5-6.2 5.03-9.1 7.78-.7.67-1.25.7-2.06.2-4.98-2.95-10.16-5.42-15.47-7.68-2.34-1-4.82-1.4-7.22-2.24.27-.5.78-.5 1.2-.64 5.16-1.93 10.44-3.65 15.52-5.92 1.32-.6 2.64-.1 3.92.06 1.93.28 3.8.3 5.55-.64.3-.17.65-.3 1.02-.13 3.92 1.62 7.84 3.25 11.9 4.9a304.3 304.3 0 0 1-5.28 4.3zm24.23-17.2c-1.62 2.1-1.9 4.47-1.08 6.9.95 2.9.27 4.9-2.57 6.33-.64.33-1.15.53-1.7.5-.4.03-.77-.07-1.25-.4-5.28-3.66-11.57-4.88-17.5-6.98-.84-.3-1.65-.6-2.53-.8-1.02-.25-.95-.92-.8-1.63.1-.52.36-.6.63-.56.27-.06.64.14.88.2 6.77 1.7 13.6 3.05 20.14 5.6.23.1.44.13.6.16.48-.07.6-.5.55-1.15-.14-1.52-.27-3-2.03-3.82-4.38-2.04-9.02-2.9-13.75-3.3a44.74 44.74 0 0 0-2.1-.12c3.35-2.02 7.04-3.1 10.05-5.7.37-.32.7-.62 1.05-.96l5.62-6.8.67-1.12a.68.68 0 0 1 .17.1l.1-.1c.55.3.6.7.72 1.05 1.43 3.5 2.8 7 4.23 10.5.34.77.4 1.45-.1 2.1zm72.4-143.8a.9.9 0 0 1 .2.35.33.33 0 0 1-.04.3.58.58 0 0 1-.2.22c-.06.1-.1.13-.13.2l-.03.03c-.04.04-.04.07-.07.14l-.03.06h.03v.1c-2.03 2.06-1.5 4 .13 5.85.1.18.2.35.2.52 1.36 1.8.24 3.6 0 5.38-.03.17-.06.24-.2.3-.03 0-.06.04-.1.04-.13 0-.27-.04-.4-.07l-.14-.03c-1.18-.34-2.37-.7-3.55-1.1-.1 0-.16-.05-.26-.1-.1 0-.17-.1-.27-.1-.54 0-1.15-.02-1.66-.26-1.5-.64-2.9-.44-4.12.7a.8.8 0 0 1-.07.28c.6.85 1.54 1.05 2.38 1.32 3.45 1.12 6.4 3.25 9.58 4.9.74.4.88 1.3.8 2.14-.02.47-.16.95-.26 1.46l-1.02 4.36c0 .37-.03.75-.27 1.08.05 2.37-1.6 4.13-2.4 6.16-.1.17-.16.24-.26.58a45.47 45.47 0 0 1-1.83 4.2c0 .1-.12.23-.16.33v-.07c0 .03-.03.03-.03.06s-.02.06-.06.13c-.03.03-.03.07-.07.1-.16.64-.27 1.32-.8 1.86-.55 2.16-1.6 4.12-2.65 6.08-.1.17-.17.17-.23.5-.9 2.04-1.8 4.48-2.7 6.7-.2.82-.36 1.63-.56 2.4l-.1.22c0 .03-.04.03-.04.06 0 .07-.07.14-.1.2-.03 1.06-.1 1.87-.5 2.7-.18.56-.3 1.17-.48 1.7 0 .07-.03.18-.07.28l-2.84 12.86c-.77 3.52-1.07 7.1-1.65 10.62-.54 3.32-.68 6.74-1.5 10-.56 2.36-1.92 4.55-3 6.75-1.02 2.07-1.66 4.27-2.9 6.27l-.1.2a2.3 2.3 0 0 0-.18.44c-.04.07-.04.17-.07.24l-.1.47c-.03.16-.03.33-.03.5 0 .17 0 .33-.04.5v.5c0 .35 0 .7-.03 1.03-.27 3.62-.75 7.24-.58 10.9.04.67-.17 1.04-.8 1.28l-.82.3c-.54.22-1.08.45-1.6.7l-.84.33c-.44.17-.7.3-1.4.47v-.06s-.1.06-.16.06c-.6.27-1.25.54-1.86.78l-1.32.54c-.9.65-1.93 1.02-2.97 1.3l-.5.3c-2.14.94-4.38 1.92-6.4 2.87 0 .02-.2.1-.28.1-1.15.33-2.33 1-3.48 1.55-1.27.54-2.48 1.05-3.74 1.6-1.96.87-3.92 1.68-5.9 2.56-.05.04-.15 0-.22 0-1.8.7-3.66 1.67-5.35 2.45-.7.37-1.67.74-2.5 1.08-1.57.6-1.9.54-2.25-1.05-1-.74-1.1-2-1.5-3.04-.36-1.02-.66-2.14-1-3.15-.07-.35-.24-.28-.24-.5-.33-.46-.33-.9-.5-1.37l-.03-.24c-.1-.08-.1-.18-.13-.28l-.1-.24h.06c-.47-1.42-.98-2.8-1.32-4.23-.34-.95-.95-1.86-1.12-2.84a2.42 2.42 0 0 1 0-.97l.1-.48c.04-.06.04-.16.07-.23.27-.68.7-1.32 1.05-1.96.24-.55.44-1.1.68-1.63.24-.54.44-.95.68-1.62.54-1 .88-2.2 1.55-3.38 0-.27.2-.54.26-.8.6-2.07 1.3-4.17 2.1-6.17 0-.07-.07-.17-.03-.24.24-1.2 1.4-1.64 2.06-2.36v.04c.33-.1.5-.3.67-.3.2-.34.4-.48.6-.68.38-.44.72-.92 1.06-1.4.17-.23.34-.46.47-.7.64-.95 1.22-1.93 1.93-2.88.24-.3.44-.78.8-.78.08 0 .1 0 .18.04.55.13.38.78.32 1.18-.34 1.56-.24 3.08 0 4.6.17 1.2.37 2.37.47 3.56 0 .17-.04.37-.04.54.33.88.47 1.76.5 2.67.27 1.15.5 2.27.85 3.42 1.03 2.1 1.77 4.23 2.45 6.4l.06-.04c1.17 1.7 2.32 3.67 3.47 5.53.33.44.7.9 1.05 1.25h.06v.27c.34 0 .5.75 1.02.07-.1-.34-.17-.34-.27-.34a6.33 6.33 0 0 1-.44-1.12c-.08-.23-.18-.5-.22-.7a5.4 5.4 0 0 1-.16-.72c-.04-.1-.04-.23-.07-.33a4.08 4.08 0 0 0-.14-.67l-.16-1.05c-.06-.34-.1-.7-.17-1.05-.1-.1-.1-.24-.1-.37a1.9 1.9 0 0 0-.13-.4c-.04-.4-.1-.82-.17-1.23l-.3-2.43c-.04-.4-.18-.82-.2-1.22-.48-4.43-.18-8.87.5-13.27h.2c.4-2.02.8-4.35 1.22-6.55.1 0 .2.03.33.03-.14 3.7.23 7.35 1.05 10.93.03.08.03.18.03.25.52 1.4 1.06 2.77 1.5 4.2l.3.88c.1.27.24.57.4.8.1.18.25.35.38.52.1.16.3.33.3.5.35.27.5.58.8.85.2.24.36.5.56.74.7.68 1.46 1.32 2.34 2.2a52.92 52.92 0 0 1-.24-1.96c-.07-.6-.17-1.22-.24-1.9 0 0-.17-.1-.17-.16 0-.5-.07-1.02-.13-1.53l-.58-4.64c0-.14 0-.24.04-.38 0-.13.03-.37.03-.37-.28-2.02-.3-3.88-.28-5.84l-.03-.24a1.32 1.32 0 0 1-.12-.47c-.27-1.6-.13-3.18.07-4.74.07-.46.04-.97.07-1.45 0-.1-.03-.16-.03-.27 0-2.23.1-4.5.76-6.66 0-.07.04-.24.04-.24.17-1.02.34-2.23.5-3.35.17-1.12.34-2.27.48-3.38.07-.48.2-.72.47-.72.14 0 .34.07.58.24l.7.44c.35.2.72.45 1.06.7.33.23.66.46.97.77l.13.1c.07.07.24.17.24.17h.07v-.04c2.38 1.2 3.7 3.18 5.3 5.05.3.2.5.4.73.67.37.4.6.92.8 1.46a15.26 15.26 0 0 1 2.38 4.53c.05.15.12.32.15.45.03.14.1.07.13.4.28.35.44.8.6 1.2.18.4.32.8.5 1.18l.26.57c.07.14.13.24.23.34.14.17.3.27.58.34.37-1.25-.5-2.44-.17-3.62h.1c0-.34-.1-.34-.1-.5-.34-2.2-.6-4.37-1.52-6.4-.04-.17-.04-.55-.04-.55-.8-2.02-1.2-4.08-2.4-5.87-.27-.2-.44-.55-.5-.88-.38-.34-.58-.75-.78-1.15l-.55-.88v.23c0-.03-.07-.07-.07-.1v-.03c-.92-1.4-2.03-2.68-3.12-3.93l-.12-.14c-.14-.14-.27-.14-.4-.48-.82-.34-1.6-1.35-2.4-2.06-.1-.1-.2-.14-.28-.24-.07-.07 0-.13-.34-.24-1.7-1.15-2.94-2.57-4.43-3.58-.27-.34-.6-.14-.75-.68 4.37-.27 8.6.24 13 .5v-.16h.03c2.18.34 4.2.74 6.17 1.6.07 0 .14.1.24.1v.06c1.36.3 2.65.9 3.93 1.52.27.14.6.58.92.17.23-.34-.14-.64-.34-.9-.5-.72-.97-1.44-1.52-2.15-.1-.16-.27-.33-.27-.5-1-.98-1.78-2.1-2.66-3.08-.27-.27-.57-.58-.85-.92-1.02-.67-2.07-1.45-2.95-2.4-.17-.1-.34-.3-.5-.3-.45 0-.92-.48-1.36-.78-.45-.3-.92-.58-1.36-.88-.17-.1-.34-.17-.5-.27-2.08-.8-4.14-1.5-6.2-2.28-.07 0-.2-.03-.2-.07 0 0-.18 0-.24-.03-.44-.04-.78-.17-1.02-.4a1.1 1.1 0 0 1-.37-.52c-.03-.03-.03-.1-.06-.16a1.92 1.92 0 0 1-.1-.88c.07-1.05 0-2.1-.17-3.12-.03-.3-.1-.57-.17-.88a30.74 30.74 0 0 0-.2-.84l-.2-.88a31.6 31.6 0 0 0-.34-1.26s-.14-.03-.14-.13c-.34-2.07-1.15-4.13-1.76-6.16-.1-.28-.14-.48-.24-.82-.54-1.02-.77-1.6-.8-2.37 0-.26 0-.5.03-.77 0-.14.03-.27.03-.37.07-.37.13-.78.27-1.15.14-.5.3-1 .47-1.52 0-.06 0-.23.04-.23h-.04c.44-2.4 1.4-4.44 2.07-6.6 0-.04.06-.04.06-.07l.13-.13c.02-.04.06-.04.06-.07.64-.88.8-1.76.74-2.6a4.6 4.6 0 0 0-.37-1.46c-.24-.6-.54-1.2-.85-1.8-.03-.06-.13-.13-.2-.17-.03-.03-.07-.06-.07-.1-1.3-1.38-2.15-3.2-2.93-5l-.24-.55c-.06-.07-.06-.13-.1-.23 0-.04-.03-.07-.03-.1a1.6 1.6 0 0 1-.1-.24l.03.03c0-.03 0-.03-.03-.07.03-.2.1-.4.17-.62l.2-.37c.07-.1.17-.2.27-.3.03-.03.1-.06.13-.1.92-1.3 1.76-2.7 2.78-4 .85-1.1 1.12-2.15.7-3.54-.57-1.93-.5-1.96 1.43-2.67.34-.15 4.43-1.7 6.1-2.2.26-.12.94-.4 1.04-.42l.27-.1.77-.3c2.13-.82 4.27-1.6 6.4-2.38.06-.03.17-.03.23-.03 2-1 4.13-1.66 6.23-2.37.27-.1.5-.2.85-.27.34-.27 1.35-.5 1.7-.78 1.68-.54 3.03-1.32 4.56-1.65 2.23-1.7 4.06-1 5.58 1.1.2.15.4.28.6.45.3.27.42.58.75.92 1.4 1.6 2.92 3.14 4.37 4.7zm-47.6 1.87a4.17 4.17 0 0 1-.53.14c-.5.06-.78-.17-1.12-.78-3.08-5.56-6.2-11.08-9.34-16.6-.4-.7-.54-1.08.47-1.35l59.97-17.56c.2-.08.44-.1.85-.2v.05h.03l-.88 10.43-.6 7.54c-.08.92-.35 1.5-1.33 1.83a8748.02 8748.02 0 0 0-47.5 16.48zm-98.43 76c5.6.48 11.16 1.6 16.75 2.38.74.1 1.5.14 2.2.5 1.7.9 2.53 2.45 3.18 4.1.98 2.55 1.28 5.25 1.45 7.96.14 2.13-.3 3.93-2.03 5.35-1.28 1.06-2.33 2.28-2.8 3.93 2.16 0 4.02.38 5.44 2.2.9 1.15 2.04 2.1 3.16 3.08 2.6 2.35 6.43 1.8 8.26-1.14.8-1.32 1.6-2.67 2.47-3.96 1.2-1.8 2.4-3.72 4.56-4.5 1.32-.44.74-1.08.3-1.62-.88-1.12-2.5-1.15-3.96-.27-2.23 1.36-3.76 3.36-5.38 5.3-.48.56-.95 1.14-1.6 1.6-.8.6-1.5.62-2.23-.12-.82-.82-1.63-1.66-2.5-2.37-.75-.6-.9-1.14-.45-2.02.95-1.83 1.35-3.8 1.15-5.82-.4-4.4-1.1-8.73-4.23-12.22-.34-.37-.34-.58.14-.9 3.46-2.42 5.3-5.73 5.76-9.9.1-1.04-.1-1.9-.95-2.2-.83-.27-1.37.58-1.75 1.26-.84 1.45-1.93 2.77-2.9 4.13-1.53 2.06-3.66 2.5-5.9 2.16-8.05-1.26-16.1-2.07-24.23-2.55-.4-.03-.8-.13-1.15.14-2.57 1.88-5.17 3.7-6.8 6.6.1.02.2.1.27.1l.78-.15c4.2-1.05 8.56-1.4 13-1zm75.22 3.16a88.12 88.12 0 0 0-5.85 3.13c-.52.3-1 .58-1.6.68-3.35.62-6.74 1.06-10.2 1.06-1.98 0-3.6-.85-5.16-1.83-.95-.6-1.9-1.5-2.07-2.84.5-.18.98.02 1.46.1 1.8.23 3.55.87 5.38.77 4.4-.27 8.53-1.6 12.66-3 1.36-.5 2.68-1 4-1.47.6-.2.78-.4.23-.98-.65-.7-1.36-.58-2.07-.47-8.83 1.35-17.6.94-26.36-.65-2.54-.47-5.25-.64-6.23-3.8-.27-.83-.54-1.68-.7-2.56-.18-.98-.75-1.7-1.33-2.4-.33-.44-.77-.65-1.28-.54-.54.13-.5.7-.5 1.1.03 1.43.1 2.86.27 4.28.16 1.55.66 3.08 1.58 4.33 1.76 2.48 4.2 4 7.17 4.7 2.2.52 2.2.55 2.4 2.82.1.98.24 1.86 1.15 2.4 1.6.95 3.2 1.93 5.12 2.07 1.18.1 2.4.16 3.4.94 1.33 1 2.92 1.25 4.5 1.38 1.2.1 2.42.14 3.6.34.95.17 1.6-.13 2.27-.7 3.34-2.78 6.66-5.6 9.8-8.7-.37-.4-.9-.55-1.66-.18zm-27.78 27.33c-.27-.48-.6-.58-1.08-.3-2.68 1.48-5.7 1.55-8.63 1.92-1.25.17-2.8-.2-3.72.7-2.24 2.2-4.13 1.3-6.1-.26-.1-.08-.2-.18-.34-.2-2.9-1.57-5.82-2.14-8.8-.08-1.12.78-2.44 1.25-3.76.95-1.05-.27-1.86-.2-2.67.54-.4.38-.95.7-1.42 1-1.32.87-1.32 1-.1 2 .26.23.6.33.94.43 2.8.84 5.44.24 7.9-1.12 2.58-1.37 4.98-1.3 7.32.45 2.13 1.6 4.4 1.63 6.77.65 2.97-1.26 5.98-2.47 9.2-3.02.47-.06.94-.23 1.38.14 1.35 1.25 2.64.37 3.93-.14.5-.2.58-.6.55-1.1-.1-1.1-.92-1.7-1.4-2.55zm-12.28 8.83c-3.35.1-6.77.64-9.92 1.73-2.6.87-5.52 1.48-6.87 4.5-.8 1.75-.7 3.6-1.23 5.37.24 1.4.24 2.77 1.05 3.96.24.34.34.88.92.84.6-.03.8-.54.98-.94.6-1.3.74-2.74 1.15-4.1.64-2.2 1.66-3.96 3.96-4.94 2.4-1.02 4.84-1.97 7.27-2.92.48-.17.95-.27 1.42-.17 3.02.45 6.16.32 8.84 2.08.23.16.54.23.88.16 1-.23 1.1-.57.5-1.38-2.2-3.05-5.4-4.3-8.96-4.2zm-23.56-30.73c2.03-.2 4.06-.47 6.06-.74.54-.08 1.4.12 1.52-.52.14-.68-.64-1.08-1.1-1.52-.25-.24-.66-.27-1-.37-2.03-.76-4.1-.6-6.15-.22-4.17.78-8.36 1.02-12.53 0-1.1-.27-2.3-.27-3.65-.44-1.56.38-3.32.75-4.98 1.5-1.16.53-1.22 1.18-.2 1.95.6.47 1.2.7 1.95.43 2.6-.94 4.84-.44 6.98 1.36 2.13 1.78 4.63 2.15 7.37 1.2 1.5-.5 2.78-1.35 4.13-2.1.5-.26 1.02-.5 1.6-.57zm-36.2 3.8c.1-1.9-.28-3.53-1.8-4.5-1.12-.72-1.56-1.7-1.96-2.85-.55-1.5-.68-3.15-1.9-4.33-.34-.34-.57-1.1-1.18-.85-.7.27-1.4.68-1.6 1.63-.67 3.14.78 6.16 3.93 7.78 1.43.75 2.52 1.8 3.2 3.26.23.5.26 1.5 1 1.32.75-.17.14-1.08.3-1.46z"/><path fill="#2E2E2E" d="M14.86 153.53c0-.07-.04-.14-.07-.2-.08.16-.18.37-.25.57-.1.34-.13.7 0 1.22.24-.68.4-1.15.3-1.6"/><path fill="#F6E5CC" d="M198.38 223.44c1.18-1.6 1.96-3.45 2.7-5.28.1-.27.2-.5.34-.77.48-1.1.95-2.2 1.02-3.43v-.07c.03-.37.14-.88-.24-1.02a6.58 6.58 0 0 0-1.96-.3c-.27 0-.54.03-.78.07-.13.03-.27.03-.37.07-.1.03-.15.06-.2.1l-.08.06c-.2.3.27.85.13 1.26-.1.37-.03.8-.13 1.18-.14.4-.27.78-.44 1.2a24.25 24.25 0 0 1-.78 1.64c-1.08 1.97-2.5 3.7-4.13 5.32-.64-1.4-.47-2.58-.03-3.7.03-.13.1-.23.17-.36.35-.75.8-1.46 1.2-2.17.13-.24.33-.44.47-.68.03-.03.03-.1.06-.13a.56.56 0 0 0 .04-.34c-.04-.8-1.05-2.17-2.1-3.1-.3-.28-.64-.56-.95-.72-.3-.17-.6-.3-.84-.34-.44-.07-.85-.1-1.3-.14-1.18-.1-2.4-.2-3.5-.54l-.3-.1a59.12 59.12 0 0 1-5.36-1.96 38.55 38.55 0 0 1-1.73-.78 42.48 42.48 0 0 1-6.6-3.76c-1.56-1.08-3.12-2.13-4.64-3.2-1.02-.72-2.07-1.44-3.08-2.18a87.6 87.6 0 0 1-4.5-3.42c-.1-.07-.2-.17-.3-.23-.2-.17-.45-.3-.65-.48-.24-.17-.44-.3-.64-.47-.32-.24-.62-.5-.86-.85a7.77 7.77 0 0 0-.4-.54l-.4-.55c-2-2.5-4.34-4.8-5.3-8.1-1.14 2.62-2.43 4.88-3.92 6.8-.64.83-1.28 1.6-1.96 2.3-2.98 3.1-6.46 5.1-10.3 6.17-2.66.78-5.47 1.12-8.4 1.12.8-.68 1.58-1.32 2.32-1.93.24-.2.48-.4.7-.63 2.35-2.1 5.05-3.83 7.02-6.33l.3-.2a.66.66 0 0 0 .27-.48v-.17l-.13.03c-.3.1-.58.2-.78.47-1.96 1.15-4 2.2-6.03 3.28-.3.17-.57.3-.87.48-.5.27-1.02.54-1.56.78-.88.44-1.73.8-2.6 1.18-4.24 1.76-8.67 2.88-13.27 3.38-2.54.3-5.08.55-7.62.78-2.53.24-5.06.44-7.6.6-1.7.1-3.4.22-5.08.28-.23 0-.5.04-.74.04l-1.5.03c-.5 0-1 .03-1.48.07-.5.03-.98.1-1.5.2-.23.03-.46.1-.73.17-4.2 1.08-8.26 2.5-12.1 4.43a55.73 55.73 0 0 0-3.07 1.73 24.92 24.92 0 0 0-1.96 1.32c-.34.24-.67.47-.95.7-.82.65-1.43 1.26-1.8 2-.07.14-.13.28-.17.4-.03.08-.03.15-.07.22l-.1.44c-.03.24-.03.48-.03.72.03.74.24 1.65.68 2.7 1.73 4.23 3.9 8.23 6.47 12.05a7.6 7.6 0 0 0 1.25 1.46l1.86 1.18c1.1.48 2.3.7 3.56.7 1.72 0 2.64.5 3.24 2.1 1.76 4.5 4.88 7.87 8.74 10.44.27.17.54.38.84.54l.85.5c1.2.7 2.3 1.43 3.43 2.2l1.08.8a44.08 44.08 0 0 1 4.07 3.48c.3.3.64.6.95.94a100.32 100.32 0 0 1 3.65 3.9c.3.33.58.67.88.98.58.67 1.2 1.32 1.76 2 1.43 1.62 2.8 3.34 3.9 5.17.17.24.3.5.44.75.5.87.95 1.8 1.3 2.74.67 1.72 1.88 2.9 3.27 3.92.72.54 1.5 1.02 2.28 1.5.6.33 1.18.67 1.83 1 .9.45 1.7 1 2.58 1.43.64.33 1.32.63 2.03.83l.42.1c.1.04.2.04.3.07 2.7.37 5.45.58 8.22.24.82-.1 1.66-.2 2.47-.34.8-.1 1.54-.24 2.32-.37.1 0 .16-.03.27-.03a56.12 56.12 0 0 0 2.3-.44 64.72 64.72 0 0 0 5.74-1.46 37.75 37.75 0 0 0 1.83-.58c.17-.06.37-.13.54-.16a35.1 35.1 0 0 0 1.73-.65c.2-.06.4-.16.6-.22l.76-.3.9-.42a52.5 52.5 0 0 0 2.4-1.18 66.2 66.2 0 0 0 2.95-1.73c.5-.33.98-.67 1.45-1 1.3-.96 2.47-1.97 3.56-3.13.5-.54.98-1.1 1.45-1.7 2.28-2.86 4.1-6 5.73-9.22.3-.58.58-1.2.88-1.76.45-.88.86-1.8 1.26-2.7l.3-.76c.55-1.5.82-3.08 1.2-4.8-.5.2-1 .37-1.46.57-.7.3-1.4.6-2.07.85a8.62 8.62 0 0 1-2.1.47 3.47 3.47 0 0 1-.57.04c-.78 0-1.4-.23-1.66-1.1-.27-.8.14-1.1.64-1.3.14-.06.28-.1.44-.13a2.32 2.32 0 0 0 .28-.1l.47-.2.5-.2c2.3-.9 4.6-1.73 6.6-3.16 1.26-.87 2.44-1.8 3.53-2.86.44-.4.88-.8 1.28-1.25 1.86-1.98 3.42-4.18 4.47-6.78a1.7 1.7 0 0 0 .1-.24c.25-.54.6-1 .82-1.56.24-.54.6-.8 1.22-.8.54 0 1.08-.14 1.62-.18h.88c3.08 0 5-2.06 6.74-4.4zM78.1 228.08c-.74.17-.77-.8-1-1.32-.68-1.5-1.73-2.5-3.2-3.25-3.17-1.6-4.63-4.63-3.9-7.77.2-.95.87-1.32 1.58-1.63.64-.23.84.5 1.18.85 1.22 1.18 1.35 2.84 1.9 4.33.4 1.15.84 2.13 1.96 2.84 1.52.98 1.9 2.6 1.8 4.5-.18.38.43 1.3-.3 1.46zm11.04-12.76c-.07 0-.14-.07-.27-.1 1.62-2.88 4.23-4.7 6.8-6.6.37-.27.78-.14 1.15-.14 8.12.5 16.18 1.33 24.23 2.54 2.24.34 4.37-.1 5.9-2.16 1-1.36 2.05-2.68 2.9-4.13.4-.68.95-1.56 1.76-1.25.9.3 1.1 1.15.96 2.2-.48 4.16-2.3 7.48-5.76 9.88-.47.34-.47.54-.13.9 3.1 3.5 3.82 7.83 4.23 12.23.17 2.02-.24 3.98-1.15 5.8-.44.9-.3 1.43.44 2.04.87.74 1.68 1.56 2.5 2.37.74.75 1.45.72 2.23.14.6-.44 1.08-1.05 1.6-1.62 1.6-1.93 3.13-3.96 5.37-5.28 1.45-.88 3.08-.85 3.96.27.44.55 1 1.2-.3 1.64-2.2.74-3.36 2.7-4.58 4.5-.88 1.28-1.65 2.64-2.47 3.96-1.8 2.94-5.64 3.48-8.24 1.15-1.1-1-2.27-1.93-3.15-3.08-1.38-1.83-3.27-2.2-5.44-2.2.5-1.66 1.56-2.88 2.8-3.93 1.74-1.4 2.18-3.2 2.04-5.35-.17-2.7-.5-5.42-1.46-7.96-.64-1.66-1.45-3.2-3.18-4.1-.7-.37-1.45-.4-2.2-.5-5.58-.78-11.1-1.9-16.75-2.37-4.42-.37-8.75-.03-13.08.95-.17.13-.4.17-.68.2zm19.76 10.2c-2.7.9-5.2.53-7.37-1.23-2.14-1.8-4.4-2.3-6.98-1.36-.74.27-1.35.03-1.96-.44-1.02-.82-.96-1.46.2-1.97 1.65-.74 3.45-1.1 4.97-1.5 1.4.18 2.54.18 3.65.45 4.2 1 8.36.78 12.53 0 2.06-.37 4.12-.57 6.16.2.34.14.75.18 1 .38.46.44 1.24.84 1.1 1.52-.13.64-.98.44-1.52.5-2.03.28-4.03.55-6.06.75-.6.07-1.08.3-1.6.58-1.34.75-2.63 1.6-4.12 2.1zm37.77 33.62c-.34.07-.64 0-.88-.16-2.72-1.8-5.83-1.63-8.84-2.07-.5-.06-.98 0-1.42.18-2.44.95-4.88 1.86-7.28 2.9-2.3 1-3.35 2.75-3.96 4.95-.4 1.36-.54 2.78-1.15 4.1-.2.44-.37.9-.98.94-.58.04-.68-.5-.92-.84-.84-1.2-.8-2.6-1.04-3.96.55-1.76.45-3.62 1.22-5.38 1.36-3.02 4.27-3.63 6.87-4.5 3.17-1.1 6.56-1.64 9.9-1.74 3.56-.1 6.78 1.15 9 4.2.6.8.48 1.15-.53 1.38zm4.6-10.8c-1.28.55-2.57 1.4-3.92.14-.4-.37-.88-.23-1.4-.13-3.2.54-6.22 1.76-9.2 3-2.33 1-4.63.96-6.76-.63-2.35-1.76-4.75-1.86-7.32-.44-2.47 1.35-5.1 1.96-7.92 1.1-.34-.1-.68-.2-.95-.42-1.2-1.02-1.2-1.15.1-2 .48-.3 1-.6 1.43-.98.8-.75 1.6-.78 2.68-.54 1.33.3 2.65-.17 3.76-.95 2.98-2.08 5.9-1.5 8.8.06l.34.2c1.96 1.6 3.82 2.47 6.1.27.9-.88 2.46-.54 3.7-.7 2.96-.42 5.97-.45 8.64-1.94.48-.28.85-.18 1.1.3.46.84 1.27 1.48 1.34 2.53.07.5 0 .92-.5 1.12zm18.85-22.16c-.7.58-1.35.88-2.27.7-1.18-.2-2.36-.22-3.58-.32-1.6-.14-3.18-.4-4.5-1.4-1.02-.74-2.24-.84-3.42-.94-1.96-.13-3.52-1.15-5.1-2.06-.93-.54-1.1-1.42-1.16-2.4-.22-2.27-.25-2.3-2.42-2.8-2.97-.73-5.4-2.25-7.17-4.72-.9-1.25-1.4-2.77-1.58-4.33-.17-1.4-.24-2.83-.27-4.25 0-.4-.03-1 .5-1.12.5-.14.95.1 1.3.54.57.74 1.14 1.46 1.3 2.4.18.88.45 1.73.72 2.57.98 3.15 3.73 3.32 6.23 3.8 8.73 1.6 17.53 2 26.36.64.75-.1 1.46-.24 2.07.47.5.58.37.75-.24.98-1.36.48-2.68.98-4 1.46-4.13 1.4-8.26 2.73-12.66 3-1.83.1-3.6-.54-5.38-.78-.47-.07-.9-.24-1.46-.1.2 1.35 1.12 2.23 2.07 2.84 1.55.98 3.15 1.83 5.18 1.83 3.45 0 6.8-.42 10.18-1.06.58-.1 1.08-.37 1.6-.68 1.9-1.15 3.85-2.16 5.85-3.14.78-.38 1.28-.27 1.7.1-3.16 3.18-6.47 6.02-9.86 8.76zM62.54 42.02c-2.64 1.22-4.53 3.55-7.04 4.94-.68.37-.34.75 0 1.15l7.62 8.74c.2.24.33.54.44.7.4-.16.54-.2.64-.26 1.22-.74 2.4-1.5 3.62-2.23.4-.24.37-.54.24-.9-1.43-3.9-2.58-7.93-4.23-11.76-.38-.72-.65-.68-1.3-.38zM51.8 43.88c.28.34.55.6 1.03.34 2.3-1.25 4.8-2.06 6.9-3.7 5.2-4.12 10.3-8.42 15.16-12.98.77-.7 1.3-1.43 1.14-2.27 0-.85.24-1.52-.44-1.9-.6-.33-.94.27-1.38.5-.5.25-1 .62-1.5.9-4.87 2.53-9.5 5.47-14.65 7.5-3.55 1.4-7.03 2.88-10.66 4.17-.4.13-1.24.13-.56.98 1.62 2.13 3.3 4.3 4.97 6.46zm.45 20c-4.1-2.7-8.15-5.1-11.84-8.22-.33 1.4-.6 2.5-.84 3.62-.1.47-.34.7-.78.78-.98.17-1.38-.7-1.9-1.25-.47-.43-.9-1.15-.63-1.8.84-1.82 1.35-3.8 2.06-5.67.75-1.86.82-1.93 2.4-.7.15.1.28.2.42.32 3.55 3.7 7.55 6.77 12.18 9.1 2.34 1.2 4.2 1.46 6.23-.26.13-.1.3-.18.44-.28.3-.17.44-.44.27-.78-.44-.92-.58-2-1.4-2.7-2.46-2.1-4.76-4.38-7.06-6.64-3.28-3.25-6.67-6.43-9.1-10.4-.75-1.18-1.56-2.26-2.54-3.2-1.5-1.43-3.76-1.16-4.7.67-1.9 3.52-4.4 6.63-6.37 10.12-2.13 3.8-4.84 7.3-6.77 11.3-.37.77-.37 1.45-.03 2.26.95 2.3 2.16 4.47 2.7 6.94.14.54.24 1-.47 1.28-.64.24-.88-.13-1.15-.57-1.4-2.33-2.84-4.6-4.13-7-4.33-7.88-7.95-16.18-13.26-23.52-.27-.34-.3-1.22-1.05-.84-.53.27-1.1.7-.94 1.6.54 2.86.85 5.8 1.6 8.62 3.2 12.15 7.23 24.02 11.13 35.97.32 1.05.66.9 1.44.47A13705.1 13705.1 0 0 1 48.3 66.12c1.28-.68 2.53-1.43 3.95-2.24zm-25.07 42.68c-2.44 3.35-3.42 7.27-4.2 11.23-.54.94-.47 1.55.78 1.68.78.1 1.55.34 2.33.5a522.45 522.45 0 0 0 18.74 4.7c.5.28 1.02.45 1.6.32.26-.1.23-.3.23-.54 0-.1 0-.2.03-.27l3.86-12.9c.2-.62.27-1.33.85-1.77 1.83-1.35 2.54-3.18 2.68-5.38.03-.84.34-1.66.4-2.5.1-1.1.5-1.76 1.53-2.24 4.65-2.15 8.67-5.13 12.06-9 .8-.9 1.6-1.78 2.06-2.9 2.4-5.5 5.58-10.56 8.8-15.63 3.55-5.62 7.55-10.87 12.42-15.4 1.25-1.15 1.86-2.54 2.27-4.1.34-1.32-.3-2.43-1.1-3.08-.9-.68-2.1-1-3.33-.1-5.1 3.85-10.96 6.3-16.75 8.93-2.54 1.18-5.58 2.2-6.9 5.2-.07.14-.27.2-.44.3-1.86 1.2-3.93 1.84-6.06 2.3-.6.15-1.22-.1-1.86.32a8187.26 8187.26 0 0 1-36.4 22.64c-.72.43-.86.77-.5 1.55 2.25 4.67 4.28 9.47 7.02 13.9.4.85.44 1.46-.1 2.2zm19.45 17.93a.47.47 0 0 0-.06.2c0-.1.03-.17.06-.2zm160.78-15.3c6.78-2.1 13.58-4.13 20.42-6.13 1.08-.3 1.25-.7.85-1.73-2.95-7.75-5.92-15.5-9.44-23.04-.48-.98-.6-1.93-.17-2.95 1.62-3.58 2.2-7.3 1.72-11.23-.23-1.96.14-3.96-.1-5.96-.6-5.38-2.3-10.45-3.55-15.7-1.4-5.9-4.44-11.1-6.8-16.58-1.63-3.76-4.13-7.14-6.16-10.73-1.2-2.1-2.58-4.06-3.7-6.16-1.04-2-2.3-3.73-4.4-4.68-.53-.24-1.28-.74-1.72-.2-.54.7-1.08 1.6-.67 2.57.74 1.78 1.55 3.58 2.3 5.37 2.1 4.98 4.6 9.8 5.9 15.13.5 2.06 1.03 4.13 1.17 6.26.07.78-.07 1.66-.8 1.93-.76.26-.93-.62-1.33-1.06-1.52-1.66-3.52-3.32-5.9-2.34-.67.3-1.48.34-2.22.2-.5-.1-1.15-.23-1.3-.8-.16-.62.42-.92.86-1.22.4-.28.88-.48 1.2-.78.52-.48.9-1.12.35-1.76-1.27-1.6-2.4-3.4-3.98-4.64-3.28-2.57-6.6-5.1-10.1-7.34-.5-.3-1-.65-1.5-.95-6.23-3.75-12.66-7.16-19.2-10.38-.88-.44-1.8-.78-2.8-.7-.68.06-1.4.02-1.7.77-.34.77-.17 1.5.34 2.12.7.8 1.42 1.66 2.44 2.23 2.8 1.6 5.82 2.9 8.4 4.9 5.07 3.9 10.1 7.83 15.02 11.92 1.55 1.3 2.97 2.7 4.4 4.2l2.53 2.64c.27.28.55.65.6 1.02 0 .04.05.1.05.14v.3c-.04.24-.17.5-.44.78-.82.8-1.63.38-2.4-.06-.34-.2-.58-.55-.85-.85l-.4-.4c-.67-.68-1.28-1.36-2-2-.27-.24-.57-.5-.88-.7-3.78-2.86-7.58-5.67-11.37-8.5s-7.58-5.7-11.33-8.54c-2.13-1.63-4.4-2.98-6.8-4.14-.85-.4-1.36-.3-1.93.34-.72.85-.83 1.73-.35 2.68.74 1.52 1.83 2.8 3.1 3.92 1.7 1.46 3.46 2.85 4.92 4.5 7.1 7.9 14.35 15.64 21.22 23.73.46.57.77 1.18.87 1.9.2 1.3-.48 1.92-1.76 1.48a7.14 7.14 0 0 1-.7-.36c-8.5-4.8-17.03-9.6-24.98-15.3-2.33-1.66-4.84-2.98-7.44-4.13-.82-.36-1.7-.8-2.37.22-.47.74-.13 2.2.62 2.77 3.04 2.3 5.85 4.9 8.73 7.4 6.46 5.62 13.26 10.9 18.07 18.17.7 1.05 3.25 1.5 4.36.78 2.88-1.82 5.96-2.9 9.4-2.8h.1c.25 0 .5-.04.73-.04.24 0 .44.04.6.18.12.07.18.17.22.3.37.82-.5 1.02-.98 1.32l-9.18 5.96c-.77.5-1.45.64-2.33.4-1.46-.37-2.84-.94-4.4-.9-6.36.06-12.66.8-18.95 1.82-1.4.24-2.8.37-4.1 1.12-.8.47-1 1.25-.9 2.03.06.64.23 1.35 1.18 1.52 3.92.78 7.8 1.6 11.74 2.4 1.4.34 2.8.75 4.26.85 4.47 2.8 8.9 5.72 13.17 8.83 2.64 1.93 5.4 3.32 8.63 3.86 1.48.23 2.94.67 4.4 1.04 1.92.5 4.23.5 5.68 1.62 1.46 1.12 2.13 3.32 3.05 5.08.53 1.12 1.2 1.66 2.46 1.35 1.05-.28 1.45.26 1.8 1.2 1.58 4.55 3.24 9.05 4.8 13.55.47.98.77 1.25 1.76.94z"/></svg>