<?xml version="1.0" encoding="UTF-8"?>
<!-- Generator: Adobe Illustrator 18.1.0, SVG Export Plug-In . SVG Version: 6.00 Build 0)  -->
<svg version="1.1" id="Layer_1" xmlns="http://www.w3.org/2000/svg" xmlns:xlink="http://www.w3.org/1999/xlink" x="0px" y="0px" viewBox="39.2 1 168 56.7" enable-background="new 39.2 1 168 56.7" xml:space="preserve">
<g>
	<g>
		<path fill="#0163A4" d="M119.6,34.5c0,2.2-0.2,4.1-0.6,5.7c-0.4,1.6-1.1,2.9-2,3.9c-1,1-2.2,1.8-3.8,2.3c-1.6,0.5-3.5,0.7-5.8,0.7    H96.1c-0.4,0-0.6-0.2-0.6-0.5V22.5c0-0.4,0.2-0.5,0.6-0.5h11.3c2.3,0,4.3,0.2,5.8,0.7c1.6,0.5,2.8,1.2,3.8,2.3c1,1,1.6,2.3,2,3.9    C119.4,30.5,119.6,32.3,119.6,34.5z M113.4,34.6c0-1.8-0.1-3.2-0.3-4.3c-0.2-1.1-0.6-2-1.1-2.6c-0.5-0.6-1.2-1.1-2.1-1.3    c-0.9-0.2-1.9-0.4-3.2-0.4h-5.2v17.3h5.2c1.2,0,2.3-0.1,3.2-0.4c0.9-0.2,1.6-0.7,2.1-1.3c0.5-0.6,0.9-1.5,1.1-2.6    C113.3,37.8,113.4,36.3,113.4,34.6z"/>
		<path fill="#0163A4" d="M133.3,32.6c-0.1,0.1-0.2,0.2-0.6,0.2c-1.1,0-2,0-2.9,0.1c-0.8,0.1-1.4,0.2-1.7,0.2v13.5    c0,0.3-0.2,0.5-0.6,0.5h-4.4c-0.1,0-0.2,0-0.4-0.1c-0.1-0.1-0.2-0.2-0.2-0.4V31.7c0-0.5,0.1-0.9,0.4-1.1c0.3-0.2,0.7-0.5,1.2-0.7    c0.6-0.2,1.2-0.3,2-0.4c0.8-0.1,1.6-0.2,2.3-0.3c0.5-0.1,1.1-0.1,1.7-0.2c0.6-0.1,1.2-0.1,1.8-0.1h0.3c0.2,0,0.3,0,0.4,0    c0.1,0,0.2,0.1,0.3,0.2c0,0,0.1,0.1,0.2,0.2c0.1,0.1,0.1,0.2,0.1,0.4v2.5C133.4,32.3,133.4,32.4,133.3,32.6z"/>
		<path fill="#0163A4" d="M150.2,46.1c-1.4,1-3.6,1.5-6.6,1.5c-1.4,0-2.7-0.1-3.7-0.3c-1.1-0.2-2-0.6-2.7-1.1    c-0.7-0.5-1.3-1.1-1.6-2c-0.4-0.8-0.6-1.9-0.6-3.1V30.3c0-0.5,0.2-0.8,0.7-0.8l4.1-0.6h0.2c0.4,0,0.6,0.2,0.6,0.6v11.9    c0,0.9,0.2,1.6,0.6,2.1c0.4,0.5,1.2,0.7,2.4,0.7c0.7,0,1.2-0.1,1.6-0.2c0.4-0.1,0.7-0.3,0.9-0.6c0.2-0.3,0.4-0.5,0.4-0.9    c0.1-0.3,0.1-0.7,0.1-1.1V30.3c0-0.5,0.2-0.7,0.7-0.8l4.1-0.6c0,0,0.1,0,0.2,0c0.4,0,0.6,0.2,0.6,0.6v11.7    C152.3,43.4,151.6,45.1,150.2,46.1z"/>
		<path fill="#0163A4" d="M173.3,38.2c0,1.2-0.1,2.4-0.3,3.5c-0.2,1.1-0.5,2.1-1.1,3c-0.5,0.9-1.3,1.6-2.4,2.1    c-1,0.5-2.4,0.8-4.1,0.8c-1,0-1.8-0.1-2.7-0.2c-0.8-0.1-1.6-0.3-2.2-0.4l0.4,2.1v3.7c0,0.5-0.2,0.7-0.7,0.8l-4.1,0.6h-0.2    c-0.4,0-0.6-0.2-0.6-0.6v-21c0-0.5,0.1-0.9,0.2-1.2c0.1-0.3,0.3-0.6,0.5-0.8c0.2-0.2,0.4-0.4,0.7-0.5c0.3-0.1,0.6-0.3,1-0.4    c1.2-0.3,2.4-0.6,3.7-0.8c1.3-0.2,2.6-0.3,3.8-0.3c1.8,0,3.2,0.2,4.3,0.7c1.1,0.5,1.9,1.1,2.4,2c0.6,0.8,0.9,1.8,1.1,3    C173.2,35.6,173.3,36.9,173.3,38.2z M167.6,38.1c0-1.3-0.1-2.3-0.2-3.1c-0.1-0.8-0.3-1.3-0.6-1.7c-0.3-0.4-0.6-0.6-1.1-0.7    c-0.4-0.1-1-0.2-1.6-0.2c-0.4,0-0.7,0-1.1,0.1c-0.4,0.1-0.7,0.1-1,0.2c-0.4,0.1-0.7,0.1-1,0.2v11c0.3,0.1,0.5,0.1,0.8,0.2    c0.3,0,0.6,0.1,0.9,0.1c0.3,0,0.7,0,1.1,0c0.7,0,1.3-0.1,1.8-0.2c0.5-0.1,0.9-0.4,1.2-0.9c0.3-0.4,0.5-1,0.6-1.8    S167.6,39.3,167.6,38.1z"/>
		<path fill="#0163A4" d="M192.1,45.1c-0.1,0.4-0.3,0.7-0.6,1c-0.3,0.3-0.6,0.4-1.1,0.6c-0.4,0.1-1,0.3-1.6,0.4    c-0.7,0.2-1.4,0.3-2.3,0.4c-0.8,0.1-1.8,0.1-2.9,0.1c-1.1,0-2.1-0.1-3.2-0.2c-1-0.1-2-0.4-2.8-0.8c-0.8-0.4-1.5-1-2-1.7    c-0.5-0.8-0.8-1.8-0.8-3.2c0-1.1,0.2-2,0.5-2.6c0.3-0.7,0.8-1.2,1.3-1.5c0.5-0.4,1.1-0.6,1.8-0.8c0.7-0.2,1.3-0.3,2-0.4l6.3-1    v-0.9c0-0.5,0-0.8-0.1-1.1c-0.1-0.3-0.3-0.5-0.7-0.7c-0.5-0.2-1.3-0.3-2.6-0.3c-0.6,0-1.2,0-1.8,0.1c-0.6,0.1-1.2,0.2-1.8,0.3    c-0.6,0.1-1.1,0.2-1.5,0.3c-0.4,0.1-0.8,0.2-1,0.2c-0.1,0-0.2,0.1-0.3,0.1c-0.2,0-0.4-0.1-0.4-0.3l-0.5-2.3c0,0,0-0.1,0-0.2    c0-0.2,0-0.3,0.1-0.3c0.1-0.1,0.2-0.1,0.3-0.2c0.2-0.1,0.5-0.2,1-0.3c0.5-0.1,1.1-0.3,1.8-0.4c0.7-0.1,1.5-0.3,2.4-0.4    c0.9-0.1,1.8-0.2,2.8-0.2c1.3,0,2.4,0.1,3.3,0.3c0.9,0.2,1.6,0.4,2.2,0.7c0.9,0.5,1.5,1.1,1.8,1.8c0.3,0.8,0.5,1.6,0.5,2.6v9.4    C192.3,44.2,192.2,44.7,192.1,45.1z M186.8,38.6l-3.9,0.6c-0.3,0-0.7,0.1-1,0.2c-0.3,0.1-0.6,0.2-0.8,0.4    c-0.2,0.2-0.4,0.4-0.6,0.7c-0.1,0.3-0.2,0.7-0.2,1.2c0,0.6,0.1,1.1,0.3,1.4c0.2,0.4,0.5,0.6,0.8,0.8c0.3,0.2,0.7,0.3,1.1,0.3    c0.4,0,0.8,0.1,1.2,0.1c0.7,0,1.3,0,1.8-0.1c0.5-0.1,0.9-0.2,1.2-0.2V38.6z"/>
		<path fill="#0163A4" d="M204.7,46.4c0,0.2,0,0.3-0.1,0.4c-0.1,0.1-0.2,0.1-0.2,0.1c-0.2,0.1-0.5,0.2-1.1,0.3    c-0.5,0.1-1.3,0.2-2.4,0.2c-1.9,0-3.2-0.4-4.1-1.3c-0.9-0.9-1.3-2-1.3-3.5V22.9c0-0.2,0-0.4,0.1-0.5c0.1-0.1,0.2-0.2,0.5-0.2    l4.2-0.6h0.2c0.4,0,0.6,0.2,0.6,0.6v20c0,0.6,0.2,1,0.5,1.2c0.3,0.2,0.6,0.3,1,0.3c0.3,0,0.5,0,0.7,0c0.2,0,0.4,0,0.5-0.1    c0,0,0,0,0.1,0c0,0,0,0,0.1,0c0.2,0,0.4,0.1,0.4,0.4l0.5,2.3V46.4z"/>
	</g>
</g>
<path fill="#0163A4" d="M75.4,13c-2.6-1.6-5-2.2-7.5-3.9c-1.5-1-3.6-3.5-5.4-5.6c-0.3,3.4-1.4,4.7-2.5,5.7c-2.5,2-4.1,2.5-6.2,3.7  c-1.8,0.9-11.6,6.8-11.6,19.4s10.6,21.9,22.4,21.9c11.8,0,22-8.6,22-21.5C86.6,19.8,77,13.9,75.4,13z M75.7,49.7  c-0.2,0.2-2.5,1.8-5.1,2.1c-2.6,0.2-6.2,0.4-8.4-1.6c-0.3-0.3-0.2-0.8,0-1c0.2-0.2,0.4-0.3,0.7-0.3c0.3,0,0.2,0,0.4,0.1  c1,0.8,2.4,1.4,5.6,1.4c3.1,0,5.3-0.9,6.3-1.6c0.4-0.3,0.6,0,0.7,0.1C76,49.1,76.1,49.3,75.7,49.7z M67.2,45.2  c0.5-0.5,1.4-1.3,2.2-1.6c0.8-0.3,1.3-0.3,2.1-0.3c0.8,0,1.6,0,2.2,0.4c0.6,0.4,0.9,1.3,1.1,1.8c0.2,0.5,0,0.8-0.4,1  c-0.3,0.2-0.4,0.1-0.7-0.5c-0.3-0.6-0.6-1.3-2.3-1.3c-1.7,0-2.2,0.6-3.1,1.3c-0.8,0.7-1.1,0.9-1.4,0.5  C66.5,46.1,66.6,45.7,67.2,45.2z M80.1,45.6c-1.8-0.1-5.3-5.6-7.5-5.7c-2.8-0.1-9,5.9-13.8,5.9c-2.9,0-3.8-0.4-4.8-1.1  c-1.5-1-2.2-2.6-2.2-4.7c0-3.8,3.6-7.4,8.1-7.4c5.7,0,9.7,5.7,12.6,5.6c2.4,0,7.1-4.8,9.4-4.8c2.4,0,3.1,2.5,3.1,4.1s-0.5,4.3-1.7,6  C82.2,45.1,81.5,45.7,80.1,45.6z"/>
</svg>