<?xml version="1.0" encoding="UTF-8"?>
<!-- Generator: Adobe Illustrator 14.0.0, SVG Export Plug-In . SVG Version: 6.00 Build 43363)  -->
<!DOCTYPE svg PUBLIC "-//W3C//DTD SVG 1.1//EN" "http://www.w3.org/Graphics/SVG/1.1/DTD/svg11.dtd">
<svg version="1.1" id="Layer_1" xmlns="http://www.w3.org/2000/svg" xmlns:xlink="http://www.w3.org/1999/xlink" x="0px" y="0px" width="174px" height="160px" viewBox="0 0 174 160" enable-background="new 0 0 174 160" xml:space="preserve">
<g>
	<path fill="none" d="M129.905,101.353c0-1.404-0.513-2.572-1.521-3.467c-1.146-1.015-2.793-1.529-4.898-1.529   c-1.704,0-3.165,0.332-4.341,0.984c-1.401,0.789-2.112,1.948-2.112,3.447c0,1.544,0.688,2.679,2.101,3.471   c1.153,0.639,2.618,0.962,4.353,0.962c1.039,0,2.02-0.147,2.914-0.44c1.521-0.492,2.697-1.196,3.506-2.087   C129.905,102.591,129.905,101.353,129.905,101.353z"/>
	<path fill="none" d="M75.287,117.783c-0.517,0-0.972,0.208-1.365,0.624c-0.393,0.415-0.59,0.899-0.59,1.451   c0,0.596,0.197,1.105,0.59,1.529c0.394,0.424,0.855,0.636,1.39,0.636c0.548,0,1.019-0.201,1.413-0.603   c0.393-0.4,0.589-0.894,0.589-1.478c0-0.611-0.196-1.125-0.593-1.539C76.327,117.99,75.849,117.783,75.287,117.783z"/>
	<path fill="none" d="M69.152,117.756c-0.533,0-0.991,0.205-1.374,0.615c-0.382,0.41-0.574,0.917-0.574,1.521   c0,0.604,0.192,1.109,0.576,1.519c0.384,0.408,0.862,0.612,1.434,0.612c0.562,0,1.033-0.204,1.414-0.612   c0.381-0.409,0.571-0.918,0.571-1.529c0-0.619-0.193-1.129-0.579-1.526C70.235,117.956,69.745,117.756,69.152,117.756z"/>
	<path fill="none" d="M82.136,97.353c-1.182-0.663-2.631-0.997-4.308-0.997c-1.692,0-3.146,0.334-4.319,0.997   c-1.405,0.786-2.118,1.943-2.118,3.435c0,1.515,0.693,2.638,2.118,3.438c1.174,0.659,2.626,0.995,4.319,0.995   c1.654,0,3.097-0.342,4.284-1.018c1.406-0.794,2.12-1.943,2.12-3.415C84.232,99.302,83.525,98.146,82.136,97.353z"/>
	<path fill="none" d="M136.649,117.783c-0.564,0-1.045,0.207-1.441,0.621s-0.595,0.928-0.595,1.539c0,0.584,0.198,1.077,0.592,1.478   c0.396,0.401,0.87,0.603,1.425,0.603c0.534,0,1.001-0.212,1.396-0.636c0.397-0.424,0.596-0.934,0.596-1.529   c0-0.556-0.2-1.04-0.598-1.454S137.168,117.783,136.649,117.783z"/>
	<path fill="none" d="M118.808,117.77c-0.507,0-0.937,0.158-1.289,0.475c-0.352,0.314-0.567,0.741-0.646,1.278h3.962   c-0.126-0.581-0.36-1.018-0.698-1.312C119.796,117.917,119.354,117.77,118.808,117.77z"/>
	<path fill="none" d="M81.2,117.77c-0.507,0-0.937,0.158-1.288,0.475c-0.353,0.314-0.568,0.741-0.647,1.278h3.962   c-0.127-0.581-0.359-1.018-0.699-1.312C82.188,117.917,81.746,117.77,81.2,117.77z"/>
	<path fill="none" d="M27.387,117.783c-0.549,0-1.016,0.21-1.401,0.628c-0.385,0.42-0.578,0.93-0.578,1.532   c0,0.559,0.197,1.045,0.592,1.459c0.395,0.414,0.85,0.621,1.363,0.621c0.562,0,1.039-0.208,1.434-0.624   c0.395-0.415,0.592-0.929,0.592-1.541c0-0.581-0.196-1.072-0.59-1.473C28.407,117.984,27.936,117.783,27.387,117.783z"/>
	<path fill="none" d="M99.11,117.756c-0.533,0-0.991,0.205-1.374,0.615s-0.573,0.917-0.573,1.521c0,0.604,0.191,1.109,0.575,1.519   c0.385,0.408,0.862,0.612,1.434,0.612c0.562,0,1.034-0.204,1.414-0.612c0.382-0.409,0.572-0.918,0.572-1.529   c0-0.619-0.193-1.129-0.579-1.526C100.193,117.956,99.704,117.756,99.11,117.756z"/>
	<path fill="none" d="M33.276,117.77c-0.507,0-0.937,0.158-1.289,0.475c-0.352,0.314-0.567,0.741-0.646,1.278h3.962   c-0.127-0.581-0.36-1.018-0.699-1.312C34.264,117.917,33.821,117.77,33.276,117.77z"/>
	<path fill="none" d="M148.023,117.77c-0.507,0-0.937,0.158-1.289,0.475c-0.352,0.314-0.567,0.741-0.646,1.278h3.962   c-0.126-0.581-0.36-1.018-0.699-1.312S148.568,117.77,148.023,117.77z"/>
	<path fill="none" d="M60.482,117.77c-0.507,0-0.937,0.158-1.289,0.475c-0.353,0.314-0.568,0.741-0.647,1.278h3.962   c-0.127-0.581-0.359-1.018-0.699-1.312C61.47,117.917,61.028,117.77,60.482,117.77z"/>
	<path fill="none" d="M45.192,117.783c-0.564,0-1.044,0.207-1.44,0.621c-0.397,0.414-0.595,0.928-0.595,1.539   c0,0.584,0.198,1.077,0.592,1.478c0.395,0.401,0.87,0.603,1.424,0.603c0.535,0,1-0.212,1.397-0.636   c0.396-0.424,0.595-0.934,0.595-1.529c0-0.556-0.199-1.04-0.598-1.454C46.169,117.99,45.71,117.783,45.192,117.783z"/>
	<path fill="none" d="M64.268,97.353c-1.181-0.663-2.63-0.997-4.308-0.997c-1.692,0-3.146,0.334-4.319,0.997   c-1.405,0.786-2.118,1.943-2.118,3.435c0,1.515,0.693,2.638,2.118,3.438h0c1.173,0.659,2.626,0.995,4.319,0.995   c1.655,0,3.097-0.342,4.285-1.018c1.406-0.794,2.119-1.943,2.119-3.415C66.364,99.302,65.658,98.146,64.268,97.353z"/>
	<path fill="#7AC143" d="M70.668,49.111c-1.139,3.808-0.208,8.104,2.798,11.11l0.97,0.968l4.977,4.973l5.27,5.262l4.972-4.975   l-5.265-5.26l-4.977-4.972l-0.973-0.972c-1.609-1.609-1.612-4.235,0.008-5.855c1.615-1.616,4.233-1.616,5.849-0.002l0.386,0.387   l4.977-4.973l-0.388-0.388c-2.836-2.836-6.817-3.829-10.456-2.976c-0.523-3.204-3.302-5.649-6.654-5.651   c-3.724,0-6.742,3.02-6.743,6.744C65.418,45.745,67.663,48.432,70.668,49.111z"/>
	<path fill="#FBB040" d="M80.003,55.628l4.977,4.974l5.264-5.259l4.978-4.974l0.97-0.97c1.622-1.621,4.232-1.617,5.843-0.008   c1.614,1.613,1.614,4.233-0.002,5.848l-0.384,0.385l4.972,4.977l0.388-0.389c2.976-2.978,3.922-7.215,2.837-10.995   c3.304-0.435,5.854-3.263,5.854-6.686c0-3.725-3.02-6.744-6.743-6.744c-3.409,0-6.227,2.529-6.681,5.813   c-3.793-1.114-8.062-0.171-11.056,2.823l-0.972,0.968l-4.978,4.972L80.003,55.628z"/>
	<path fill="#EF4135" d="M115.762,79.39c0-3.402-2.52-6.217-5.796-6.677c0.89-3.66-0.099-7.684-2.959-10.545l-0.977-0.978   l-4.972-4.975l-5.251-5.256l-4.977,4.972l5.256,5.259l4.972,4.977l0.973,0.974c1.621,1.622,1.617,4.233,0.009,5.843   c-1.613,1.614-4.232,1.614-5.85-0.001l-0.383-0.382l-4.972,4.977l0.383,0.38c3.028,3.029,7.363,3.955,11.19,2.777   c0.623,3.081,3.344,5.398,6.608,5.398C112.741,86.132,115.762,83.115,115.762,79.39z"/>
	<path fill="#5091CD" d="M72.098,86.132c3.203-0.001,5.887-2.233,6.573-5.23c3.678,0.912,7.729-0.064,10.601-2.938l0.976-0.975   l4.974-4.977l5.248-5.256l-4.972-4.975l-5.254,5.259l-4.974,4.976l-0.973,0.975c-1.61,1.61-4.234,1.614-5.855-0.007   c-1.615-1.617-1.617-4.233-0.001-5.848l0.384-0.382l-4.978-4.972l-0.38,0.379c-2.892,2.891-3.867,6.973-2.926,10.667   c-2.973,0.702-5.187,3.375-5.187,6.563C65.354,83.113,68.373,86.132,72.098,86.132z"/>
	<path fill="#231F20" d="M49.241,104.818c0.836-0.96,1.26-2.215,1.26-3.73V89.936h-2.02v11.381c0,1.007-0.306,1.86-0.908,2.534   c-0.735,0.822-1.833,1.239-3.264,1.239l-1.282-0.095l-3.863-0.634l-0.642,1.452l3.925,0.606c0.732,0.112,1.415,0.169,2.028,0.169   C46.6,106.59,48.203,105.993,49.241,104.818z"/>
	<path fill="#231F20" d="M68.352,100.794c0-1.975-0.982-3.514-2.92-4.573c-1.541-0.841-3.381-1.266-5.472-1.266   c-2.076,0-3.917,0.425-5.47,1.265h0c-1.96,1.067-2.955,2.606-2.955,4.574c0,1.969,0.994,3.505,2.955,4.563   c1.553,0.84,3.393,1.265,5.47,1.265c2.084,0,3.921-0.421,5.459-1.254C67.365,104.309,68.352,102.771,68.352,100.794z    M64.245,104.203c-1.188,0.676-2.629,1.018-4.285,1.018c-1.693,0-3.146-0.336-4.319-0.995h0c-1.425-0.8-2.118-1.923-2.118-3.438   c0-1.492,0.712-2.649,2.118-3.435c1.174-0.663,2.627-0.997,4.319-0.997c1.678,0,3.127,0.334,4.308,0.997   c1.39,0.793,2.096,1.949,2.096,3.435C66.364,102.26,65.651,103.409,64.245,104.203z"/>
	<path fill="#231F20" d="M83.3,96.221c-1.54-0.841-3.381-1.266-5.472-1.266c-2.075,0-3.917,0.425-5.47,1.265h-0.002   c-1.96,1.067-2.954,2.606-2.954,4.574c0,1.969,0.994,3.505,2.956,4.563c1.553,0.84,3.393,1.265,5.47,1.265   c2.083,0,3.92-0.421,5.459-1.254c1.946-1.06,2.933-2.598,2.933-4.574C86.22,98.819,85.237,97.28,83.3,96.221z M82.112,104.203   c-1.188,0.676-2.63,1.018-4.284,1.018c-1.693,0-3.146-0.336-4.319-0.995c-1.425-0.8-2.118-1.923-2.118-3.438   c0-1.492,0.712-2.649,2.118-3.435c1.174-0.663,2.627-0.997,4.319-0.997c1.677,0,3.126,0.334,4.308,0.997   c1.39,0.793,2.097,1.949,2.097,3.435C84.232,102.26,83.519,103.409,82.112,104.203z"/>
	<path fill="#231F20" d="M107.951,95.936c-1.099-0.65-2.504-0.981-4.18-0.981c-2.131,0-3.858,0.67-5.148,1.971   c-1.247-1.3-2.966-1.971-5.132-1.971c-1.744,0-3.17,0.367-4.266,1.068c0-0.269,0-0.905,0-0.905h-1.923v11.309h1.923v-7.739   c0.13-0.557,0.498-1.07,1.095-1.494c0.788-0.555,1.831-0.837,3.098-0.837c1.121,0,2.084,0.231,2.864,0.685   c0.933,0.533,1.384,1.277,1.384,2.278v7.107h1.893v-7.107c0-1.002,0.45-1.751,1.378-2.289c0.789-0.447,1.763-0.674,2.896-0.674   c1.132,0,2.103,0.231,2.888,0.686c0.926,0.532,1.376,1.276,1.376,2.277v7.107h1.923v-6.842   C110.019,97.975,109.323,96.746,107.951,95.936z"/>
	<rect x="111.567" y="89.936" fill="#231F20" width="1.923" height="16.491"/>
	<path fill="#231F20" d="M129.905,104.685c0,0.383,0,1.742,0,1.742h1.923V95.118h-1.923c0,0,0,1.545,0,1.936   c-1.649-1.38-3.82-2.099-6.483-2.099c-2.155,0-4.007,0.411-5.507,1.221c-1.905,1.036-2.87,2.591-2.87,4.618   c0,1.999,0.988,3.542,2.939,4.586c1.534,0.824,3.386,1.242,5.506,1.242c1.063,0,2.093-0.127,3.058-0.375   C127.906,105.896,129.029,105.367,129.905,104.685z M123.485,105.221c-1.734,0-3.199-0.323-4.353-0.962   c-1.413-0.792-2.101-1.927-2.101-3.471c0-1.499,0.711-2.658,2.112-3.447c1.176-0.653,2.637-0.984,4.341-0.984   c2.105,0,3.753,0.514,4.898,1.529c1.009,0.895,1.521,2.063,1.521,3.467c0,0,0,1.238,0,1.341c-0.809,0.891-1.985,1.595-3.506,2.087   C125.505,105.073,124.524,105.221,123.485,105.221z"/>
	<rect x="134.922" y="89.674" fill="#231F20" width="1.923" height="13.032"/>
	<path fill="#231F20" d="M135.905,106.557c1.328,0,1.526-0.714,1.526-1.141c0-0.414-0.198-1.108-1.526-1.108   c-1.337,0-1.537,0.694-1.537,1.108C134.368,105.843,134.568,106.557,135.905,106.557z"/>
	<polygon fill="#231F20" points="138.762,91.503 139.145,91.503 139.145,89.942 139.94,89.942 139.94,89.674 137.966,89.674    137.966,89.942 138.762,89.942  "/>
	<polygon fill="#231F20" points="140.631,90.429 140.624,90.233 140.622,90.112 141.256,91.503 141.608,91.503 142.235,90.113    142.234,90.25 142.232,90.429 142.232,91.503 142.593,91.503 142.593,89.674 142.091,89.674 141.434,91.133 140.771,89.674    140.267,89.674 140.267,91.503 140.631,91.503  "/>
	<rect x="17" y="121.249" opacity="0.8" fill="#929497" width="0.679" height="1.264"/>
	<rect x="19.753" y="121.249" opacity="0.8" fill="#929497" width="0.679" height="1.264"/>
	<rect x="22.506" y="121.249" opacity="0.8" fill="#929497" width="0.679" height="1.264"/>
	<path opacity="0.8" fill="#929497" d="M27.464,117.158c-0.416,0-0.792,0.081-1.128,0.243s-0.646,0.413-0.928,0.753v-0.39v-2.183   h-0.666v6.931h0.666v-0.794c0.267,0.312,0.561,0.544,0.883,0.698c0.322,0.154,0.677,0.231,1.064,0.231   c0.787,0,1.44-0.265,1.961-0.793c0.52-0.528,0.78-1.186,0.78-1.969c0-0.759-0.254-1.402-0.764-1.934   C28.823,117.424,28.2,117.158,27.464,117.158z M28.797,121.399c-0.395,0.416-0.873,0.624-1.434,0.624   c-0.514,0-0.968-0.207-1.363-0.621c-0.395-0.414-0.592-0.9-0.592-1.459c0-0.603,0.193-1.112,0.578-1.532   c0.385-0.418,0.852-0.628,1.401-0.628c0.548,0,1.02,0.201,1.413,0.603c0.394,0.4,0.59,0.892,0.59,1.473   C29.39,120.471,29.192,120.984,28.797,121.399z"/>
	<path opacity="0.8" fill="#929497" d="M33.38,117.131c-0.804,0-1.463,0.261-1.978,0.781c-0.516,0.521-0.774,1.18-0.774,1.977   c0,0.763,0.263,1.415,0.791,1.959c0.527,0.543,1.172,0.814,1.934,0.814c0.575,0,1.08-0.155,1.517-0.468   c0.437-0.312,0.776-0.758,1.017-1.34h-0.761c-0.172,0.368-0.415,0.654-0.729,0.859c-0.315,0.206-0.669,0.31-1.063,0.31   c-0.556,0-1.02-0.176-1.392-0.529c-0.372-0.353-0.579-0.815-0.62-1.387h4.729v-0.05c0-0.867-0.249-1.571-0.745-2.113   C34.808,117.402,34.166,117.131,33.38,117.131z M31.34,119.522c0.079-0.537,0.295-0.964,0.646-1.278   c0.353-0.316,0.782-0.475,1.289-0.475c0.545,0,0.988,0.147,1.328,0.441c0.339,0.294,0.572,0.73,0.699,1.312H31.34z"/>
	<path opacity="0.8" fill="#929497" d="M39.196,117.77c0.41,0,0.762,0.091,1.06,0.273c0.296,0.182,0.547,0.462,0.754,0.841h0.748   c-0.216-0.555-0.541-0.986-0.975-1.293c-0.434-0.306-0.935-0.46-1.504-0.46c-0.759,0-1.404,0.27-1.933,0.808   c-0.529,0.539-0.793,1.195-0.793,1.97c0,0.76,0.261,1.407,0.784,1.946c0.523,0.538,1.164,0.808,1.923,0.808   c0.591,0,1.104-0.156,1.54-0.469c0.435-0.313,0.754-0.755,0.958-1.325H41.01c-0.162,0.366-0.398,0.649-0.709,0.852   c-0.311,0.202-0.67,0.304-1.076,0.304c-0.556,0-1.022-0.202-1.399-0.607c-0.378-0.404-0.566-0.909-0.566-1.512   c0-0.604,0.188-1.11,0.564-1.521C38.199,117.975,38.657,117.77,39.196,117.77z"/>
	<path opacity="0.8" fill="#929497" d="M47.165,118.112c-0.223-0.31-0.503-0.545-0.84-0.708c-0.337-0.163-0.708-0.246-1.112-0.246   c-0.787,0-1.441,0.264-1.964,0.791c-0.523,0.526-0.785,1.182-0.785,1.966c0,0.771,0.256,1.42,0.768,1.945   c0.513,0.525,1.154,0.788,1.924,0.788c0.414,0,0.8-0.086,1.158-0.258c0.358-0.171,0.642-0.408,0.852-0.71v0.832h0.652v-5.245   h-0.652V118.112z M46.57,121.388c-0.397,0.424-0.863,0.636-1.397,0.636c-0.554,0-1.029-0.201-1.424-0.603   c-0.395-0.4-0.592-0.894-0.592-1.478c0-0.611,0.198-1.125,0.595-1.539c0.396-0.414,0.876-0.621,1.44-0.621   c0.519,0,0.978,0.207,1.375,0.621c0.398,0.414,0.598,0.898,0.598,1.454C47.165,120.454,46.967,120.964,46.57,121.388z"/>
	<path opacity="0.8" fill="#929497" d="M52.589,119.843c0,0.461-0.018,0.783-0.053,0.97c-0.035,0.186-0.092,0.347-0.172,0.482   c-0.141,0.232-0.325,0.409-0.554,0.531c-0.229,0.122-0.495,0.184-0.797,0.184c-0.532,0-0.914-0.148-1.146-0.445   c-0.233-0.296-0.349-0.803-0.349-1.517v-2.78h-0.666V120c0,0.948,0.167,1.627,0.502,2.035c0.334,0.408,0.88,0.613,1.639,0.613   c0.357,0,0.661-0.057,0.913-0.168c0.251-0.111,0.479-0.293,0.684-0.542v0.574h0.666v-5.245h-0.666V119.843z"/>
	<path opacity="0.8" fill="#929497" d="M56.358,119.647c-0.083-0.035-0.246-0.089-0.489-0.162c-0.243-0.073-0.429-0.148-0.556-0.229   c-0.141-0.085-0.241-0.181-0.302-0.287c-0.061-0.105-0.091-0.236-0.091-0.391c0-0.218,0.073-0.4,0.22-0.548   c0.147-0.146,0.331-0.221,0.55-0.221c0.247,0,0.44,0.068,0.582,0.203c0.142,0.136,0.221,0.326,0.237,0.571h0.72   c-0.019-0.452-0.161-0.807-0.426-1.06c-0.265-0.254-0.623-0.381-1.073-0.381c-0.425,0-0.786,0.143-1.084,0.429   c-0.299,0.286-0.448,0.633-0.448,1.043c0,0.361,0.089,0.65,0.268,0.866c0.179,0.216,0.561,0.427,1.146,0.633   c0.364,0.132,0.616,0.274,0.755,0.426c0.139,0.152,0.208,0.353,0.208,0.602c0,0.25-0.088,0.457-0.263,0.621   c-0.175,0.163-0.395,0.246-0.66,0.246c-0.277,0-0.509-0.106-0.698-0.318c-0.188-0.213-0.282-0.48-0.282-0.805v-0.019h-0.693   c0.016,0.544,0.173,0.978,0.472,1.299c0.299,0.32,0.694,0.481,1.188,0.481c0.483,0,0.882-0.147,1.197-0.442   c0.314-0.295,0.472-0.668,0.472-1.118c0-0.358-0.077-0.653-0.231-0.884C56.926,119.972,56.686,119.787,56.358,119.647z"/>
	<path opacity="0.8" fill="#929497" d="M60.585,117.131c-0.802,0-1.462,0.261-1.978,0.781c-0.516,0.521-0.773,1.18-0.773,1.977   c0,0.763,0.264,1.415,0.791,1.959c0.527,0.543,1.172,0.814,1.935,0.814c0.574,0,1.08-0.155,1.517-0.468   c0.437-0.312,0.775-0.758,1.017-1.34h-0.761c-0.172,0.368-0.415,0.654-0.729,0.859c-0.314,0.206-0.669,0.31-1.063,0.31   c-0.557,0-1.021-0.176-1.393-0.529c-0.372-0.353-0.578-0.815-0.62-1.387h4.729v-0.05c0-0.867-0.249-1.571-0.745-2.113   S61.373,117.131,60.585,117.131z M58.546,119.522c0.079-0.537,0.295-0.964,0.647-1.278c0.352-0.316,0.781-0.475,1.289-0.475   c0.546,0,0.988,0.147,1.327,0.441c0.34,0.294,0.572,0.73,0.699,1.312H58.546z"/>
	<path opacity="0.8" fill="#929497" d="M69.161,117.104c-0.721,0-1.345,0.273-1.873,0.819c-0.527,0.547-0.791,1.204-0.791,1.974   c0,0.759,0.263,1.41,0.789,1.951c0.526,0.542,1.168,0.813,1.928,0.813c0.746,0,1.381-0.276,1.906-0.83   c0.524-0.552,0.787-1.22,0.787-2.002c0-0.743-0.269-1.384-0.803-1.92C70.568,117.372,69.921,117.104,69.161,117.104z    M70.628,121.411c-0.381,0.408-0.853,0.612-1.414,0.612c-0.572,0-1.05-0.204-1.434-0.612c-0.384-0.409-0.576-0.915-0.576-1.519   c0-0.604,0.191-1.111,0.574-1.521c0.383-0.41,0.841-0.615,1.374-0.615c0.593,0,1.083,0.2,1.469,0.6   c0.385,0.397,0.579,0.907,0.579,1.526C71.199,120.493,71.009,121.002,70.628,121.411z"/>
	<path opacity="0.8" fill="#929497" d="M75.279,117.158c-0.4,0-0.776,0.089-1.131,0.265c-0.354,0.177-0.626,0.412-0.816,0.708   v-0.863h-0.666v6.943h0.666v-1.385v-0.782v-0.363c0.226,0.314,0.509,0.555,0.85,0.72c0.342,0.165,0.725,0.248,1.149,0.248   c0.769,0,1.408-0.264,1.921-0.791c0.512-0.526,0.769-1.174,0.769-1.942c0-0.787-0.26-1.442-0.778-1.969   C76.724,117.421,76.068,117.158,75.279,117.158z M76.725,121.421c-0.395,0.401-0.865,0.603-1.413,0.603   c-0.534,0-0.996-0.212-1.39-0.636c-0.393-0.424-0.59-0.934-0.59-1.529c0-0.552,0.197-1.036,0.59-1.451   c0.394-0.416,0.849-0.624,1.365-0.624c0.562,0,1.04,0.207,1.434,0.621c0.396,0.414,0.593,0.928,0.593,1.539   C77.313,120.527,77.117,121.021,76.725,121.421z"/>
	<path opacity="0.8" fill="#929497" d="M81.304,117.131c-0.803,0-1.463,0.261-1.978,0.781c-0.516,0.521-0.774,1.18-0.774,1.977   c0,0.763,0.265,1.415,0.792,1.959c0.526,0.543,1.171,0.814,1.934,0.814c0.574,0,1.08-0.155,1.517-0.468   c0.437-0.312,0.775-0.758,1.017-1.34H83.05c-0.172,0.368-0.414,0.654-0.729,0.859c-0.315,0.206-0.669,0.31-1.063,0.31   c-0.557,0-1.021-0.176-1.393-0.529c-0.372-0.353-0.578-0.815-0.62-1.387h4.729v-0.05c0-0.867-0.248-1.571-0.744-2.113   C82.732,117.402,82.091,117.131,81.304,117.131z M79.265,119.522c0.079-0.537,0.295-0.964,0.647-1.278   c0.352-0.316,0.781-0.475,1.288-0.475c0.546,0,0.988,0.147,1.327,0.441c0.34,0.294,0.572,0.73,0.699,1.312H79.265z"/>
	<path opacity="0.8" fill="#929497" d="M88.786,117.999c-0.175-0.266-0.412-0.471-0.712-0.613c-0.301-0.143-0.642-0.214-1.025-0.214   c-0.351,0-0.66,0.057-0.932,0.171c-0.271,0.113-0.51,0.289-0.717,0.524v-0.6h-0.652v5.245H85.4v-2.549   c0-0.454,0.018-0.772,0.051-0.955s0.091-0.346,0.173-0.488c0.134-0.229,0.315-0.404,0.545-0.526   c0.229-0.122,0.496-0.184,0.802-0.184c0.52,0,0.897,0.141,1.134,0.42c0.235,0.279,0.354,0.729,0.354,1.348v2.935h0.666v-2.739   c0-0.492-0.026-0.863-0.078-1.115C88.993,118.406,88.906,118.187,88.786,117.999z"/>
	<path opacity="0.8" fill="#929497" d="M94.98,119.647c-0.083-0.035-0.245-0.089-0.489-0.162c-0.242-0.073-0.428-0.148-0.555-0.229   c-0.142-0.085-0.241-0.181-0.303-0.287c-0.061-0.105-0.09-0.236-0.09-0.391c0-0.218,0.073-0.4,0.22-0.548   c0.147-0.146,0.33-0.221,0.551-0.221c0.246,0,0.439,0.068,0.581,0.203c0.143,0.136,0.221,0.326,0.238,0.571h0.72   c-0.02-0.452-0.161-0.807-0.426-1.06c-0.266-0.254-0.623-0.381-1.073-0.381c-0.424,0-0.785,0.143-1.084,0.429   c-0.298,0.286-0.447,0.633-0.447,1.043c0,0.361,0.09,0.65,0.269,0.866s0.561,0.427,1.146,0.633   c0.364,0.132,0.616,0.274,0.756,0.426c0.139,0.152,0.208,0.353,0.208,0.602c0,0.25-0.088,0.457-0.263,0.621   c-0.175,0.163-0.396,0.246-0.66,0.246c-0.276,0-0.51-0.106-0.697-0.318c-0.188-0.213-0.282-0.48-0.282-0.805v-0.019h-0.692   c0.015,0.544,0.173,0.978,0.472,1.299c0.299,0.32,0.695,0.481,1.188,0.481c0.483,0,0.883-0.147,1.197-0.442   s0.473-0.668,0.473-1.118c0-0.358-0.078-0.653-0.232-0.884C95.549,119.972,95.309,119.787,94.98,119.647z"/>
	<path opacity="0.8" fill="#929497" d="M99.119,117.104c-0.721,0-1.345,0.273-1.872,0.819c-0.527,0.547-0.791,1.204-0.791,1.974   c0,0.759,0.263,1.41,0.789,1.951c0.524,0.542,1.168,0.813,1.927,0.813c0.747,0,1.382-0.276,1.906-0.83   c0.523-0.552,0.786-1.22,0.786-2.002c0-0.743-0.268-1.384-0.803-1.92C100.525,117.372,99.879,117.104,99.119,117.104z    M100.586,121.411c-0.38,0.408-0.853,0.612-1.414,0.612c-0.571,0-1.049-0.204-1.434-0.612c-0.384-0.409-0.575-0.915-0.575-1.519   c0-0.604,0.19-1.111,0.573-1.521s0.841-0.615,1.374-0.615c0.594,0,1.083,0.2,1.469,0.6c0.386,0.397,0.579,0.907,0.579,1.526   C101.158,120.493,100.968,121.002,100.586,121.411z"/>
	<path opacity="0.8" fill="#929497" d="M106.361,119.843c0,0.461-0.018,0.783-0.053,0.97c-0.035,0.186-0.093,0.347-0.172,0.482   c-0.14,0.232-0.325,0.409-0.554,0.531c-0.229,0.122-0.495,0.184-0.798,0.184c-0.532,0-0.914-0.148-1.146-0.445   c-0.232-0.296-0.349-0.803-0.349-1.517v-2.78h-0.666V120c0,0.948,0.168,1.627,0.502,2.035s0.881,0.613,1.64,0.613   c0.356,0,0.661-0.057,0.913-0.168c0.251-0.111,0.479-0.293,0.683-0.542v0.574h0.666v-5.245h-0.666V119.843z"/>
	<path opacity="0.8" fill="#929497" d="M109.258,117.371c-0.197,0.109-0.378,0.28-0.544,0.514v-0.617h-0.632v5.245h0.68v-3.158   c0-0.481,0.092-0.829,0.275-1.044c0.183-0.214,0.487-0.34,0.912-0.378l-0.006-0.733   C109.683,117.205,109.453,117.263,109.258,117.371z"/>
	<path opacity="0.8" fill="#929497" d="M112.907,117.77c0.409,0,0.762,0.091,1.059,0.273c0.297,0.182,0.548,0.462,0.754,0.841h0.748   c-0.216-0.555-0.541-0.986-0.976-1.293c-0.433-0.306-0.934-0.46-1.503-0.46c-0.759,0-1.404,0.27-1.933,0.808   c-0.529,0.539-0.794,1.195-0.794,1.97c0,0.76,0.262,1.407,0.784,1.946c0.522,0.538,1.164,0.808,1.924,0.808   c0.59,0,1.104-0.156,1.539-0.469c0.435-0.313,0.754-0.755,0.958-1.325h-0.748c-0.161,0.366-0.397,0.649-0.709,0.852   c-0.311,0.202-0.67,0.304-1.076,0.304c-0.555,0-1.021-0.202-1.398-0.607c-0.378-0.404-0.566-0.909-0.566-1.512   c0-0.604,0.188-1.11,0.563-1.521C111.91,117.975,112.367,117.77,112.907,117.77z"/>
	<path opacity="0.8" fill="#929497" d="M118.911,117.131c-0.803,0-1.462,0.261-1.978,0.781c-0.517,0.521-0.773,1.18-0.773,1.977   c0,0.763,0.263,1.415,0.79,1.959c0.526,0.543,1.172,0.814,1.934,0.814c0.575,0,1.081-0.155,1.519-0.468   c0.437-0.312,0.775-0.758,1.017-1.34h-0.762c-0.171,0.368-0.415,0.654-0.729,0.859c-0.313,0.206-0.669,0.31-1.063,0.31   c-0.556,0-1.02-0.176-1.392-0.529c-0.372-0.353-0.578-0.815-0.62-1.387h4.729v-0.05c0-0.867-0.249-1.571-0.745-2.113   C120.34,117.402,119.698,117.131,118.911,117.131z M116.872,119.522c0.079-0.537,0.295-0.964,0.646-1.278   c0.353-0.316,0.782-0.475,1.289-0.475c0.546,0,0.988,0.147,1.328,0.441c0.338,0.294,0.572,0.73,0.698,1.312H116.872z"/>
	<path opacity="0.8" fill="#929497" d="M131.074,117.172c-0.391,0-0.744,0.078-1.06,0.235c-0.316,0.156-0.58,0.384-0.793,0.685   c-0.172-0.281-0.42-0.505-0.747-0.671s-0.688-0.249-1.086-0.249c-0.343,0-0.649,0.059-0.921,0.175   c-0.271,0.117-0.506,0.291-0.707,0.521v-0.6h-0.666v5.245h0.666v-2.549c0-0.454,0.018-0.772,0.051-0.955   c0.032-0.183,0.091-0.346,0.173-0.488c0.134-0.229,0.315-0.404,0.544-0.526c0.229-0.122,0.497-0.184,0.802-0.184   c0.504,0,0.878,0.144,1.122,0.432c0.244,0.287,0.366,0.732,0.366,1.336v2.935h0.639v-2.549c0-0.454,0.017-0.772,0.053-0.955   c0.035-0.183,0.092-0.346,0.172-0.488c0.133-0.229,0.313-0.404,0.54-0.526c0.228-0.122,0.49-0.184,0.789-0.184   c0.518,0,0.891,0.147,1.12,0.44c0.229,0.294,0.343,0.787,0.343,1.479v2.782h0.639v-2.645c0-0.944-0.162-1.63-0.485-2.057   C132.303,117.385,131.786,117.172,131.074,117.172z"/>
	<path opacity="0.8" fill="#929497" d="M138.622,118.112c-0.224-0.31-0.503-0.545-0.84-0.708c-0.338-0.163-0.709-0.246-1.113-0.246   c-0.785,0-1.44,0.264-1.963,0.791c-0.524,0.526-0.786,1.182-0.786,1.966c0,0.771,0.256,1.42,0.769,1.945s1.153,0.788,1.924,0.788   c0.414,0,0.799-0.086,1.158-0.258c0.357-0.171,0.642-0.408,0.852-0.71v0.832h0.652v-5.245h-0.652V118.112z M138.026,121.388   c-0.396,0.424-0.862,0.636-1.396,0.636c-0.555,0-1.029-0.201-1.425-0.603c-0.394-0.4-0.592-0.894-0.592-1.478   c0-0.611,0.198-1.125,0.595-1.539s0.877-0.621,1.441-0.621c0.519,0,0.978,0.207,1.375,0.621s0.598,0.898,0.598,1.454   C138.622,120.454,138.424,120.964,138.026,121.388z"/>
	<polygon opacity="0.8" fill="#929497" points="141.45,115.582 140.784,115.582 140.784,117.268 139.792,117.268 139.792,117.946    140.784,117.946 140.784,122.513 141.45,122.513 141.45,117.946 142.442,117.946 142.442,117.268 141.45,117.268  "/>
	<polygon opacity="0.8" fill="#929497" points="144.112,115.582 143.446,115.582 143.446,117.268 142.455,117.268 142.455,117.946    143.446,117.946 143.446,122.513 144.112,122.513 144.112,117.946 145.104,117.946 145.104,117.268 144.112,117.268  "/>
	<path opacity="0.8" fill="#929497" d="M148.127,117.131c-0.804,0-1.462,0.261-1.978,0.781c-0.517,0.521-0.774,1.18-0.774,1.977   c0,0.763,0.264,1.415,0.791,1.959c0.526,0.543,1.172,0.814,1.934,0.814c0.575,0,1.081-0.155,1.519-0.468   c0.437-0.312,0.775-0.758,1.017-1.34h-0.762c-0.171,0.368-0.415,0.654-0.729,0.859c-0.314,0.206-0.669,0.31-1.063,0.31   c-0.556,0-1.02-0.176-1.392-0.529c-0.372-0.353-0.578-0.815-0.62-1.387h4.729v-0.05c0-0.867-0.249-1.571-0.745-2.113   C149.556,117.402,148.914,117.131,148.127,117.131z M146.088,119.522c0.079-0.537,0.295-0.964,0.646-1.278   c0.353-0.316,0.782-0.475,1.289-0.475c0.545,0,0.988,0.147,1.327,0.441s0.573,0.73,0.699,1.312H146.088z"/>
	<path opacity="0.8" fill="#929497" d="M152.733,117.371c-0.196,0.109-0.378,0.28-0.543,0.514v-0.617h-0.632v5.245h0.679v-3.158   c0-0.481,0.092-0.829,0.275-1.044c0.184-0.214,0.487-0.34,0.911-0.378l-0.004-0.733   C153.158,117.205,152.93,117.263,152.733,117.371z"/>
	<path opacity="0.8" fill="#929497" d="M156.769,120.204c-0.154-0.232-0.396-0.417-0.724-0.557   c-0.082-0.035-0.245-0.089-0.488-0.162s-0.429-0.148-0.556-0.229c-0.141-0.085-0.241-0.181-0.302-0.287   c-0.061-0.105-0.091-0.236-0.091-0.391c0-0.218,0.073-0.4,0.22-0.548c0.146-0.146,0.33-0.221,0.551-0.221   c0.246,0,0.44,0.068,0.582,0.203c0.142,0.136,0.221,0.326,0.237,0.571h0.72c-0.019-0.452-0.161-0.807-0.426-1.06   c-0.266-0.254-0.622-0.381-1.072-0.381c-0.425,0-0.786,0.143-1.084,0.429c-0.299,0.286-0.448,0.633-0.448,1.043   c0,0.361,0.09,0.65,0.269,0.866c0.18,0.216,0.561,0.427,1.146,0.633c0.363,0.132,0.616,0.274,0.754,0.426   c0.14,0.152,0.209,0.353,0.209,0.602c0,0.25-0.087,0.457-0.263,0.621c-0.175,0.163-0.396,0.246-0.659,0.246   c-0.278,0-0.511-0.106-0.698-0.318c-0.188-0.213-0.282-0.48-0.282-0.805v-0.019h-0.692c0.015,0.544,0.173,0.978,0.472,1.299   c0.299,0.32,0.695,0.481,1.188,0.481c0.484,0,0.883-0.147,1.197-0.442s0.473-0.668,0.473-1.118   C157,120.729,156.923,120.435,156.769,120.204z"/>
</g>
</svg>