<?xml version="1.0" encoding="UTF-8"?>
<!-- Generator: Adobe Illustrator 22.0.1, SVG Export Plug-In . SVG Version: 6.00 Build 0)  -->
<svg version="1.1" id="Laravel" xmlns="http://www.w3.org/2000/svg" xmlns:xlink="http://www.w3.org/1999/xlink" x="0px" y="0px" viewBox="0 0 225 130" style="enable-background:new 0 0 225 130;" xml:space="preserve">
<style type="text/css">
	.st0{fill:#F0543F;}
	.st1{fill:#6D6E6E;}
</style>
<g>
	<g>
		<path class="st0" d="M124.4,89.4c-0.5,0-1-0.3-1.3-0.7l-11.5-19.1l-21.4,5.8c-0.7,0.2-1.4-0.1-1.7-0.8L63.4,27.4    c-0.2-0.4-0.2-1,0-1.4c0.2-0.4,0.7-0.7,1.1-0.8l21.3-2.9c0.6-0.1,1.2,0.2,1.5,0.7L113.1,66l29.9-8.1l-10-14.1    c-0.3-0.4-0.4-0.9-0.2-1.4c0.2-0.5,0.6-0.8,1.1-0.9l14-3.3c0.6-0.1,1.2,0.1,1.5,0.5l12.1,15.1c0.3,0.4,0.4,0.9,0.3,1.4    c-0.2,0.5-0.6,0.9-1,1l-12.7,3.5L159,75.3c0.3,0.4,0.4,0.9,0.2,1.3c-0.1,0.5-0.5,0.8-0.9,1l-33.4,11.7    C124.8,89.4,124.6,89.4,124.4,89.4z M114.7,68.7L125.1,86l30.3-10.6l-10.6-14.9L114.7,68.7z M67.1,27.9l23.5,44.2l19.5-5.3    L85.2,25.5L67.1,27.9z M136.7,43.9l9.3,13.1l11.6-3.2l-10.1-12.6L136.7,43.9z"/>
	</g>
	<g>
		<path class="st1" d="M84.9,93.7h1.3v13.7h-1.3V93.7z"/>
		<path class="st1" d="M98.7,97.6v9.9h-1.3v-1.7c-0.5,0.6-1.1,1.1-1.8,1.5s-1.4,0.5-2.2,0.5c-1.4,0-2.6-0.5-3.6-1.5    c-1-1-1.5-2.2-1.5-3.7c0-1.4,0.5-2.6,1.5-3.6c1-1,2.2-1.5,3.6-1.5c0.8,0,1.5,0.2,2.2,0.5c0.7,0.3,1.2,0.9,1.7,1.5v-1.8H98.7z     M93.6,98.5c-0.7,0-1.4,0.2-2,0.5c-0.6,0.3-1.1,0.8-1.4,1.5c-0.4,0.6-0.5,1.3-0.5,2c0,0.7,0.2,1.4,0.5,2c0.4,0.6,0.8,1.1,1.4,1.5    c0.6,0.4,1.2,0.5,1.9,0.5c0.7,0,1.4-0.2,2-0.5c0.6-0.4,1.1-0.8,1.4-1.4c0.3-0.6,0.5-1.3,0.5-2c0-1.1-0.4-2.1-1.1-2.9    C95.6,98.9,94.7,98.5,93.6,98.5z"/>
		<path class="st1" d="M101,97.6h1.3V99c0.4-0.6,0.8-1,1.2-1.3c0.4-0.3,0.9-0.4,1.3-0.4c0.4,0,0.7,0.1,1.1,0.3l-0.7,1.1    c-0.3-0.1-0.5-0.2-0.7-0.2c-0.4,0-0.8,0.2-1.2,0.5c-0.4,0.3-0.7,0.9-0.9,1.6c-0.2,0.6-0.2,1.7-0.2,3.4v3.3H101V97.6z"/>
		<path class="st1" d="M116.9,97.6v9.9h-1.3v-1.7c-0.5,0.6-1.1,1.1-1.8,1.5c-0.7,0.3-1.4,0.5-2.2,0.5c-1.4,0-2.6-0.5-3.6-1.5    c-1-1-1.5-2.2-1.5-3.7c0-1.4,0.5-2.6,1.5-3.6c1-1,2.2-1.5,3.6-1.5c0.8,0,1.5,0.2,2.2,0.5c0.7,0.3,1.2,0.9,1.7,1.5v-1.8H116.9z     M111.9,98.5c-0.7,0-1.4,0.2-2,0.5c-0.6,0.3-1.1,0.8-1.4,1.5c-0.4,0.6-0.5,1.3-0.5,2c0,0.7,0.2,1.4,0.5,2c0.4,0.6,0.8,1.1,1.4,1.5    c0.6,0.4,1.2,0.5,1.9,0.5c0.7,0,1.4-0.2,2-0.5c0.6-0.4,1.1-0.8,1.4-1.4c0.3-0.6,0.5-1.3,0.5-2c0-1.1-0.4-2.1-1.1-2.9    C113.9,98.9,113,98.5,111.9,98.5z"/>
		<path class="st1" d="M118.9,97.6h1.4l3.3,7.2l3.3-7.2h1.4l-4.5,9.9h-0.2L118.9,97.6z"/>
		<path class="st1" d="M138.4,104.1l1.1,0.6c-0.4,0.7-0.8,1.2-1.2,1.7c-0.5,0.4-1,0.7-1.6,1c-0.6,0.2-1.2,0.3-2,0.3    c-1.6,0-2.9-0.5-3.8-1.6c-0.9-1.1-1.4-2.2-1.4-3.6c0-1.3,0.4-2.4,1.2-3.3c1-1.2,2.3-1.9,3.9-1.9c1.7,0,3,0.6,4,1.9    c0.7,0.9,1.1,2,1.1,3.4h-8.9c0,1.1,0.4,2.1,1.1,2.8c0.7,0.7,1.6,1.1,2.6,1.1c0.5,0,1-0.1,1.5-0.3c0.5-0.2,0.9-0.4,1.2-0.7    C137.6,105.3,138,104.8,138.4,104.1z M138.4,101.5c-0.2-0.7-0.4-1.2-0.7-1.6c-0.3-0.4-0.8-0.7-1.3-1c-0.5-0.2-1.1-0.4-1.7-0.4    c-1,0-1.8,0.3-2.5,0.9c-0.5,0.5-0.9,1.1-1.2,2H138.4z"/>
		<path class="st1" d="M141.9,93.7h1.3v13.7h-1.3V93.7z"/>
	</g>
</g>
</svg>