<?xml version="1.0" encoding="UTF-8"?>
<!-- Generator: Adobe Illustrator 14.0.0, SVG Export Plug-In . SVG Version: 6.00 Build 43363)  -->
<!DOCTYPE svg PUBLIC "-//W3C//DTD SVG 1.1//EN" "http://www.w3.org/Graphics/SVG/1.1/DTD/svg11.dtd">
<svg version="1.1" id="Layer_1" xmlns="http://www.w3.org/2000/svg" xmlns:xlink="http://www.w3.org/1999/xlink" x="0px" y="0px" width="174px" height="160px" viewBox="0 0 174 160" enable-background="new 0 0 174 160" xml:space="preserve">
<g>
	<path fill="none" d="M29.351,119.014c-1.132,0-2.013,0.452-2.643,1.363c-0.569,0.803-0.851,1.794-0.851,2.969   c0,1.167,0.282,2.171,0.851,2.996c0.63,0.91,1.511,1.365,2.643,1.365c1.131,0,2.012-0.455,2.643-1.365   c0.562-0.825,0.844-1.829,0.844-2.996c0-1.175-0.282-2.166-0.844-2.969C31.363,119.466,30.482,119.014,29.351,119.014z"/>
	<path fill="none" d="M118.269,119.014c-1.133,0-2.016,0.452-2.645,1.363c-0.567,0.803-0.85,1.794-0.85,2.969   c0,1.167,0.274,2.171,0.819,2.996c0.649,0.91,1.542,1.365,2.675,1.365c1.129,0,2.011-0.455,2.642-1.365   c0.561-0.825,0.843-1.829,0.843-2.996c0-1.175-0.282-2.166-0.843-2.969C120.255,119.466,119.375,119.014,118.269,119.014z"/>
	<path fill="none" d="M66.634,118.415c-0.808,0-1.56,0.317-2.257,0.96c-0.697,0.642-1.046,1.352-1.046,2.135h6.606   c-0.024-0.783-0.385-1.493-1.083-2.135C68.156,118.732,67.417,118.415,66.634,118.415z"/>
	<path fill="none" d="M95.096,108.53c-0.173-0.104-0.435-0.154-0.797-0.154h-0.702v1.284h0.702c0.398,0,0.674-0.048,0.828-0.146   c0.152-0.099,0.226-0.268,0.226-0.52C95.353,108.781,95.267,108.628,95.096,108.53z"/>
	<path fill="none" d="M47.836,119.014c-1.131,0-2.012,0.452-2.643,1.363c-0.563,0.803-0.843,1.794-0.843,2.969   c0,1.167,0.28,2.171,0.843,2.996c0.63,0.91,1.512,1.365,2.643,1.365c1.132,0,2.012-0.455,2.643-1.365   c0.563-0.825,0.851-1.829,0.851-2.996c0-1.175-0.288-2.166-0.851-2.969C49.848,119.466,48.968,119.014,47.836,119.014z"/>
	<path fill="none" d="M96.839,110.909c0.135-0.325,0.201-0.674,0.201-1.046c0-0.366-0.066-0.716-0.208-1.045   c-0.133-0.338-0.33-0.631-0.587-0.889c-0.263-0.264-0.563-0.464-0.899-0.6c-0.33-0.133-0.685-0.207-1.058-0.207   s-0.722,0.066-1.046,0.207c-0.33,0.136-0.624,0.332-0.881,0.583c-0.263,0.268-0.466,0.573-0.605,0.909   c-0.141,0.337-0.208,0.681-0.208,1.041s0.067,0.71,0.208,1.04c0.134,0.33,0.336,0.624,0.599,0.887   c0.264,0.264,0.558,0.459,0.894,0.6c0.33,0.141,0.68,0.214,1.04,0.214s0.71-0.073,1.053-0.214c0.335-0.141,0.636-0.342,0.904-0.605   C96.502,111.527,96.705,111.233,96.839,110.909z M95.782,111.582h-0.539l-0.759-1.584h-0.887v1.584h-0.482v-3.542h1.278   c0.495,0,0.862,0.081,1.095,0.239c0.232,0.152,0.35,0.397,0.35,0.732c0,0.244-0.074,0.454-0.228,0.618   c-0.152,0.166-0.36,0.27-0.611,0.294L95.782,111.582z"/>
	
		<linearGradient id="SVGID_1_" gradientUnits="userSpaceOnUse" x1="-51.7954" y1="176.7109" x2="-51.1025" y2="176.7109" gradientTransform="matrix(24.8438 0 0 -24.8438 1307.5244 4513.5269)">
		<stop offset="0" style="stop-color:#21B9EC"/>
		<stop offset="1" style="stop-color:#3BC4ED"/>
	</linearGradient>
	<path fill="url(#SVGID_1_)" d="M29.351,114.048c-2.551,0-4.649,0.917-6.283,2.751c-1.547,1.763-2.325,3.946-2.325,6.547   c0,2.593,0.777,4.776,2.325,6.544c1.615,1.854,3.707,2.783,6.283,2.783c2.569,0,4.667-0.929,6.282-2.783   c1.548-1.768,2.318-3.951,2.318-6.544c0-2.601-0.771-4.784-2.318-6.547C34.018,114.965,31.92,114.048,29.351,114.048z    M31.994,126.342c-0.63,0.91-1.511,1.365-2.643,1.365c-1.132,0-2.013-0.455-2.643-1.365c-0.569-0.825-0.851-1.829-0.851-2.996   c0-1.175,0.282-2.166,0.851-2.969c0.63-0.911,1.511-1.363,2.643-1.363c1.131,0,2.012,0.452,2.643,1.363   c0.562,0.803,0.844,1.794,0.844,2.969C32.837,124.513,32.556,125.517,31.994,126.342z"/>
	
		<linearGradient id="SVGID_2_" gradientUnits="userSpaceOnUse" x1="-52.1255" y1="176.7715" x2="-51.4331" y2="176.7715" gradientTransform="matrix(24.8438 0 0 -24.8438 1334.2275 4518.4487)">
		<stop offset="0" style="stop-color:#21B9EC"/>
		<stop offset="1" style="stop-color:#3BC4ED"/>
	</linearGradient>
	<path fill="url(#SVGID_2_)" d="M48.558,114.048c-1.853,0-3.315,0.655-4.386,1.965c-0.501-1.086-1.296-1.629-2.385-1.629   c-0.722,0-1.327,0.264-1.817,0.782c-0.489,0.526-0.734,1.151-0.734,1.872v19.777c0,0.745,0.239,1.375,0.716,1.9   c0.483,0.522,1.088,0.784,1.83,0.784c1.81,0,2.715-1.516,2.715-4.558c0-0.55-0.024-1.248-0.073-2.104   c-0.049-0.851-0.073-1.384-0.073-1.604c1.149,0.956,2.556,1.438,4.214,1.438c2.35,0,4.283-0.996,5.78-2.979   c1.4-1.811,2.098-3.926,2.098-6.349s-0.703-4.54-2.098-6.355C52.84,115.026,50.914,114.048,48.558,114.048z M50.479,126.342   c-0.63,0.91-1.511,1.365-2.643,1.365c-1.131,0-2.012-0.455-2.643-1.365c-0.563-0.825-0.843-1.829-0.843-2.996   c0-1.175,0.28-2.166,0.843-2.969c0.63-0.911,1.512-1.363,2.643-1.363c1.132,0,2.012,0.452,2.643,1.363   c0.563,0.803,0.851,1.794,0.851,2.969C51.329,124.513,51.042,125.517,50.479,126.342z"/>
	
		<linearGradient id="SVGID_3_" gradientUnits="userSpaceOnUse" x1="-52.4575" y1="176.7109" x2="-51.7646" y2="176.7109" gradientTransform="matrix(24.8428 0 0 -24.8428 1361.0323 4513.3545)">
		<stop offset="0" style="stop-color:#21B9EC"/>
		<stop offset="1" style="stop-color:#3BC4ED"/>
	</linearGradient>
	<path fill="url(#SVGID_3_)" d="M66.773,114.048c-2.532,0-4.654,0.91-6.361,2.734c-1.713,1.822-2.569,4.005-2.569,6.563   c0,2.685,0.826,4.904,2.471,6.673c1.645,1.768,3.798,2.654,6.466,2.654c1.657,0,3.278-0.3,4.875-0.887   c2.093-0.782,3.139-1.873,3.139-3.271c0-0.606-0.209-1.133-0.619-1.566c-0.417-0.441-0.918-0.655-1.511-0.655   c-0.324,0-1.077,0.27-2.245,0.82c-1.168,0.544-2.165,0.819-2.999,0.819c-1.07,0-1.975-0.207-2.715-0.619   c-0.918-0.525-1.376-1.277-1.376-2.257h9.231c0.85,0,1.479-0.164,1.884-0.488c0.403-0.33,0.605-0.919,0.605-1.774   c0-2.38-0.796-4.434-2.373-6.159C71.098,114.909,69.129,114.048,66.773,114.048z M63.331,121.51c0-0.783,0.349-1.493,1.046-2.135   c0.697-0.643,1.449-0.96,2.257-0.96c0.783,0,1.522,0.317,2.221,0.96c0.697,0.642,1.058,1.352,1.083,2.135H63.331z"/>
	
		<linearGradient id="SVGID_4_" gradientUnits="userSpaceOnUse" x1="-52.6704" y1="176.5586" x2="-51.978" y2="176.5586" gradientTransform="matrix(22.8477 0 0 -22.8477 1279.8123 4157.126)">
		<stop offset="0" style="stop-color:#21B9EC"/>
		<stop offset="1" style="stop-color:#3BC4ED"/>
	</linearGradient>
	<path fill="url(#SVGID_4_)" d="M85.891,114.048c-2.093,0-3.554,0.655-4.38,1.965c-0.478-1.086-1.327-1.629-2.551-1.629   c-0.74,0-1.352,0.257-1.828,0.771c-0.484,0.509-0.722,1.138-0.722,1.879v12.617c0,0.747,0.238,1.378,0.722,1.902   c0.476,0.521,1.083,0.784,1.822,0.784c1.763,0,2.643-1.42,2.643-4.251c0-0.544-0.031-1.4-0.092-2.58   c-0.055-1.176-0.085-2.039-0.085-2.583c0-3.004,0.967-4.508,2.906-4.508c1.939,0,2.912,1.504,2.912,4.508   c0,0.544-0.037,1.407-0.117,2.583c-0.073,1.18-0.11,2.036-0.11,2.58c0,2.831,0.894,4.251,2.68,4.251   c0.74,0,1.345-0.264,1.829-0.784c0.477-0.524,0.715-1.155,0.715-1.902v-9.554c0-1.915-0.575-3.419-1.731-4.515   C89.371,114.561,87.829,114.048,85.891,114.048z"/>
	
		<linearGradient id="SVGID_5_" gradientUnits="userSpaceOnUse" x1="-52.9141" y1="176.4141" x2="-52.2212" y2="176.4141" gradientTransform="matrix(21.168 0 0 -21.168 1213.6992 3857.6775)">
		<stop offset="0" style="stop-color:#21B9EC"/>
		<stop offset="1" style="stop-color:#3BC4ED"/>
	</linearGradient>
	<path fill="url(#SVGID_5_)" d="M102.522,119.014c0.459,0,1.084,0.135,1.865,0.417c0.783,0.274,1.383,0.415,1.799,0.415   c0.612,0,1.114-0.245,1.504-0.722c0.392-0.484,0.588-1.041,0.588-1.67c0-1.248-0.739-2.164-2.226-2.751   c-1.064-0.436-2.344-0.655-3.83-0.655c-2.575,0-4.649,0.899-6.232,2.703c-1.584,1.799-2.374,3.994-2.374,6.595   c0,2.593,0.777,4.776,2.324,6.544c1.615,1.854,3.707,2.783,6.282,2.783c1.334,0,2.6-0.274,3.799-0.818   c1.506-0.676,2.257-1.591,2.257-2.747c0-0.569-0.208-1.09-0.617-1.573c-0.416-0.476-0.906-0.721-1.475-0.721   c-0.391,0-1.021,0.151-1.896,0.445c-0.876,0.301-1.561,0.448-2.063,0.448c-1.131,0-2.02-0.466-2.648-1.401   c-0.569-0.8-0.851-1.793-0.851-2.96c0-1.242,0.318-2.246,0.948-3.029C100.357,119.448,101.305,119.014,102.522,119.014z"/>
	
		<linearGradient id="SVGID_6_" gradientUnits="userSpaceOnUse" x1="-53.3823" y1="176.7109" x2="-52.6899" y2="176.7109" gradientTransform="matrix(24.8418 0 0 -24.8418 1435.7903 4513.167)">
		<stop offset="0" style="stop-color:#21B9EC"/>
		<stop offset="1" style="stop-color:#3BC4ED"/>
	</linearGradient>
	<path fill="url(#SVGID_6_)" d="M124.317,114.384c-1.113,0-1.907,0.543-2.386,1.629c-1.07-1.31-2.533-1.965-4.385-1.965   c-2.355,0-4.296,0.979-5.824,2.942c-1.371,1.815-2.061,3.933-2.061,6.355s0.689,4.538,2.061,6.349   c1.505,1.982,3.451,2.979,5.824,2.979c1.852,0,3.314-0.653,4.385-1.963c0.479,1.082,1.272,1.627,2.386,1.627   c0.739,0,1.352-0.264,1.835-0.784c0.478-0.524,0.716-1.155,0.716-1.902v-12.617c0-0.723-0.244-1.341-0.733-1.867   C125.645,114.647,125.039,114.384,124.317,114.384z M120.911,126.342c-0.631,0.91-1.513,1.365-2.642,1.365   c-1.133,0-2.025-0.455-2.675-1.365c-0.545-0.825-0.819-1.829-0.819-2.996c0-1.175,0.282-2.166,0.85-2.969   c0.629-0.911,1.512-1.363,2.645-1.363c1.105,0,1.986,0.452,2.642,1.363c0.561,0.803,0.843,1.794,0.843,2.969   C121.753,124.513,121.471,125.517,120.911,126.342z"/>
	
		<linearGradient id="SVGID_7_" gradientUnits="userSpaceOnUse" x1="-53.4976" y1="175.8018" x2="-52.8047" y2="175.8018" gradientTransform="matrix(16.25 0 0 -16.25 997.9908 2979.9612)">
		<stop offset="0" style="stop-color:#21B9EC"/>
		<stop offset="1" style="stop-color:#3BC4ED"/>
	</linearGradient>
	<path fill="url(#SVGID_7_)" d="M137.298,114.048c-1.268,0-2.441,0.655-3.537,1.965c-0.477-1.086-1.326-1.629-2.549-1.629   c-0.74,0-1.354,0.257-1.837,0.771c-0.478,0.509-0.716,1.138-0.716,1.879v12.617c0,0.747,0.238,1.378,0.723,1.902   c0.477,0.521,1.09,0.784,1.834,0.784c0.74,0,1.353-0.264,1.837-0.784c0.477-0.524,0.719-1.155,0.719-1.902v-6.281   c0-1.651,0.534-2.789,1.604-3.402c0.979-0.347,1.958-0.685,2.943-1.015c1.064-0.409,1.596-1.162,1.596-2.256   c0-0.717-0.259-1.341-0.766-1.866C138.637,114.311,138.019,114.048,137.298,114.048z"/>
	
		<linearGradient id="SVGID_8_" gradientUnits="userSpaceOnUse" x1="-53.8599" y1="175.9883" x2="-53.1675" y2="175.9883" gradientTransform="matrix(18 0 0 -18 1110.27 3288.2119)">
		<stop offset="0" style="stop-color:#21B9EC"/>
		<stop offset="1" style="stop-color:#3BC4ED"/>
	</linearGradient>
	<path fill="url(#SVGID_8_)" d="M151.922,114.805c-0.436-0.152-1.346-0.23-2.733-0.23v-1.029v-1.161   c0-2.575-0.856-3.859-2.558-3.859c-1.706,0-2.556,1.284-2.556,3.859v1.161v1.029c-1.053,0-1.813,0.133-2.271,0.391   c-0.678,0.35-1.015,1.004-1.015,1.964c0,0.959,0.325,1.626,0.986,1.994c0.481,0.263,1.247,0.397,2.3,0.397v10.33   c0,0.747,0.245,1.378,0.732,1.902c0.49,0.521,1.103,0.784,1.823,0.784c0.74,0,1.352-0.264,1.836-0.784   c0.477-0.524,0.722-1.155,0.722-1.902v-10.33c1.388,0,2.298-0.079,2.733-0.232c0.888-0.308,1.334-1.022,1.334-2.159   C153.256,115.821,152.81,115.111,151.922,114.805z"/>
	
		<linearGradient id="SVGID_9_" gradientUnits="userSpaceOnUse" x1="-51.0571" y1="172.9082" x2="-50.3643" y2="172.9082" gradientTransform="matrix(8.7959 0 0 -8.7959 540.3409 1630.7396)">
		<stop offset="0" style="stop-color:#21B9EC"/>
		<stop offset="1" style="stop-color:#3BC4ED"/>
	</linearGradient>
	<path fill="url(#SVGID_9_)" d="M96.46,112.003c0.287-0.288,0.508-0.61,0.653-0.972c0.153-0.36,0.228-0.753,0.228-1.168   c0-0.41-0.074-0.807-0.228-1.174c-0.152-0.373-0.366-0.699-0.653-0.985c-0.288-0.287-0.619-0.515-0.991-0.667   c-0.37-0.151-0.759-0.23-1.171-0.231h-0.02c-0.412,0.001-0.794,0.08-1.158,0.226c-0.367,0.152-0.685,0.373-0.967,0.66   c-0.293,0.293-0.521,0.63-0.673,1.003c-0.159,0.373-0.232,0.766-0.232,1.169s0.073,0.794,0.227,1.162   c0.152,0.367,0.379,0.697,0.666,0.985c0.295,0.293,0.624,0.52,0.992,0.672c0.366,0.159,0.752,0.232,1.155,0.232   s0.789-0.073,1.162-0.232C95.825,112.524,96.161,112.299,96.46,112.003z M94.289,112.604c-0.36,0-0.71-0.073-1.04-0.214   c-0.336-0.141-0.63-0.336-0.894-0.6c-0.263-0.263-0.465-0.557-0.599-0.887c-0.141-0.33-0.208-0.68-0.208-1.04   s0.067-0.704,0.208-1.041c0.14-0.336,0.343-0.642,0.605-0.909c0.257-0.251,0.551-0.447,0.881-0.583   c0.324-0.141,0.673-0.207,1.046-0.207s0.728,0.074,1.058,0.207c0.337,0.136,0.637,0.336,0.899,0.6   c0.257,0.258,0.454,0.551,0.587,0.889c0.142,0.329,0.208,0.679,0.208,1.045c0,0.372-0.066,0.721-0.201,1.046   c-0.135,0.324-0.337,0.618-0.594,0.875c-0.269,0.264-0.569,0.465-0.904,0.605C94.999,112.53,94.649,112.604,94.289,112.604z"/>
	
		<linearGradient id="SVGID_10_" gradientUnits="userSpaceOnUse" x1="-51.0576" y1="172.9141" x2="-50.3647" y2="172.9141" gradientTransform="matrix(8.7959 0 0 -8.7959 540.3409 1630.7396)">
		<stop offset="0" style="stop-color:#21B9EC"/>
		<stop offset="1" style="stop-color:#3BC4ED"/>
	</linearGradient>
	<path fill="url(#SVGID_10_)" d="M95.837,109.012c0-0.335-0.117-0.58-0.35-0.732c-0.232-0.158-0.6-0.239-1.095-0.239h-1.278v3.542   h0.482v-1.584h0.887l0.759,1.584h0.539l-0.783-1.658c0.251-0.024,0.459-0.128,0.611-0.294   C95.763,109.466,95.837,109.256,95.837,109.012z M95.127,109.514c-0.154,0.099-0.43,0.146-0.828,0.146h-0.702v-1.284h0.702   c0.362,0,0.624,0.05,0.797,0.154c0.171,0.098,0.257,0.251,0.257,0.464C95.353,109.246,95.28,109.415,95.127,109.514z"/>
	
		<linearGradient id="SVGID_11_" gradientUnits="userSpaceOnUse" x1="-56.2896" y1="178.8555" x2="-54.6074" y2="178.8555" gradientTransform="matrix(53.8584 0 0 -53.8584 3075.4006 9678.9902)">
		<stop offset="0" style="stop-color:#21B9EC"/>
		<stop offset="1" style="stop-color:#3BC4ED"/>
	</linearGradient>
	<path fill="url(#SVGID_11_)" d="M96.536,42.927c47.195-0.728,18.402,12.167,10.026,26.738c26.427-23.588,45.232-33.109,2.45-33.109   c-42.795,0-53.653-1.829-65.272-14.056C48.626,29.843,51.302,43.613,96.536,42.927z"/>
	
		<linearGradient id="SVGID_12_" gradientUnits="userSpaceOnUse" x1="-68.2158" y1="179.6074" x2="-66.5337" y2="179.6074" gradientTransform="matrix(7.6914 0 0 -7.6914 585.9348 1462.6719)">
		<stop offset="0" style="stop-color:#21B9EC"/>
		<stop offset="1" style="stop-color:#3BC4ED"/>
	</linearGradient>
	<path fill="url(#SVGID_12_)" d="M74.193,81.254c0-3.581-2.895-6.477-6.462-6.477c-3.581,0-6.477,2.896-6.477,6.477   c0,3.565,2.896,6.461,6.477,6.461C71.299,87.715,74.193,84.819,74.193,81.254z"/>
	
		<linearGradient id="SVGID_13_" gradientUnits="userSpaceOnUse" x1="-66.6626" y1="179.6074" x2="-64.9805" y2="179.6074" gradientTransform="matrix(7.6914 0 0 -7.6914 603.4583 1462.6719)">
		<stop offset="0" style="stop-color:#21B9EC"/>
		<stop offset="1" style="stop-color:#3BC4ED"/>
	</linearGradient>
	<path fill="url(#SVGID_13_)" d="M103.666,81.254c0-3.581-2.896-6.477-6.463-6.477c-3.578,0-6.476,2.896-6.476,6.477   c0,3.565,2.897,6.461,6.476,6.461C100.77,87.715,103.666,84.819,103.666,81.254z"/>
</g>
</svg>