<!DOCTYPE svg PUBLIC "-//W3C//DTD SVG 20010904//EN" "http://www.w3.org/TR/2001/REC-SVG-20010904/DTD/svg10.dtd">
<svg version="1.0" xmlns="http://www.w3.org/2000/svg" width="875px" height="978px" viewBox="0 0 8750 9780" preserveAspectRatio="xMidYMid meet">
<g id="layer101" fill="#ef6125" stroke="none">
 <path d="M0 9310 l0 -470 70 0 70 0 0 47 0 47 33 -31 c59 -57 92 -68 197 -68 87 0 100 3 149 30 67 37 115 92 141 164 57 152 25 335 -77 433 -112 108 -316 112 -414 7 l-29 -31 0 171 0 171 -70 0 -70 0 0 -470z m448 77 c27 -17 49 -44 67 -81 24 -49 27 -65 24 -134 -3 -66 -9 -86 -34 -127 -63 -102 -195 -124 -286 -48 -64 54 -93 163 -69 261 13 57 67 127 114 148 48 22 136 13 184 -19z"/>
 <path d="M1600 9310 l0 -470 70 0 70 0 0 46 0 46 41 -36 c75 -64 188 -83 296 -51 68 20 144 89 180 163 26 53 28 66 28 177 0 116 -1 123 -33 187 -57 117 -146 171 -282 171 -85 1 -128 -14 -183 -63 l-37 -32 0 166 0 166 -75 0 -75 0 0 -470z m425 91 c53 -24 91 -70 110 -133 19 -66 19 -101 -1 -168 -53 -180 -284 -201 -364 -34 -26 55 -31 166 -11 219 45 113 162 164 266 116z"/>
 <path d="M2420 9080 l0 -640 140 0 140 0 0 40 0 40 -75 0 -75 0 0 560 0 560 75 0 75 0 0 40 0 40 -140 0 -140 0 0 -640z"/>
 <path d="M8470 9680 l0 -40 75 0 75 0 0 -560 0 -560 -75 0 -75 0 0 -40 0 -40 140 0 140 0 0 640 0 640 -140 0 -140 0 0 -40z"/>
 <path d="M4350 9535 c-115 -32 -212 -126 -245 -238 -20 -67 -19 -184 1 -244 35 -102 105 -172 213 -214 77 -30 219 -30 311 0 105 34 104 33 74 132 -14 46 -27 85 -29 87 -1 1 -26 -10 -56 -25 -70 -37 -172 -40 -216 -7 -50 37 -73 81 -73 141 0 95 38 150 121 175 50 14 130 -2 183 -38 21 -14 39 -24 41 -22 2 1 15 43 31 92 l27 89 -24 18 c-74 57 -251 84 -359 54z"/>
 <path d="M7520 9535 c-161 -45 -260 -180 -260 -354 0 -173 73 -282 229 -342 77 -30 219 -30 311 0 104 34 103 33 73 132 -14 46 -26 85 -28 87 -1 1 -26 -10 -56 -25 -70 -37 -172 -40 -216 -7 -50 37 -73 81 -73 141 0 95 38 150 121 175 50 14 130 -2 183 -38 21 -14 39 -24 41 -22 2 1 15 43 30 92 l27 89 -23 19 c-74 56 -252 83 -359 53z"/>
 <path d="M2907 9525 c-63 -23 -98 -55 -125 -113 -32 -70 -27 -153 12 -212 43 -66 112 -91 276 -103 l140 -10 -7 -26 c-21 -93 -152 -114 -297 -48 l-53 25 -32 -77 c-37 -90 -38 -89 74 -124 58 -18 93 -22 205 -22 152 1 198 14 260 76 70 70 75 94 78 382 l3 257 -111 0 -110 0 -7 -30 c-5 -28 -7 -29 -22 -16 -9 8 -37 24 -61 35 -54 24 -164 27 -223 6z m230 -146 c54 -20 73 -47 73 -106 l0 -54 -72 7 c-40 4 -85 13 -100 20 -52 27 -50 101 4 127 39 20 57 21 95 6z"/>
 <path d="M6145 9521 c-46 -21 -78 -53 -96 -96 -8 -19 -14 -103 -17 -227 l-4 -198 -49 0 -49 0 0 -90 0 -90 50 0 50 0 0 -95 0 -95 120 0 120 0 0 95 0 95 75 0 75 0 0 90 0 90 -75 0 -75 0 0 151 c0 83 4 159 10 169 12 23 46 31 91 21 l36 -8 7 66 c11 118 11 119 -31 130 -63 18 -192 13 -238 -8z"/>
 <path d="M6715 9527 c-105 -35 -177 -96 -219 -186 -18 -39 -21 -65 -21 -166 0 -108 3 -125 25 -170 33 -67 99 -131 168 -163 51 -23 69 -26 172 -27 104 0 121 3 171 26 117 55 178 153 187 300 l5 89 -252 0 -252 0 6 23 c18 61 96 117 165 117 46 0 134 -26 179 -52 l35 -20 18 24 c9 13 31 42 48 65 l30 41 -42 31 c-74 55 -140 74 -268 77 -77 3 -128 0 -155 -9z m250 -474 c-19 -46 -45 -69 -91 -82 -65 -18 -139 23 -163 90 l-10 29 140 0 139 0 -15 -37z"/>
 <path d="M8110 9518 c-30 -16 -53 -39 -70 -69 -24 -42 -25 -52 -28 -246 l-3 -203 -50 0 -49 0 0 -90 0 -90 50 0 50 0 0 -95 0 -95 115 0 115 0 0 95 0 95 80 0 80 0 0 90 0 90 -80 0 -80 0 1 133 c1 72 4 145 8 162 9 41 48 59 98 46 20 -6 38 -9 39 -8 1 1 4 43 6 94 5 78 3 93 -11 99 -9 3 -63 9 -121 11 -97 4 -109 3 -150 -19z"/>
 <path d="M3570 9175 l0 -355 120 0 120 0 0 36 0 36 40 -36 c46 -42 67 -48 141 -44 l54 3 -3 110 c-2 60 -5 111 -6 113 -2 1 -23 -3 -48 -9 -24 -7 -56 -9 -70 -6 -41 11 -86 55 -98 95 -5 20 -10 121 -10 225 l0 187 -120 0 -120 0 0 -355z"/>
 <path d="M4810 9035 l0 -495 121 0 121 0 -4 180 -3 179 30 -29 c45 -43 94 -60 179 -60 61 0 83 5 127 28 45 24 59 37 84 87 l30 59 3 273 3 273 -114 0 -115 0 -4 -223 c-3 -201 -6 -226 -24 -257 -37 -65 -119 -63 -168 3 -20 27 -21 43 -24 253 l-3 224 -120 0 -119 0 0 -495z"/>
 <path d="M5630 9175 l0 -355 115 0 115 0 0 355 0 355 -115 0 -115 0 0 -355z"/>
 <path d="M840 9030 l0 -490 70 0 70 0 0 196 0 197 44 -41 c49 -45 96 -62 172 -62 71 0 138 25 173 66 53 60 61 110 61 381 l0 243 -70 0 -70 0 0 -205 c0 -236 -8 -290 -51 -331 -26 -25 -38 -29 -84 -29 -60 0 -95 20 -132 74 -34 49 -43 117 -43 311 l0 180 -70 0 -70 0 0 -490z"/>
 <path d="M5672 8730 c-67 -41 -78 -137 -22 -190 52 -49 152 -47 199 4 30 32 39 102 18 143 -31 60 -131 82 -195 43z"/>
 <path d="M530 7432 c0 -5 844 -1664 1875 -3688 1437 -2819 1884 -3687 1910 -3711 29 -28 42 -33 81 -33 42 0 51 4 82 37 22 25 667 1276 1913 3712 1033 2021 1879 3678 1879 3683 0 4 -223 8 -495 8 l-495 0 -176 -352 c-161 -321 -182 -358 -235 -410 -67 -68 -174 -123 -265 -138 -86 -14 -4352 -13 -4430 1 -95 17 -181 64 -254 138 -61 62 -76 87 -240 413 l-175 348 -487 0 c-269 0 -488 -4 -488 -8z"/>
 <path d="M8400 7360 c0 -79 0 -80 -25 -80 -20 0 -25 -5 -25 -25 0 -25 1 -25 80 -25 79 0 80 0 80 25 0 20 -5 25 -25 25 -25 0 -25 1 -25 80 l0 80 -30 0 -30 0 0 -80z"/>
 <path d="M8513 7373 c4 -37 7 -85 7 -106 0 -38 0 -38 37 -35 35 3 38 6 52 51 8 26 17 47 21 47 3 0 12 -22 19 -50 12 -48 14 -50 46 -50 38 0 39 2 50 138 l5 72 -30 0 c-30 0 -30 0 -31 -57 l-1 -58 -17 55 c-14 46 -21 55 -43 58 -23 3 -27 -2 -39 -50 l-14 -53 -5 50 c-5 46 -7 50 -34 53 l-29 4 6 -69z"/>
 </g>

</svg>