<?xml version="1.0" encoding="UTF-8"?>
<!-- Generator: Adobe Illustrator 14.0.0, SVG Export Plug-In . SVG Version: 6.00 Build 43363)  -->
<!DOCTYPE svg PUBLIC "-//W3C//DTD SVG 1.1//EN" "http://www.w3.org/Graphics/SVG/1.1/DTD/svg11.dtd">
<svg version="1.1" id="Layer_1" xmlns="http://www.w3.org/2000/svg" xmlns:xlink="http://www.w3.org/1999/xlink" x="0px" y="0px" width="174px" height="160px" viewBox="0 0 174 160" enable-background="new 0 0 174 160" xml:space="preserve">
<g>
	<path fill="none" d="M28.289,117.89c-0.778-0.519-1.997-0.778-3.657-0.778h-3.113v7.264h3.554c1.694,0,2.849-0.324,3.463-0.973   c0.614-0.648,0.921-1.6,0.921-2.854S29.066,118.408,28.289,117.89z"/>
	<path fill="none" d="M50.131,121.133c-1.141,0-2.183,0.397-3.126,1.192c-0.943,0.796-1.414,1.902-1.414,3.32   c0,0.225,0.008,0.39,0.026,0.493l7.652-3.294C52.682,121.703,51.636,121.133,50.131,121.133z"/>
	<path fill="none" d="M132.46,121.055c-1.263,0-2.305,0.419-3.126,1.258s-1.232,1.924-1.232,3.256c0,1.331,0.411,2.417,1.232,3.255   c0.821,0.84,1.863,1.259,3.126,1.259c1.262,0,2.304-0.419,3.125-1.259c0.821-0.838,1.232-1.924,1.232-3.255   c0-1.332-0.411-2.417-1.232-3.256S133.722,121.055,132.46,121.055z"/>
	<path fill="none" d="M85.542,121.003c-1.159,0-2.153,0.44-2.983,1.322c-0.83,0.883-1.245,1.985-1.245,3.308   c0,1.323,0.423,2.399,1.271,3.229c0.847,0.83,1.842,1.245,2.983,1.245c1.142,0,2.11-0.419,2.905-1.258   c0.796-0.839,1.193-1.915,1.193-3.229s-0.397-2.412-1.193-3.295C87.678,121.443,86.7,121.003,85.542,121.003z"/>
	<path fill="none" d="M148.409,121.003c-1.159,0-2.136,0.437-2.932,1.31s-1.193,1.968-1.193,3.281c0,1.314,0.397,2.392,1.193,3.229   c0.796,0.839,1.764,1.259,2.905,1.259s2.136-0.416,2.983-1.246c0.847-0.829,1.271-1.906,1.271-3.229   c0-1.323-0.415-2.422-1.245-3.295S149.567,121.003,148.409,121.003z"/>
	<path fill="none" d="M67.985,96.379c0-0.357,0.218-0.665,0.528-0.796C68.203,95.714,67.985,96.021,67.985,96.379z"/>
	<path fill="none" d="M67.935,97.8c-0.02,0.314-0.042,0.628-0.072,0.939c-0.646,0.549-1.269,1.127-1.866,1.729   c0.598-0.602,1.22-1.18,1.867-1.729C67.893,98.428,67.915,98.114,67.935,97.8z"/>
	<path fill="#27245D" d="M56.564,124.115c-0.018-1.677-0.648-3.039-1.894-4.085c-1.245-1.047-2.811-1.57-4.695-1.57   c-1.193,0-2.326,0.264-3.398,0.792c-1.073,0.527-1.972,1.349-2.698,2.464c-0.727,1.115-1.09,2.408-1.09,3.878   c0,2.127,0.701,3.839,2.101,5.137c1.401,1.297,3.078,1.945,5.033,1.945c2.231,0,4.167-0.847,5.811-2.542l-1.712-1.894   c-1.003,1.21-2.278,1.815-3.826,1.815s-2.771-0.554-3.67-1.66l10.065-4.229L56.564,124.115z M45.618,126.139   c-0.018-0.104-0.026-0.269-0.026-0.493c0-1.418,0.471-2.524,1.414-3.32c0.943-0.795,1.985-1.192,3.126-1.192   c1.504,0,2.551,0.57,3.139,1.712L45.618,126.139z"/>
	<path fill="#27245D" d="M39.458,119.316c-0.805,0.554-1.44,1.263-1.907,2.127v-2.775h-2.905v13.801h2.905v-5.915   c0-1.573,0.363-2.827,1.089-3.762c0.726-0.934,1.807-1.4,3.243-1.4h0.156l-0.026-2.932   C41.113,118.478,40.262,118.763,39.458,119.316z"/>
	<path fill="#27245D" d="M66.977,125.438c-0.467-0.312-0.904-0.554-1.31-0.727c-0.407-0.173-0.826-0.328-1.258-0.467   c-0.433-0.138-0.93-0.276-1.492-0.415s-0.999-0.285-1.31-0.441c-0.45-0.207-0.674-0.536-0.674-0.985   c0-0.501,0.216-0.878,0.648-1.129c0.432-0.25,0.994-0.375,1.686-0.375c1.314,0,2.534,0.372,3.658,1.115l1.089-2.153   c-1.418-0.934-2.923-1.401-4.514-1.401s-2.884,0.386-3.878,1.155c-0.995,0.769-1.492,1.794-1.492,3.073   c0,1.816,1.436,3.112,4.306,3.891c0.069,0.018,0.173,0.053,0.312,0.104c1.833,0.554,2.75,1.176,2.75,1.868   c0,0.467-0.19,0.852-0.571,1.154c-0.38,0.302-0.899,0.453-1.556,0.453c-1.505,0-3.061-0.604-4.669-1.815l-1.401,2.257   c0.83,0.657,1.786,1.167,2.867,1.53c1.081,0.363,2.123,0.545,3.125,0.545c1.487,0,2.707-0.394,3.658-1.181   c0.951-0.786,1.427-1.837,1.427-3.151S67.911,126.062,66.977,125.438z"/>
	<path fill="#27245D" d="M30.701,115.919c-1.263-1.056-3.269-1.583-6.018-1.583h-6.226v18.132h3.061v-5.317h3.217   c2.663,0,4.639-0.51,5.927-1.53c1.288-1.021,1.933-2.629,1.933-4.825C32.595,118.6,31.963,116.974,30.701,115.919z M28.535,123.402   c-0.614,0.648-1.769,0.973-3.463,0.973h-3.554v-7.264h3.113c1.66,0,2.879,0.26,3.657,0.778s1.167,1.405,1.167,2.659   S29.149,122.754,28.535,123.402z"/>
	<path fill="#27245D" d="M75.176,130.159c-0.623,0-1.106-0.194-1.452-0.584c-0.346-0.389-0.519-0.911-0.519-1.568v-7.005h3.632   v-2.334h-3.632v-4.332h-2.905v13.593c0,1.453,0.437,2.606,1.31,3.463c0.873,0.856,1.928,1.284,3.165,1.284s2.365-0.458,3.385-1.375   l-1.193-2.05C76.396,129.857,75.799,130.159,75.176,130.159z"/>
	<path fill="#27245D" d="M89.614,121.055c-1.176-1.729-2.672-2.595-4.487-2.595c-1.816,0-3.39,0.641-4.721,1.92   c-1.332,1.28-1.998,2.992-1.998,5.137c0,2.144,0.649,3.873,1.946,5.188s2.819,1.972,4.565,1.972c0.864,0,1.725-0.212,2.581-0.636   c0.856-0.424,1.561-1.033,2.114-1.829v2.258h2.905v-13.801h-2.905V121.055z M88.473,128.85c-0.795,0.839-1.763,1.258-2.905,1.258   c-1.141,0-2.136-0.415-2.983-1.245c-0.848-0.83-1.271-1.906-1.271-3.229c0-1.322,0.415-2.425,1.245-3.308   c0.83-0.882,1.825-1.322,2.983-1.322c1.158,0,2.136,0.44,2.931,1.322c0.796,0.883,1.193,1.98,1.193,3.295   S89.269,128.011,88.473,128.85z"/>
	<path fill="#E2066F" d="M132.46,118.46c-2.076,0-3.805,0.688-5.188,2.063s-2.075,3.058-2.075,5.046c0,1.989,0.691,3.67,2.075,5.045   s3.112,2.063,5.188,2.063c2.075,0,3.804-0.688,5.188-2.063s2.075-3.056,2.075-5.045c0-1.988-0.691-3.671-2.075-5.046   S134.535,118.46,132.46,118.46z M135.585,128.823c-0.821,0.84-1.863,1.259-3.125,1.259c-1.263,0-2.305-0.419-3.126-1.259   c-0.821-0.838-1.232-1.924-1.232-3.255c0-1.332,0.411-2.417,1.232-3.256s1.863-1.258,3.126-1.258c1.262,0,2.304,0.419,3.125,1.258   s1.232,1.924,1.232,3.256C136.817,126.899,136.406,127.985,135.585,128.823z"/>
	<path fill="#E2066F" d="M153.571,120.38c-1.315-1.279-2.897-1.92-4.747-1.92c-1.852,0-3.347,0.874-4.488,2.621v-2.413h-2.905V137.5   h2.905v-7.107c1.384,1.522,2.944,2.283,4.683,2.283c1.737,0,3.26-0.666,4.565-1.997c1.306-1.332,1.958-3.062,1.958-5.188   S154.885,121.66,153.571,120.38z M151.366,128.836c-0.848,0.83-1.842,1.246-2.983,1.246s-2.109-0.42-2.905-1.259   c-0.796-0.838-1.193-1.915-1.193-3.229c0-1.313,0.397-2.408,1.193-3.281s1.772-1.31,2.932-1.31c1.158,0,2.152,0.437,2.982,1.31   s1.245,1.972,1.245,3.295C152.637,126.93,152.213,128.007,151.366,128.836z"/>
	<path fill="#E2066F" d="M118.433,118.46c-0.969,0-1.872,0.243-2.711,0.727c-0.839,0.484-1.466,1.15-1.881,1.998v-7.938h-2.905   v19.223h2.905v-7.471c0-1.28,0.372-2.253,1.115-2.919c0.744-0.666,1.617-0.999,2.62-0.999c2.109,0,3.165,1.271,3.165,3.813v7.575   h2.905v-8.457c0-1.799-0.479-3.173-1.439-4.124S119.988,118.46,118.433,118.46z"/>
	<path fill="#E2066F" d="M103.26,121.858c-1.859-0.449-3.074-0.869-3.646-1.258c-0.57-0.389-0.855-0.951-0.855-1.687   c0-0.734,0.285-1.284,0.855-1.646c0.571-0.363,1.302-0.545,2.192-0.545s1.794,0.155,2.711,0.467   c0.916,0.311,1.643,0.709,2.179,1.193l1.634-2.309c-0.829-0.691-1.815-1.229-2.957-1.608c-1.141-0.38-2.291-0.57-3.449-0.57   c-1.799,0-3.308,0.454-4.527,1.361c-1.219,0.908-1.828,2.201-1.828,3.878c0,1.678,0.535,2.923,1.608,3.735   c0.535,0.433,1.149,0.783,1.841,1.051c0.692,0.269,1.704,0.563,3.036,0.882c1.331,0.32,2.27,0.675,2.813,1.063   c0.545,0.389,0.817,0.934,0.817,1.635c0,0.7-0.29,1.263-0.869,1.686c-0.579,0.424-1.361,0.636-2.348,0.636   c-1.971,0-3.873-0.795-5.706-2.387l-1.92,2.309c2.196,1.955,4.713,2.932,7.549,2.932c1.937,0,3.502-0.493,4.695-1.479   c1.192-0.986,1.789-2.27,1.789-3.853c0-1.582-0.471-2.779-1.413-3.593C106.519,122.939,105.118,122.309,103.26,121.858z"/>
	<path fill="#9FDAE7" d="M112.771,62.149c0.349,0,0.632,0.484,0.632,1.082C113.403,62.633,113.12,62.149,112.771,62.149z"/>
	<path fill="#9FDAE7" d="M114.201,63.377c-0.1-0.327-0.234-0.615-0.395-0.855c0.16,0.24,0.295,0.529,0.394,0.856   c0.014,0.043,0.028,0.085,0.041,0.128c-0.013-0.043-0.026-0.084-0.04-0.128v0V63.377z"/>
	<path fill="#9FDAE7" d="M111.21,63.418c0.004-0.014,0.009-0.026,0.013-0.039l1.489-6.82v-0.014l-1.49,6.82   C111.217,63.382,111.215,63.402,111.21,63.418z"/>
	<path fill="#9FDAE7" d="M111.223,63.379c0.099-0.328,0.234-0.617,0.394-0.857C111.456,62.763,111.321,63.052,111.223,63.379z"/>
	<path fill="#9FDAE7" d="M112.771,62.149c-0.348,0-0.631,0.484-0.631,1.082C112.141,62.633,112.424,62.149,112.771,62.149z"/>
	<polygon fill="#9FDAE7" points="113.738,53.65 113.742,53.655 113.738,53.649  "/>
	<path fill="#9FDAE7" d="M95.132,74.345c0.399-0.414,0.79-0.825,1.163-1.229c2.064-2.241,3.718-4.374,4.928-6.817   c-1.21,2.443-2.863,4.576-4.928,6.817C95.922,73.52,95.531,73.93,95.132,74.345z"/>
	<path fill="#9FDAE7" d="M98.887,77.631c2.623-4.427,4.334-7.858,3.93-12.799C103.221,69.773,101.509,73.204,98.887,77.631z"/>
	<polygon fill="#9FDAE7" points="101.074,57.958 101.072,57.961 101.068,57.971 101.073,57.961  "/>
	<polygon fill="#9FDAE7" points="112.712,56.545 112.712,52.671 112.712,52.669 112.711,52.657  "/>
	<path fill="#9FDAE7" d="M101.077,57.955c0.037-0.075,0.075-0.147,0.113-0.222c0.817-1.625,1.828-3.235,3.136-4.515   c-1.308,1.279-2.318,2.89-3.136,4.514l-0.01,0.009C101.146,57.811,101.111,57.883,101.077,57.955L101.077,57.955   c0.252,0.218,0.501,0.439,0.747,0.664C101.578,58.394,101.329,58.172,101.077,57.955z"/>
	<path fill="#9FDAE7" d="M100.161,83.015c0.804,0.062,1.644,0.101,2.514,0.111C101.805,83.115,100.965,83.076,100.161,83.015z"/>
	<path fill="#9FDAE7" d="M92.981,64.689c0,0.543-0.11,1.062-0.31,1.533C92.871,65.751,92.981,65.233,92.981,64.689z"/>
	<path fill="#9FDAE7" d="M114.395,64.685c0-0.031-0.005-0.06-0.006-0.091c0,0.035,0.006,0.067,0.006,0.102   C114.395,64.692,114.395,64.688,114.395,64.685z"/>
	<path fill="#9FDAE7" d="M114.357,64.096c-0.001-0.007-0.003-0.013-0.004-0.02c-0.001-0.011-0.005-0.021-0.006-0.033   c0.002,0.019,0.007,0.036,0.01,0.055C114.357,64.098,114.357,64.097,114.357,64.096z"/>
	<path fill="#9FDAE7" d="M60.561,68.871c0.216-0.565,0.453-1.124,0.702-1.676c0.022-0.049,0.045-0.097,0.067-0.146   c-0.022,0.048-0.045,0.096-0.067,0.145C61.014,67.747,60.777,68.305,60.561,68.871z"/>
	<path fill="#9FDAE7" d="M91.102,78.271c0.298-0.837,0.637-1.66,0.995-2.474C91.738,76.61,91.399,77.433,91.102,78.271z"/>
	<path fill="#9FDAE7" d="M101.082,57.987c0.521,1.498,1.112,3.015,1.416,4.576c-0.011,0.105-0.021,0.214-0.031,0.326   c0.015-0.089,0.029-0.176,0.044-0.274c0.078,0.413,0.144,0.815,0.196,1.208c-0.053-0.392-0.118-0.795-0.196-1.208   c-0.302-1.583-0.904-3.121-1.433-4.64C101.079,57.979,101.08,57.983,101.082,57.987L101.082,57.987z"/>
	<path fill="#9FDAE7" d="M104.326,53.218c0.354-0.345,0.745-0.667,1.161-0.955C105.071,52.552,104.68,52.873,104.326,53.218z"/>
	<path fill="#9FDAE7" d="M107.542,64.546c0.04,0.045,0.079,0.091,0.118,0.136h0.01C107.652,64.662,107.607,64.614,107.542,64.546   L107.542,64.546z"/>
	<path fill="#9FDAE7" d="M111.028,64.682h0.002c0-0.018,0.001-0.036,0.003-0.053C111.031,64.646,111.028,64.664,111.028,64.682z"/>
	<path fill="#9FDAE7" d="M114.258,65.845l-0.006,0.006c-0.038,0.147-0.082,0.288-0.134,0.421   C114.172,66.136,114.219,65.995,114.258,65.845z"/>
	<path fill="#9FDAE7" d="M114.395,64.708c0-0.004,0-0.008,0-0.012c0,0.038-0.006,0.072-0.007,0.11   C114.389,64.772,114.394,64.742,114.395,64.708z"/>
	<path fill="#9FDAE7" d="M114.84,73.756c-0.003-0.004-0.007-0.009-0.009-0.013c-0.558-0.748-1.118-1.495-1.685-2.239   c0.566,0.745,1.127,1.492,1.684,2.239C114.833,73.747,114.836,73.751,114.84,73.756z"/>
	<path fill="#9FDAE7" d="M102.461,62.929c-0.025,0.15-0.051,0.287-0.076,0.41C102.41,63.217,102.436,63.078,102.461,62.929z"/>
	<polygon fill="#9FDAE7" points="101.075,57.968 101.073,57.961 101.073,57.962  "/>
	<path fill="#9FDAE7" d="M70.192,55.878c1.407-1.046,2.919-1.949,4.517-2.678c0.993-0.454,2.025-0.819,3.072-1.132   c-1.047,0.313-2.079,0.678-3.072,1.131C73.111,53.929,71.599,54.832,70.192,55.878z"/>
	<path fill="#9FDAE7" d="M67.186,58.493c0.083-0.083,0.167-0.164,0.251-0.246C67.353,58.329,67.268,58.41,67.186,58.493   c-0.421,0.424-0.828,0.862-1.221,1.313c-0.085,0.098-0.169,0.198-0.253,0.298c0.084-0.099,0.168-0.2,0.254-0.298   C66.358,59.355,66.765,58.917,67.186,58.493z"/>
	<path fill="#9FDAE7" d="M95.769,54.073c0.007,0.004,0.015,0.009,0.022,0.013c0.275,0.156,0.572,0.326,0.769,0.438   c-0.193-0.111-0.491-0.281-0.769-0.439C95.783,54.082,95.775,54.078,95.769,54.073z"/>
	<path fill="#9FDAE7" d="M85.616,62.747c0.193-0.338,0.435-0.646,0.715-0.912l0.014-0.004l-0.014,0.003   C86.05,62.102,85.809,62.409,85.616,62.747z"/>
	<path fill="#9FDAE7" d="M90.521,61.039c-0.226-0.092-0.461-0.164-0.705-0.212C90.06,60.875,90.295,60.947,90.521,61.039   c0.004,0.001,0.008,0.003,0.011,0.004c0.216,0.089,0.421,0.199,0.616,0.323c-0.195-0.124-0.399-0.235-0.615-0.324   C90.527,61.042,90.523,61.04,90.521,61.039z"/>
	<path fill="#9FDAE7" d="M89.063,51.578L89.063,51.578c0-0.014-0.001-0.022-0.001-0.022S89.063,51.563,89.063,51.578z"/>
	<polygon fill="#9FDAE7" points="74.917,64.654 86.331,61.834 74.916,64.654  "/>
	<path fill="#9FDAE7" d="M89.869,61.463c0.394,0.266,0.652,0.716,0.652,1.227c0,0,0,0,0,0   C90.521,62.179,90.263,61.729,89.869,61.463z"/>
	<path fill="#9FDAE7" d="M92.979,64.662l0.002,0c0-0.002-0.001-0.004-0.001-0.007h0.001h0.007l-0.011-0.022   C92.979,64.642,92.979,64.652,92.979,64.662z"/>
	<path fill="#9FDAE7" d="M105.372,83.064c-0.927,0.054-1.827,0.072-2.697,0.062C103.545,83.137,104.445,83.118,105.372,83.064z"/>
	<path fill="#9FDAE7" d="M91.102,78.271c-0.027,0.078-0.056,0.158-0.084,0.237c0,0,0,0,0,0   C91.046,78.428,91.074,78.348,91.102,78.271z"/>
	<path fill="#9FDAE7" d="M85.782,66.888c0.126,0.186,0.263,0.364,0.418,0.526c0.268,0.279,0.576,0.519,0.916,0.71   c-0.339-0.191-0.647-0.431-0.916-0.71C86.045,67.252,85.908,67.074,85.782,66.888z"/>
	<path fill="#9FDAE7" d="M88.213,61.463c-0.394,0.266-0.652,0.716-0.652,1.227c0,0,0,0,0,0   C87.561,62.179,87.819,61.729,88.213,61.463z"/>
	<path fill="#9FDAE7" d="M91.244,67.956c0.419-0.283,0.781-0.645,1.064-1.064C92.024,67.311,91.663,67.672,91.244,67.956z"/>
	<path fill="#9FDAE7" d="M85.431,63.115c0.005-0.012,0.012-0.022,0.017-0.034c0.049-0.11,0.103-0.218,0.162-0.322   c-0.059,0.104-0.112,0.212-0.162,0.321C85.442,63.092,85.436,63.103,85.431,63.115z"/>
	<path fill="#9FDAE7" d="M85.289,63.489c0.007-0.021,0.016-0.041,0.022-0.061c0.036-0.106,0.074-0.211,0.119-0.313   c-0.045,0.102-0.083,0.207-0.119,0.313C85.304,63.448,85.296,63.468,85.289,63.489z"/>
	<path fill="#9FDAE7" d="M69.696,87.963c-4.863-3.581-8.586-8.622-10.508-14.483c0.186-0.863,0.409-1.72,0.669-2.568   c0.203-0.662,0.428-1.317,0.674-1.966c-0.246,0.648-0.471,1.304-0.674,1.965c-0.259,0.849-0.483,1.706-0.669,2.569   c-0.001,0.005-0.002,0.011-0.003,0.017c-0.947-2.86-1.458-5.935-1.458-9.127c0-16.197,13.13-29.327,29.327-29.327   c12.913,0,23.876,8.345,27.792,19.937l0.05,0.198v0c-0.019-0.056-0.034-0.112-0.053-0.167c0.019,0.056,0.034,0.112,0.052,0.167v0   c0.958,2.896,1.486,5.987,1.486,9.204v0.002c0,0.1-0.006,0.199-0.007,0.299h-1.08l-0.01,0.012l0.01-0.011h1.08h0.007   c-0.033,3.172-0.572,6.222-1.538,9.077c2.484,3.336,4.135,5.761,4.135,5.761c-4.748,2.333-9.436,3.302-13.604,3.545   c4.169-0.243,8.856-1.212,13.604-3.544c0,0-5.625,5.746-12.343,8.994c-0.196,0.095-0.391,0.195-0.589,0.285   c-0.056,0.025-0.111,0.047-0.167,0.071c3.104,1.896,5.96,4.265,8.431,7.098c8.879-7.668,14.507-18.999,14.507-31.652   C128.815,41.222,110.094,22.5,87,22.5c-23.094,0-41.815,18.722-41.815,41.815c0,12.653,5.627,23.984,14.507,31.652   c0.443-0.508,0.898-1.001,1.364-1.479C63.625,91.853,66.548,89.675,69.696,87.963z"/>
	<path fill="#9FDAE7" d="M85.741,66.835c-0.133-0.204-0.249-0.421-0.343-0.649c0-0.001-0.001-0.003-0.001-0.004   c0,0.001,0,0.003,0.001,0.004C85.492,66.414,85.607,66.63,85.741,66.835z"/>
	
		<rect x="101.065" y="57.98" transform="matrix(0.719 0.695 -0.695 0.719 68.7009 -53.956)" fill="#9FDAE7" width="0.02" height="0"/>
	<path fill="#9FDAE7" d="M92.777,63.444c-0.041-0.121-0.087-0.24-0.139-0.355c-0.001-0.002-0.002-0.004-0.003-0.007   c0.001,0.002,0.003,0.004,0.003,0.007C92.691,63.204,92.736,63.323,92.777,63.444z"/>
	<path fill="#9FDAE7" d="M85.137,64.184c-0.004,0.031-0.011,0.062-0.014,0.094c-0.014,0.135-0.021,0.272-0.021,0.411l0,0   c0-0.139,0.008-0.275,0.022-0.411C85.126,64.246,85.134,64.216,85.137,64.184c0.014-0.103,0.028-0.206,0.049-0.307   c0.003-0.015,0.007-0.029,0.011-0.043c-0.004,0.015-0.008,0.029-0.011,0.043C85.165,63.978,85.151,64.081,85.137,64.184z"/>
	<path fill="#9FDAE7" d="M92.793,63.497c-0.005-0.015-0.008-0.03-0.013-0.045c-0.001-0.003-0.002-0.005-0.003-0.008   c0.001,0.003,0.002,0.005,0.003,0.009C92.785,63.467,92.788,63.482,92.793,63.497z"/>
	<path fill="#525453" d="M76.553,91.726c-0.224-0.086-0.439-0.189-0.66-0.281l-0.845,2.787c1.434-0.634,2.928-1.156,4.47-1.559   c-0.728-0.194-1.448-0.409-2.153-0.656C77.093,91.922,76.82,91.828,76.553,91.726z"/>
	<path fill="#525453" d="M67.935,97.8c0.03-0.471,0.051-0.944,0.051-1.421c0-0.357,0.218-0.665,0.528-0.796   c0.104-0.044,0.218-0.068,0.337-0.068h0h0.76l1.913-6.313c-0.417-0.264-0.829-0.536-1.232-0.818   c-0.146-0.102-0.298-0.195-0.441-0.299c-0.053-0.038-0.102-0.083-0.154-0.121c-3.147,1.712-6.07,3.89-8.64,6.525   c-0.466,0.479-0.921,0.972-1.364,1.479c1.953,1.686,4.062,3.194,6.305,4.5c0.598-0.602,1.22-1.18,1.866-1.729   C67.893,98.428,67.915,98.114,67.935,97.8z"/>
	<path fill="#525453" d="M105.878,88.87c-0.596,0.266-1.199,0.505-1.805,0.723c-0.447,0.161-0.896,0.302-1.347,0.433l1.663,5.489   h0.759c0.479,0,0.866,0.388,0.866,0.864c0,0.795,0.046,1.581,0.122,2.36c0.647,0.549,1.27,1.127,1.867,1.729   c2.242-1.306,4.352-2.814,6.305-4.5C111.838,93.135,108.982,90.767,105.878,88.87z"/>
	<path fill="#525453" d="M94.536,92.688c1.522,0.4,2.999,0.916,4.416,1.543l-0.83-2.738c-0.038,0.017-0.076,0.034-0.115,0.05   C96.883,91.996,95.723,92.375,94.536,92.688z"/>
	<path fill="#231F20" d="M65.996,100.468c0.486,0.283,0.977,0.559,1.475,0.822c0.174-0.838,0.308-1.688,0.392-2.551   C67.216,99.288,66.594,99.866,65.996,100.468z"/>
	<path fill="#231F20" d="M106.529,101.29c0.498-0.264,0.988-0.539,1.475-0.822c-0.598-0.602-1.22-1.18-1.867-1.729   C106.222,99.602,106.354,100.452,106.529,101.29z"/>
	<path fill="#231F20" d="M94.536,92.688c-2.39,0.631-4.895,0.977-7.483,0.977c-2.607,0-5.13-0.352-7.536-0.992   c-1.542,0.402-3.036,0.925-4.47,1.559l-0.389,1.283h6.448H87h0h5.892h6.448l-0.389-1.283   C97.535,93.604,96.059,93.089,94.536,92.688z"/>
	<path fill="#A99578" d="M75.893,91.444c-1.031-0.427-2.038-0.898-3.006-1.435c-0.463-0.256-0.917-0.527-1.362-0.809l-1.913,6.313   h2.879h2.169l0.389-1.283L75.893,91.444z"/>
	<path fill="#A99578" d="M100.148,90.578c-0.249,0.125-0.502,0.241-0.755,0.358c-0.282,0.131-0.568,0.257-0.855,0.379   c-0.139,0.06-0.276,0.119-0.416,0.178l0.83,2.738l0.389,1.283h2.169h2.88l-1.663-5.489   C101.868,90.275,101.006,90.471,100.148,90.578z"/>
	<path fill="#BFB098" d="M87,97.245h-6.152h-6.713h-4.356h0h-0.076c0,0.019-0.003,0.037-0.003,0.057   c-0.058,1.634-0.276,3.235-0.631,4.794c5.435,2.585,11.513,4.035,17.932,4.035V97.245z"/>
	<polygon fill="#BFB098" points="87,106.131 87,106.131 87,106.131  "/>
	<path fill="#A99578" d="M104.298,97.245h-0.076h-4.356h-6.714H87h0h0v8.886l0,0c0,0,0,0,0,0l0,0c6.419,0,12.497-1.45,17.933-4.035   c-0.355-1.559-0.574-3.16-0.632-4.794C104.3,97.282,104.298,97.264,104.298,97.245z"/>
	<path fill="#8A7461" d="M69.702,97.245h0.076h0h4.356h6.713H87h0h0h6.151h6.714h4.356h0.076c0,0.019,0.002,0.037,0.003,0.057   c0.058,1.634,0.276,3.235,0.632,4.794c0.539-0.256,1.07-0.527,1.597-0.806c-0.175-0.838-0.308-1.688-0.393-2.551   c-0.076-0.779-0.122-1.565-0.122-2.36c0-0.477-0.388-0.864-0.866-0.864h-0.759h-2.88h-2.169h-6.448H87h0h-5.893h-6.448H72.49   h-2.879h-0.76h0c-0.119,0-0.233,0.024-0.337,0.068c-0.31,0.131-0.528,0.438-0.528,0.796c0,0.477-0.021,0.95-0.051,1.421   c-0.02,0.314-0.042,0.628-0.072,0.939c-0.084,0.862-0.218,1.713-0.392,2.551c0.526,0.278,1.057,0.55,1.597,0.806   c0.355-1.559,0.574-3.16,0.631-4.794C69.699,97.282,69.702,97.264,69.702,97.245z"/>
	<rect x="114.201" y="63.379" fill="#BABBBD" width="0" height="0.001"/>
	<path fill="#BABBBD" d="M114.841,55.01c-0.007-0.009-0.014-0.018-0.021-0.027c-0.347-0.482-0.705-0.923-1.073-1.323   c-0.001,0-0.002-0.001-0.002-0.002c0,0.001,0.001,0.002,0.002,0.003c-0.001-0.001-0.002-0.002-0.002-0.003   c-0.001-0.001-0.001-0.001-0.002-0.002v0c0,0,0,0-0.001,0c-0.001-0.002-0.002-0.004-0.004-0.005   c-0.168-0.181-0.336-0.354-0.507-0.518c-0.064-0.062-0.131-0.116-0.196-0.175c-0.107-0.098-0.214-0.198-0.323-0.288v0.002v3.875   v0.014l1.489,6.819v0v0c0.014,0.043,0.027,0.085,0.04,0.128c0.003,0.01,0.007,0.019,0.01,0.029l1.032,1.157l0.01-0.012h1.08   c0.001-0.1,0.007-0.199,0.007-0.299v-0.002c0-3.217-0.528-6.308-1.486-9.204v0C114.876,55.122,114.86,55.066,114.841,55.01   L114.841,55.01L114.841,55.01z"/>
	<path fill="#676A6A" d="M114.252,63.54c0.041,0.161,0.072,0.33,0.096,0.504c0.001,0.011,0.005,0.021,0.006,0.033   c0.001,0.006,0.003,0.013,0.004,0.02c0,0,0,0.001,0,0.002c0.02,0.16,0.027,0.327,0.031,0.495c0.001,0.031,0.006,0.06,0.006,0.091   c0,0.004,0,0.007,0,0.011c0,0.004,0,0.008,0,0.012c-0.001,0.034-0.006,0.064-0.007,0.098c-0.003,0.165-0.011,0.328-0.029,0.485   c-0.004,0.021-0.009,0.042-0.012,0.063c-0.023,0.171-0.054,0.337-0.094,0.495c0,0.001-0.001,0.001-0.001,0.002l0.006-0.006   c0.001-0.002,0.002-0.005,0.002-0.007l1.023-1.144l-1.032-1.157C114.251,63.538,114.252,63.539,114.252,63.54z"/>
	<path fill="#231F20" d="M113.807,62.522c-0.021-0.032-0.043-0.063-0.065-0.093c-0.044-0.059-0.089-0.117-0.136-0.168   c-0.068-0.076-0.141-0.144-0.216-0.201c-0.028-0.022-0.06-0.037-0.089-0.056c-0.064-0.042-0.132-0.079-0.2-0.107   c-0.029-0.012-0.06-0.024-0.089-0.033c-0.098-0.03-0.197-0.052-0.3-0.052s-0.202,0.021-0.3,0.052   c-0.03,0.009-0.06,0.021-0.089,0.033c-0.069,0.028-0.136,0.065-0.201,0.107c-0.029,0.019-0.06,0.034-0.088,0.056   c-0.076,0.058-0.148,0.125-0.217,0.201c-0.047,0.051-0.091,0.109-0.135,0.167c-0.022,0.03-0.045,0.062-0.066,0.094   c-0.159,0.24-0.295,0.529-0.394,0.857c-0.004,0.013-0.009,0.025-0.013,0.039c-0.043,0.15-0.077,0.309-0.105,0.471   c-0.009,0.05-0.021,0.097-0.027,0.148c-0.026,0.182-0.039,0.371-0.042,0.565c0,0.009-0.001,0.018-0.002,0.026   c-0.002,0.018-0.003,0.035-0.003,0.053h0.006h0.001c0,1.394,0.576,2.556,1.344,2.825c0.109,0.039,0.223,0.059,0.339,0.059   c0.16,0,0.314-0.042,0.46-0.114c0.023-0.012,0.047-0.023,0.07-0.037c0.061-0.035,0.12-0.073,0.178-0.119   c0.031-0.025,0.062-0.056,0.092-0.085c0.074-0.069,0.145-0.147,0.212-0.235c0.046-0.061,0.092-0.122,0.134-0.19   c0.027-0.043,0.053-0.091,0.078-0.137c0.047-0.086,0.091-0.177,0.131-0.273c0.016-0.034,0.03-0.068,0.044-0.104   c0.052-0.133,0.096-0.273,0.134-0.421c0,0,0.001-0.001,0.001-0.002c0.04-0.158,0.07-0.324,0.094-0.495   c0.003-0.021,0.008-0.042,0.012-0.063c0.019-0.157,0.026-0.32,0.029-0.485c0.001-0.038,0.007-0.072,0.007-0.11   c0-0.035-0.006-0.067-0.006-0.102c-0.004-0.168-0.012-0.335-0.031-0.495c-0.003-0.019-0.008-0.036-0.01-0.055   c-0.023-0.174-0.055-0.344-0.096-0.504c0-0.001-0.001-0.002-0.001-0.003c-0.003-0.01-0.007-0.019-0.01-0.029   c-0.013-0.043-0.027-0.085-0.041-0.128C114.102,63.052,113.967,62.763,113.807,62.522z M112.771,64.312   c-0.348,0-0.631-0.484-0.631-1.082c0-0.598,0.283-1.082,0.631-1.082c0.349,0,0.632,0.484,0.632,1.082   C113.403,63.828,113.12,64.312,112.771,64.312z"/>
	<ellipse fill="#FFFFFF" cx="112.771" cy="63.23" rx="0.631" ry="1.082"/>
	<path fill="#8F9293" d="M111.616,62.522c0.021-0.032,0.044-0.063,0.066-0.094c0.044-0.059,0.088-0.116,0.135-0.167   c0.068-0.076,0.141-0.144,0.217-0.201c0.028-0.022,0.059-0.037,0.088-0.056c0.065-0.042,0.132-0.079,0.201-0.107   c0.029-0.012,0.059-0.024,0.089-0.033c0.098-0.03,0.197-0.052,0.3-0.052s0.202,0.021,0.3,0.052c0.029,0.009,0.06,0.021,0.089,0.033   c0.068,0.028,0.136,0.065,0.2,0.107c0.029,0.019,0.061,0.034,0.089,0.056c0.075,0.058,0.147,0.125,0.216,0.201   c0.047,0.051,0.092,0.109,0.136,0.168c0.022,0.03,0.044,0.062,0.065,0.093c0.16,0.24,0.295,0.528,0.395,0.855c0,0,0,0,0,0.001   l-1.489-6.819l-1.489,6.82C111.321,63.052,111.456,62.763,111.616,62.522z"/>
	<polygon fill="#8F9293" points="114.201,63.379 114.201,63.378 114.201,63.379  "/>
	<path fill="#231F20" d="M92.951,64.226c0-0.002,0-0.004-0.001-0.005c-0.016-0.132-0.037-0.261-0.065-0.388   c-0.001-0.003-0.002-0.007-0.003-0.01c-0.024-0.11-0.056-0.218-0.089-0.325c-0.005-0.015-0.008-0.03-0.013-0.044   c-0.001-0.003-0.002-0.006-0.003-0.009c-0.041-0.121-0.086-0.24-0.139-0.355c0-0.003-0.002-0.005-0.003-0.007   c-0.052-0.116-0.109-0.229-0.172-0.339c-0.191-0.335-0.431-0.64-0.708-0.904c-0.186-0.177-0.391-0.333-0.608-0.472   c-0.195-0.124-0.4-0.234-0.616-0.323c-0.003-0.001-0.007-0.003-0.011-0.004c-0.226-0.092-0.461-0.164-0.705-0.213   c-0.006-0.001-0.012-0.002-0.019-0.003c-0.244-0.048-0.497-0.074-0.756-0.074c-0.254,0-0.502,0.026-0.742,0.072   c-0.009,0.001-0.018,0.002-0.025,0.004c-0.239,0.048-0.471,0.118-0.692,0.207c-0.006,0.002-0.012,0.004-0.018,0.006   c-0.225,0.092-0.439,0.204-0.641,0.333c-0.001,0-0.001,0.001-0.002,0.001c-0.204,0.131-0.394,0.28-0.57,0.445v0l-0.005,0.014   l-0.014,0.004c-0.281,0.266-0.522,0.574-0.715,0.912c-0.002,0.004-0.005,0.008-0.007,0.012c-0.059,0.104-0.112,0.212-0.162,0.322   c-0.005,0.012-0.012,0.022-0.017,0.034c-0.045,0.102-0.083,0.207-0.119,0.313c-0.007,0.021-0.016,0.04-0.022,0.061   c-0.031,0.099-0.057,0.2-0.081,0.302c-0.003,0.015-0.007,0.029-0.011,0.043c-0.004,0.015-0.008,0.029-0.011,0.043   c-0.021,0.101-0.036,0.204-0.049,0.307c-0.004,0.032-0.011,0.062-0.014,0.094c-0.014,0.135-0.022,0.272-0.022,0.411   c0,0.261,0.026,0.515,0.075,0.762c0.001,0.005,0.001,0.01,0.002,0.016c0.049,0.246,0.122,0.483,0.215,0.71   c0,0.002,0.001,0.004,0.002,0.006c0,0.001,0.001,0.002,0.001,0.004c0.094,0.228,0.209,0.445,0.343,0.649   c0.012,0.019,0.029,0.035,0.042,0.053c0.126,0.186,0.263,0.364,0.418,0.525c0.268,0.279,0.576,0.519,0.916,0.71   c0.001,0.001,0.003,0.002,0.005,0.003c0.106,0.06,0.215,0.113,0.327,0.163c0.009,0.004,0.018,0.009,0.027,0.013   c0.103,0.045,0.21,0.084,0.317,0.12c0.019,0.006,0.036,0.014,0.055,0.02c0.099,0.032,0.201,0.057,0.304,0.081   c0.028,0.006,0.055,0.016,0.083,0.021c0.1,0.021,0.202,0.035,0.306,0.048c0.031,0.004,0.062,0.011,0.093,0.014   c0.135,0.014,0.271,0.021,0.409,0.021c0.544,0,1.063-0.11,1.534-0.31c0.235-0.1,0.459-0.222,0.669-0.363   c0.419-0.283,0.78-0.645,1.064-1.064c0.142-0.21,0.263-0.434,0.363-0.669c0.199-0.471,0.31-0.99,0.31-1.533   c0-0.009-0.002-0.018-0.002-0.027c0-0.01-0.001-0.02-0.002-0.03C92.977,64.495,92.967,64.359,92.951,64.226z M90.521,62.69   c0,0.613-0.373,1.139-0.904,1.364c-0.177,0.075-0.372,0.116-0.576,0.116s-0.399-0.042-0.576-0.116   c-0.531-0.225-0.904-0.75-0.904-1.364l0,0c0,0,0,0,0,0c0-0.511,0.259-0.961,0.652-1.227c0.236-0.16,0.521-0.253,0.828-0.253   s0.592,0.093,0.828,0.253C90.263,61.729,90.521,62.179,90.521,62.69C90.521,62.69,90.521,62.69,90.521,62.69L90.521,62.69z"/>
	<path fill="#FFFFFF" d="M89.869,61.463c-0.236-0.16-0.521-0.253-0.828-0.253s-0.592,0.093-0.828,0.253   c-0.394,0.266-0.652,0.716-0.652,1.227l0,0c0,0.613,0.373,1.139,0.904,1.364c0.177,0.075,0.372,0.116,0.576,0.116   s0.399-0.042,0.576-0.116c0.531-0.225,0.904-0.75,0.904-1.364l0,0C90.521,62.179,90.263,61.729,89.869,61.463z"/>
	<path fill="#BABBBD" d="M86.331,61.834l0.014-0.003l0.005-0.014v0l0,0l2.714-8.298v-0.982v0c0-0.021,0-0.04,0-0.06   c0-0.06,0-0.117,0-0.175c0-0.056,0-0.115,0-0.167v-0.124V51.84v-0.104v-0.103v0v-0.055c0-0.015-0.001-0.022-0.001-0.022   c-1.511-0.31-3.064-0.48-4.655-0.48c-0.531,0-1.057,0.022-1.581,0.058c-0.077,0.005-0.153,0.01-0.229,0.016   c-1.634,0.124-3.247,0.45-4.817,0.919c-1.047,0.313-2.079,0.678-3.072,1.132c-1.598,0.729-3.11,1.632-4.517,2.678   c-0.469,0.349-0.926,0.714-1.371,1.094c-0.001,0.001-0.002,0.002-0.003,0.002c-0.478,0.406-0.935,0.834-1.382,1.273   c-0.083,0.082-0.168,0.163-0.251,0.246c-0.421,0.424-0.828,0.862-1.221,1.313c-0.086,0.098-0.169,0.199-0.254,0.298   c-0.395,0.466-0.779,0.941-1.144,1.432c-0.03,0.041-0.059,0.083-0.089,0.125c-0.348,0.474-0.679,0.959-0.998,1.453   c-0.063,0.096-0.126,0.191-0.188,0.289c-0.258,0.41-0.499,0.83-0.737,1.251h12.339h0.021L86.331,61.834z"/>
	<path fill="#E2DDDB" d="M96.766,60.9c0.025-0.323,0.046-0.647,0.063-0.971c0.023-0.438,0.038-0.877,0.047-1.316   c0.006-0.341,0.006-0.682,0.004-1.022c0-0.099,0.002-0.197,0.001-0.295c-0.009-0.879-0.043-1.758-0.097-2.638   c-0.003-0.001-0.005-0.003-0.008-0.005c-0.001-0.002-0.002-0.004-0.003-0.006c-0.003-0.002-0.021-0.012-0.028-0.016   c-0.01-0.006-0.019-0.011-0.039-0.022c-0.035-0.021-0.087-0.05-0.146-0.083c-0.196-0.113-0.493-0.282-0.769-0.438   c-0.008-0.004-0.016-0.009-0.022-0.013c-0.091-0.051-0.177-0.1-0.256-0.145c-0.001-0.001-0.003-0.002-0.005-0.002   c-0.067-0.039-0.124-0.07-0.178-0.1c-0.01-0.006-0.024-0.014-0.034-0.02c-0.059-0.032-0.103-0.056-0.129-0.07   c-0.568-0.294-1.148-0.567-1.738-0.816c-1.405-0.594-3.299-1.114-4.365-1.365v0.022v0v0.055v0v0.103v0.104v0.171v0.124   c0,0.053,0,0.112,0,0.167c0,0.058,0,0.115,0,0.175c0,0.021,0,0.04,0,0.06v0v0.982l2.689,8.312l0.003,0.007   c0.277,0.265,0.517,0.569,0.708,0.904c0.063,0.11,0.12,0.223,0.172,0.339c0.001,0.002,0.002,0.004,0.003,0.007   c0.052,0.116,0.098,0.234,0.139,0.355c0.001,0.003,0.002,0.005,0.003,0.008c0.005,0.015,0.008,0.03,0.013,0.045   c0.033,0.107,0.064,0.215,0.089,0.325c0.001,0.003,0.002,0.007,0.003,0.01c0.028,0.127,0.05,0.256,0.065,0.388   c0.001,0.001,0.001,0.003,0.001,0.005c0.016,0.133,0.025,0.269,0.026,0.406l0.011,0.022h3.293c0.223-1.206,0.378-2.426,0.476-3.653   C96.76,60.968,96.764,60.935,96.766,60.9z"/>
	<rect x="101.071" y="57.961" fill="#FAAF40" width="0" height="0.011"/>
	<path fill="#FAAF40" d="M92.096,77.401c0.31-0.306,0.613-0.607,0.91-0.903c0.747-0.743,1.453-1.456,2.126-2.153   c0.399-0.415,0.79-0.825,1.163-1.23c2.064-2.241,3.718-4.374,4.928-6.817c0.402-0.814,0.757-1.664,1.061-2.563   c0.029-0.085,0.058-0.198,0.086-0.325c0.004-0.02,0.008-0.038,0.013-0.059c0.001-0.004,0.002-0.009,0.003-0.014   c0.025-0.123,0.051-0.259,0.076-0.41c0.002-0.013,0.004-0.027,0.006-0.04c0.011-0.112,0.021-0.221,0.031-0.326   c-0.304-1.561-0.895-3.078-1.416-4.576c-0.004-0.003-0.013-0.012-0.015-0.014c-0.101-0.095-0.206-0.184-0.308-0.278   c-0.31-0.286-0.625-0.564-0.945-0.834c-0.961-0.811-1.972-1.55-3.031-2.203c0.054,0.88,0.088,1.759,0.097,2.638   c0.001,0.098-0.001,0.196-0.001,0.295c0.002,0.341,0.002,0.682-0.004,1.022c-0.009,0.439-0.023,0.877-0.047,1.316   c-0.017,0.324-0.037,0.648-0.063,0.971c-0.002,0.034-0.006,0.067-0.009,0.101c-0.098,1.227-0.253,2.447-0.476,3.653l-0.387,1.829   c-0.808,3.275-2.449,6.246-3.798,9.313c-0.358,0.814-0.697,1.636-0.995,2.474c-0.027,0.077-0.056,0.157-0.084,0.236   C91.438,78.065,91.812,77.682,92.096,77.401z"/>
	<polygon fill="#FAAF40" points="101.082,57.987 101.082,57.987 101.082,57.988  "/>
	<path fill="#8F9293" d="M86.35,61.817c0.176-0.165,0.367-0.313,0.57-0.445c0,0,0.001,0,0.002-0.001   c0.202-0.129,0.416-0.241,0.641-0.333c0.006-0.002,0.012-0.004,0.018-0.006c0.222-0.089,0.453-0.159,0.692-0.207   c0.008-0.002,0.017-0.002,0.025-0.004c0.24-0.046,0.488-0.072,0.742-0.072c0.259,0,0.512,0.026,0.756,0.074   c0.007,0.001,0.013,0.002,0.019,0.003c0.244,0.049,0.479,0.121,0.705,0.212c0.003,0.001,0.007,0.003,0.012,0.004   c0.216,0.089,0.42,0.2,0.615,0.324c0.218,0.139,0.423,0.295,0.608,0.472l-0.003-0.007l-2.689-8.312L86.35,61.817L86.35,61.817z"/>
	<path fill="#676A6A" d="M85.741,66.835c-0.133-0.205-0.249-0.421-0.343-0.649c0-0.001-0.001-0.003-0.001-0.004   c-0.001-0.002-0.001-0.004-0.002-0.006c-0.093-0.227-0.166-0.464-0.215-0.71c-0.001-0.005-0.001-0.011-0.002-0.016   c-0.049-0.247-0.075-0.501-0.075-0.762l0,0c0-0.139,0.008-0.275,0.021-0.411c0.003-0.032,0.01-0.063,0.014-0.094   c0.014-0.103,0.028-0.206,0.049-0.307c0.003-0.015,0.007-0.029,0.011-0.043c0.004-0.014,0.008-0.028,0.011-0.043   c0.024-0.102,0.049-0.204,0.081-0.302c0.007-0.021,0.015-0.041,0.022-0.062c0.036-0.105,0.074-0.21,0.119-0.313   c0.005-0.012,0.012-0.023,0.017-0.035c0.049-0.109,0.103-0.217,0.162-0.321c0.002-0.004,0.004-0.008,0.007-0.012   c0.193-0.338,0.435-0.646,0.715-0.913l-11.415,2.82h0h-0.021l11.306,2.76c-0.155-0.162-0.292-0.34-0.418-0.526   C85.77,66.87,85.753,66.854,85.741,66.835z"/>
	<path fill="#E2DDDB" d="M108.834,51.103c-1.207,0-2.354,0.475-3.347,1.161c-0.416,0.288-0.808,0.609-1.161,0.955   c-1.308,1.28-2.318,2.89-3.136,4.515c-0.038,0.075-0.076,0.146-0.113,0.222c0.252,0.218,0.501,0.439,0.747,0.664   c0.557,0.509,1.102,1.032,1.639,1.562c0.25,0.247,0.496,0.5,0.742,0.75c0.261,0.266,0.522,0.532,0.78,0.802   c0.331,0.348,0.659,0.699,0.984,1.053c0.137,0.149,0.272,0.299,0.408,0.449c0.392,0.434,0.781,0.869,1.164,1.311l0.001,0   c0.064,0.067,0.109,0.115,0.127,0.136h3.358c0-0.018,0.003-0.036,0.005-0.053c0.001-0.009,0.002-0.017,0.002-0.026   c0.003-0.194,0.016-0.383,0.042-0.565c0.007-0.051,0.019-0.099,0.027-0.148c0.028-0.162,0.063-0.321,0.105-0.471   c0.005-0.017,0.007-0.036,0.012-0.053l1.49-6.82l-0.001-3.888C111.494,51.652,110.191,51.103,108.834,51.103z"/>
	<polygon fill="#E2DDDB" points="101.082,57.988 101.078,57.975 101.075,57.968 101.073,57.962 101.068,57.972 101.067,57.973    101.082,57.987  "/>
	<path fill="#525453" d="M61.263,67.194c0.022-0.049,0.045-0.097,0.067-0.145c0.048-0.105,0.096-0.21,0.145-0.314   c0.204-0.434,0.419-0.862,0.643-1.286c0.091-0.172,0.18-0.346,0.273-0.517c0.052-0.094,0.111-0.185,0.164-0.278   c0.238-0.421,0.479-0.842,0.737-1.251c0.061-0.097,0.125-0.192,0.188-0.289c0.319-0.494,0.65-0.979,0.998-1.453   c0.03-0.042,0.059-0.084,0.089-0.125c0.365-0.491,0.75-0.966,1.144-1.432c0.084-0.1,0.168-0.2,0.253-0.298   c0.394-0.451,0.8-0.889,1.221-1.313c0.083-0.083,0.167-0.164,0.251-0.246c0.447-0.438,0.905-0.867,1.382-1.273   c0.001,0,0.002-0.001,0.003-0.002c1.878-6.293,7.626-10.875,14.428-10.875c0.342,0,0.684,0.012,1.025,0.037   c2.387,0.17,4.727,0.93,6.769,2.18c0.299,0.183,0.591,0.376,0.876,0.58c1.993,1.425,3.625,3.34,4.734,5.528   c0.006,0.012,0.013,0.025,0.019,0.038c0.032,0.063,0.067,0.124,0.1,0.188c0.001,0.002,0.002,0.004,0.003,0.006   c0.003,0.001,0.005,0.003,0.008,0.005c1.06,0.653,2.07,1.393,3.031,2.203c0.32,0.271,0.636,0.549,0.945,0.834   c0.102,0.094,0.207,0.183,0.308,0.278c0,0,0,0,0,0s0.001-0.001,0.001-0.001v0c0.001-0.003,0.002-0.007,0.004-0.01   c0.001-0.001,0.002-0.002,0.002-0.003c0.001-0.001,0.002-0.003,0.002-0.004c0,0,0,0,0.001,0v0c0.034-0.071,0.068-0.143,0.104-0.213   c0.958-6.049,3.626-10.407,6.774-10.407c2.372,0,4.473,2.474,5.775,6.282l0.014,0.041v0c0,0,0,0,0.001,0.001   c0,0.001,0.001,0.002,0.002,0.002c0.368,0.4,0.727,0.84,1.073,1.323c0.007,0.009,0.014,0.018,0.021,0.027v0l0.001,0   c0.019,0.055,0.034,0.112,0.053,0.167v0l-0.05-0.198c-3.915-11.591-14.879-19.937-27.792-19.937   c-16.197,0-29.327,13.13-29.327,29.327c0,3.193,0.511,6.267,1.458,9.127c0.001-0.005,0.002-0.011,0.003-0.017   c0.187-0.863,0.41-1.72,0.669-2.569c0.203-0.661,0.428-1.317,0.674-1.965c0.009-0.025,0.02-0.05,0.03-0.075   C60.777,68.305,61.014,67.747,61.263,67.194z"/>
	<rect x="113.742" y="53.656" fill="#525453" width="0.003" height="0.001"/>
	<path fill="#FFFFFF" d="M114.258,65.845c-0.039,0.15-0.086,0.292-0.14,0.427c-0.014,0.036-0.028,0.069-0.044,0.104   c-0.04,0.096-0.084,0.187-0.131,0.273c-0.025,0.046-0.051,0.094-0.078,0.137c-0.042,0.068-0.088,0.129-0.134,0.19   c-0.067,0.087-0.138,0.166-0.212,0.235c-0.03,0.029-0.061,0.06-0.092,0.085c-0.058,0.046-0.117,0.084-0.178,0.119   c-0.023,0.014-0.047,0.025-0.07,0.037c-0.146,0.071-0.3,0.114-0.46,0.114c-0.116,0-0.229-0.02-0.339-0.059   c-0.768-0.269-1.344-1.432-1.344-2.825h-0.001h-0.006h-0.002h-3.358h-0.01c0.001,0,0.001,0.001,0.002,0.002   c0.626,0.724,1.242,1.458,1.851,2.199c0.007,0.009,0.015,0.018,0.021,0.027c0.592,0.721,1.174,1.449,1.75,2.182   c0.028,0.036,0.057,0.071,0.085,0.107c0.546,0.696,1.086,1.397,1.621,2.1c0.052,0.068,0.104,0.136,0.156,0.204   c0.566,0.745,1.127,1.492,1.685,2.239c0.002,0.004,0.006,0.009,0.009,0.013c0.001,0.001,0.001,0.002,0.002,0.003   c0.966-2.855,1.505-5.904,1.538-9.077h-0.007h-1.08l-0.01,0.011l-1.023,1.144C114.26,65.84,114.259,65.842,114.258,65.845z"/>
	<path fill="#231F20" d="M74.709,53.199c0.993-0.454,2.025-0.819,3.072-1.131c1.57-0.469,3.183-0.795,4.817-0.919   c0.076-0.006,0.152-0.011,0.229-0.016c0.523-0.036,1.049-0.058,1.581-0.058c1.59,0,3.144,0.17,4.655,0.48   c0,0,0.001,0.008,0.001,0.022v-0.022c1.066,0.251,2.96,0.771,4.365,1.365c0.59,0.249,1.17,0.522,1.738,0.816   c0.026,0.014,0.07,0.039,0.129,0.07c0.01,0.005,0.024,0.014,0.034,0.02c0.054,0.029,0.11,0.061,0.178,0.1   c0.002,0,0.004,0.001,0.005,0.002c0.079,0.044,0.165,0.094,0.256,0.145c0.007,0.004,0.015,0.009,0.022,0.013   c0.277,0.158,0.575,0.328,0.769,0.439c0.059,0.034,0.11,0.063,0.146,0.083c0.021,0.011,0.029,0.017,0.039,0.022   c0.008,0.004,0.025,0.014,0.028,0.016c-0.032-0.064-0.067-0.125-0.1-0.188c-0.006-0.013-0.013-0.025-0.019-0.038   c-1.109-2.188-2.741-4.103-4.734-5.528c-0.285-0.204-0.577-0.397-0.876-0.58c-2.042-1.25-4.382-2.009-6.769-2.18   c-0.341-0.024-0.683-0.037-1.025-0.037c-6.802,0-12.55,4.582-14.428,10.875c0.445-0.38,0.902-0.745,1.371-1.094   C71.599,54.832,73.111,53.929,74.709,53.199z"/>
	
		<line fill="none" stroke="#231F20" stroke-width="0" stroke-linecap="round" stroke-linejoin="round" x1="89.063" y1="51.577" x2="89.063" y2="51.578"/>
	<path fill="none" stroke="#231F20" stroke-width="0" stroke-linecap="round" stroke-linejoin="round" d="M89.063,52.302   c0-0.056,0-0.115,0-0.167v-0.124V51.84v-0.104v-0.103v0v-0.055"/>
	
		<line fill="none" stroke="#231F20" stroke-width="0" stroke-linecap="round" stroke-linejoin="round" x1="113.745" y1="53.658" x2="113.744" y2="53.657"/>
	
		<line fill="none" stroke="#231F20" stroke-width="0" stroke-linecap="round" stroke-linejoin="round" x1="113.747" y1="53.661" x2="113.745" y2="53.658"/>
	<path fill="#231F20" d="M104.326,53.218c0.354-0.345,0.745-0.667,1.161-0.955c0.992-0.686,2.14-1.161,3.347-1.161   c1.357,0,2.66,0.549,3.877,1.554c0,0,0.001,0.009,0.001,0.012c0.109,0.09,0.216,0.19,0.323,0.288   c0.065,0.059,0.132,0.113,0.196,0.175c0.171,0.164,0.339,0.337,0.507,0.518v0c0.002,0.002,0.003,0.004,0.004,0.006   c0.001,0,0.001,0,0.001,0c0,0,0.001,0.001,0.001,0.001v0l-0.014-0.041c-1.303-3.808-3.403-6.282-5.775-6.282   c-3.148,0-5.816,4.358-6.774,10.407l0.01-0.009C102.008,56.108,103.019,54.498,104.326,53.218z"/>
	
		<line fill="none" stroke="#231F20" stroke-width="0" stroke-linecap="round" stroke-linejoin="round" x1="112.712" y1="52.671" x2="112.712" y2="52.669"/>
	<path fill="#FFFFFF" d="M72.886,90.01c0.968,0.536,1.976,1.008,3.006,1.435c0.221,0.092,0.436,0.195,0.66,0.281   c0.268,0.103,0.541,0.196,0.812,0.291c0.705,0.247,1.425,0.462,2.153,0.656c2.405,0.641,4.928,0.992,7.536,0.992   c2.588,0,5.093-0.346,7.483-0.977c1.187-0.313,2.347-0.692,3.471-1.146c0.039-0.016,0.077-0.033,0.115-0.05   c0.14-0.059,0.277-0.118,0.416-0.178c0.287-0.122,0.573-0.248,0.855-0.379c0.253-0.117,0.506-0.233,0.755-0.358   c-0.061,0.008-0.12,0.02-0.181,0.025c-1.053,0.119-2.097,0.126-3.117-0.021c-6.034-0.867-7.371-3.776-7.18-6.807   c-0.434-0.25-0.876-0.532-1.325-0.858c-4.642-3.367-7.396-6.953-7.396-6.953s3.58,2.763,8.927,4.831   c0.115,0.045,0.223,0.083,0.335,0.126c0.25-0.864,0.546-1.685,0.806-2.414c0.028-0.079,0.057-0.159,0.084-0.237   c0.298-0.838,0.637-1.66,0.995-2.474c1.349-3.067,2.99-6.039,3.798-9.313l0.387-1.829h-3.293h-0.007H92.98   c0,0.002,0.001,0.004,0.001,0.007l-0.002,0c0,0.009,0.002,0.018,0.002,0.027c0,0.544-0.11,1.062-0.31,1.533   c-0.101,0.236-0.222,0.459-0.363,0.669c-0.283,0.419-0.646,0.781-1.064,1.064c-0.21,0.142-0.434,0.264-0.669,0.363   c-0.472,0.199-0.99,0.31-1.534,0.31c-0.138,0-0.274-0.007-0.409-0.021c-0.031-0.003-0.062-0.01-0.093-0.014   c-0.104-0.013-0.206-0.027-0.306-0.048c-0.028-0.006-0.055-0.015-0.083-0.021c-0.103-0.023-0.205-0.049-0.304-0.081   c-0.019-0.006-0.036-0.014-0.055-0.02c-0.107-0.036-0.215-0.075-0.317-0.12c-0.01-0.004-0.018-0.009-0.027-0.013   c-0.112-0.049-0.221-0.103-0.327-0.163c-0.002-0.001-0.003-0.002-0.005-0.003c-0.339-0.191-0.647-0.431-0.916-0.71l-11.306-2.76   H62.556c-0.053,0.094-0.112,0.184-0.164,0.278c-0.094,0.171-0.183,0.345-0.273,0.517c-0.224,0.424-0.439,0.852-0.643,1.286   c-0.049,0.104-0.097,0.209-0.145,0.314c-0.022,0.048-0.045,0.097-0.067,0.146c-0.249,0.553-0.486,1.111-0.702,1.676   c-0.01,0.025-0.021,0.05-0.03,0.075c-0.246,0.648-0.471,1.304-0.674,1.966c-0.26,0.848-0.483,1.706-0.669,2.568   c1.921,5.861,5.645,10.902,10.508,14.483c0.053,0.038,0.101,0.083,0.154,0.121c0.144,0.104,0.295,0.197,0.441,0.299   c0.404,0.282,0.815,0.555,1.232,0.818C71.97,89.482,72.423,89.754,72.886,90.01z"/>
	<path fill="#9E2155" d="M100.161,83.015c-1.206-0.092-2.332-0.232-3.36-0.398v0.001c-0.045,0.314-0.075,0.622-0.085,0.921   c-0.017,0.542,0.021,1.058,0.1,1.545c0.053,0.324,0.123,0.636,0.208,0.935c0.128,0.448,0.287,0.867,0.467,1.254   c0.179,0.387,0.376,0.742,0.579,1.064c0.068,0.107,0.136,0.211,0.205,0.311c0.103,0.15,0.205,0.292,0.307,0.424   c0.135,0.177,0.266,0.332,0.392,0.478c0.538,0.618,0.962,0.954,0.962,0.954s0.003,0.01,0.009,0.027   c0.006,0.019,0.014,0.043,0.024,0.074c0.061-0.006,0.12-0.018,0.181-0.025c0.857-0.107,1.72-0.303,2.578-0.553   c0.45-0.131,0.899-0.271,1.347-0.433c0.605-0.218,1.209-0.457,1.805-0.723c0.056-0.024,0.111-0.046,0.167-0.071   c0.198-0.09,0.393-0.19,0.589-0.285c6.718-3.248,12.343-8.994,12.343-8.994c-4.748,2.333-9.436,3.301-13.604,3.544   c-0.927,0.054-1.827,0.072-2.697,0.062S100.965,83.076,100.161,83.015z"/>
	<path fill="#E2066F" d="M114.83,73.743c-0.557-0.748-1.117-1.495-1.684-2.239c-0.052-0.068-0.104-0.136-0.156-0.204   c-0.535-0.703-1.075-1.404-1.621-2.1c-0.028-0.036-0.057-0.072-0.085-0.107c-0.576-0.733-1.158-1.461-1.75-2.182   c-0.007-0.009-0.015-0.019-0.021-0.027c-0.608-0.741-1.225-1.475-1.851-2.199c-0.001,0-0.001-0.001-0.002-0.002   c-0.039-0.045-0.078-0.091-0.118-0.136c-0.383-0.441-0.772-0.877-1.164-1.311c-0.136-0.15-0.271-0.3-0.408-0.449   c-0.325-0.354-0.653-0.706-0.984-1.053c-0.258-0.271-0.52-0.536-0.78-0.802c-0.246-0.251-0.492-0.503-0.742-0.75   c-0.537-0.53-1.082-1.053-1.639-1.562c-0.246-0.225-0.495-0.446-0.747-0.664c-0.001,0-0.001,0-0.001,0   c0,0.001-0.001,0.002-0.002,0.004c0,0.001,0,0.002-0.001,0.003c0.001,0.002,0.002,0.004,0.002,0.007   c0.001,0.002,0.002,0.004,0.003,0.006c0.528,1.52,1.131,3.057,1.433,4.64c0.078,0.413,0.144,0.816,0.196,1.208   c0.046,0.344,0.082,0.68,0.109,1.009c0.404,4.941-1.307,8.372-3.93,12.799c-0.199,0.335-0.403,0.677-0.611,1.025   c-0.003,0.003-0.004,0.006-0.006,0.009c-0.64,1.066-1.05,2.077-1.287,3.025c-0.079,0.315-0.139,0.624-0.182,0.927   c1.028,0.166,2.154,0.307,3.36,0.398c0.804,0.062,1.644,0.101,2.514,0.111s1.771-0.008,2.697-0.062   c4.169-0.243,8.856-1.212,13.604-3.545c0,0-1.65-2.425-4.135-5.761c-0.001-0.001-0.001-0.002-0.002-0.003   C114.836,73.751,114.833,73.747,114.83,73.743z"/>
	<path fill="#231F20" d="M99.935,90.502c0,0-0.424-0.336-0.962-0.954c-0.126-0.146-0.257-0.301-0.392-0.478   c-0.102-0.132-0.204-0.273-0.307-0.424c-0.069-0.1-0.137-0.203-0.205-0.311c-0.203-0.322-0.4-0.678-0.579-1.064   c-0.18-0.387-0.339-0.806-0.467-1.254c-0.085-0.299-0.155-0.61-0.208-0.935c-0.079-0.487-0.116-1.003-0.1-1.545   c0.01-0.299,0.04-0.606,0.085-0.921v-0.001c0.043-0.303,0.103-0.611,0.182-0.927c0.237-0.948,0.647-1.958,1.287-3.025   c0.002-0.003,0.003-0.006,0.006-0.009c0.208-0.348,0.412-0.689,0.611-1.025c2.622-4.427,4.334-7.858,3.93-12.799   c-0.027-0.33-0.063-0.666-0.109-1.009c-0.053-0.393-0.118-0.795-0.196-1.208c-0.015,0.098-0.029,0.185-0.044,0.274   c-0.002,0.013-0.004,0.027-0.006,0.04c-0.025,0.149-0.051,0.288-0.076,0.41c-0.001,0.004-0.002,0.009-0.003,0.014   c-0.005,0.021-0.009,0.039-0.013,0.059c-0.028,0.126-0.057,0.239-0.086,0.325c-0.304,0.899-0.658,1.748-1.061,2.563   c-1.21,2.443-2.863,4.577-4.928,6.817c-0.373,0.405-0.764,0.815-1.163,1.229c-0.673,0.697-1.379,1.41-2.126,2.153   c-0.297,0.296-0.601,0.597-0.91,0.903c-0.284,0.281-0.657,0.664-1.078,1.106c0,0,0,0,0,0c-0.26,0.729-0.556,1.55-0.806,2.414   c-0.112-0.043-0.22-0.081-0.335-0.126c-5.347-2.068-8.927-4.831-8.927-4.831s2.754,3.586,7.396,6.953   c0.449,0.326,0.892,0.608,1.325,0.858c-0.191,3.03,1.146,5.939,7.18,6.807c1.021,0.147,2.064,0.141,3.117,0.021   c-0.011-0.031-0.019-0.056-0.024-0.074C99.938,90.512,99.935,90.502,99.935,90.502z"/>
</g>
</svg>