<?xml version="1.0" encoding="UTF-8"?>
<!-- Generator: Adobe Illustrator 18.1.0, SVG Export Plug-In . SVG Version: 6.00 Build 0)  -->
<svg version="1.1" id="Layer_1" xmlns="http://www.w3.org/2000/svg" xmlns:xlink="http://www.w3.org/1999/xlink" x="0px" y="0px" viewBox="0 0 245.2 56.7" enable-background="new 0 0 245.2 56.7" xml:space="preserve">
<g>
	<path fill="#00749A" d="M141.8,22.5h-9.6v1c3,0,3.5,0.6,3.5,4.4v6.8c0,3.8-0.5,4.5-3.5,4.5c-2.3-0.3-3.9-1.6-6-3.9l-2.5-2.7   c3.3-0.6,5.1-2.7,5.1-5c0-2.9-2.5-5.2-7.2-5.2h-9.4v1c3,0,3.5,0.6,3.5,4.4v6.8c0,3.8-0.5,4.5-3.5,4.5v1h10.6v-1   c-3,0-3.5-0.7-3.5-4.5v-1.9h0.9l5.9,7.4h15.6c7.7,0,11-4.1,11-8.9C152.8,26.5,149.5,22.5,141.8,22.5z M119.4,31.2v-7.1h2.2   c2.4,0,3.5,1.7,3.5,3.6c0,1.9-1.1,3.5-3.5,3.5H119.4z M142,38.6h-0.4c-1.9,0-2.2-0.5-2.2-2.9V24.1c0,0,2.4,0,2.6,0   c5.6,0,6.6,4.1,6.6,7.2C148.6,34.6,147.5,38.6,142,38.6z"/>
	<path fill="#00749A" d="M82.4,33.2l3.7-10.9c1.1-3.2,0.6-4.1-2.8-4.1v-1.1h10.1v1.1c-3.4,0-4.2,0.8-5.5,4.7l-6.1,18.3H81l-5.5-16.7   L70,41.2h-0.7l-5.9-18.3c-1.3-3.9-2.1-4.7-5.2-4.7v-1.1H70v1.1c-3.2,0-4,0.7-2.9,4.1l3.6,10.9l5.4-16.1h1L82.4,33.2z"/>
	<path fill="#00749A" d="M100.6,41c-5.9,0-10.7-4.3-10.7-9.6c0-5.2,4.8-9.6,10.7-9.6c5.9,0,10.7,4.3,10.7,9.6   C111.3,36.7,106.5,41,100.6,41z M100.6,23.4c-4.9,0-6.6,4.4-6.6,7.9c0,3.5,1.7,7.9,6.6,7.9c5,0,6.7-4.4,6.7-7.9   C107.3,27.9,105.6,23.4,100.6,23.4z"/>
	<path fill="#464342" d="M166,39.2v1.1h-12.3v-1.1c3.6,0,4.2-0.9,4.2-6.3v-8.6c0-5.4-0.6-6.2-4.2-6.2v-1.1h11.1   c5.5,0,8.6,2.8,8.6,6.6c0,3.7-3.1,6.6-8.6,6.6h-3V33C161.8,38.3,162.4,39.2,166,39.2z M164.8,19h-3v9.3h3c3,0,4.4-2.1,4.4-4.6   C169.2,21.2,167.8,19,164.8,19z"/>
	<path fill="#464342" d="M210.1,35.3l-0.3,1c-0.5,1.8-1.1,2.4-4.9,2.4h-0.7c-2.8,0-3.3-0.6-3.3-4.4v-2.5c4.2,0,4.5,0.4,4.5,3.2h1v-8   h-1c0,2.8-0.3,3.2-4.5,3.2v-6h2.9c3.8,0,4.4,0.6,4.9,2.4l0.3,1h0.9l-0.4-5h-15.7v1c3,0,3.5,0.6,3.5,4.4v6.8c0,3.5-0.4,4.4-2.8,4.5   c-2.2-0.3-3.8-1.6-5.9-3.9l-2.5-2.7c3.3-0.6,5.1-2.7,5.1-5c0-2.9-2.5-5.2-7.2-5.2h-9.4v1c3,0,3.5,0.6,3.5,4.4v6.8   c0,3.8-0.5,4.5-3.5,4.5v1h10.6v-1c-3,0-3.5-0.7-3.5-4.5v-1.9h0.9l5.9,7.4h22l0.3-5H210.1z M181.8,31.2v-7.1h2.2   c2.4,0,3.5,1.7,3.5,3.6c0,1.9-1.1,3.5-3.5,3.5H181.8z"/>
	<path fill="#464342" d="M221,41c-2.1,0-4-1.1-4.8-1.8c-0.3,0.3-0.7,1.1-0.9,1.8h-1v-7.4h1.1c0.4,3.5,2.9,5.6,6,5.6   c1.7,0,3.1-1,3.1-2.6c0-1.4-1.2-2.5-3.4-3.5l-3-1.4c-2.1-1-3.7-2.8-3.7-5.1c0-2.6,2.4-4.8,5.7-4.8c1.8,0,3.3,0.6,4.2,1.4   c0.3-0.2,0.5-0.8,0.7-1.4h1v6.3h-1.1c-0.4-2.5-1.8-4.6-4.6-4.6c-1.5,0-2.9,0.9-2.9,2.2c0,1.4,1.1,2.1,3.7,3.3l2.9,1.4   c2.6,1.2,3.6,3.2,3.6,4.8C227.5,38.6,224.6,41,221,41z"/>
	<path fill="#464342" d="M237.5,41c-2.1,0-4-1.1-4.8-1.8c-0.3,0.3-0.7,1.1-0.9,1.8h-1v-7.4h1.1c0.4,3.5,2.9,5.6,6,5.6   c1.7,0,3.1-1,3.1-2.6c0-1.4-1.2-2.5-3.4-3.5l-3-1.4c-2.1-1-3.7-2.8-3.7-5.1c0-2.6,2.4-4.8,5.7-4.8c1.8,0,3.3,0.6,4.2,1.4   c0.3-0.2,0.5-0.8,0.7-1.4h1v6.3h-1.1c-0.4-2.5-1.8-4.6-4.6-4.6c-1.5,0-2.9,0.9-2.9,2.2c0,1.4,1.1,2.1,3.7,3.3l2.9,1.4   c2.6,1.2,3.6,3.2,3.6,4.8C244,38.6,241.1,41,237.5,41z"/>
	<g>
		<path fill="#464342" d="M4.6,28.3c0,9.4,5.4,17.5,13.3,21.3L6.7,18.7C5.4,21.7,4.6,24.9,4.6,28.3z"/>
		<path fill="#464342" d="M44.3,27.1c0-2.9-1.1-5-2-6.5c-1.2-2-2.3-3.6-2.3-5.6c0-2.2,1.7-4.2,4-4.2c0.1,0,0.2,0,0.3,0    c-4.2-3.9-9.8-6.2-16-6.2C20,4.7,12.8,8.9,8.5,15.3c0.6,0,1.1,0,1.5,0c2.5,0,6.3-0.3,6.3-0.3c1.3-0.1,1.4,1.8,0.2,2    c0,0-1.3,0.2-2.7,0.2l8.6,25.6l5.2-15.5l-3.7-10.1c-1.3-0.1-2.5-0.2-2.5-0.2c-1.3-0.1-1.1-2,0.1-2c0,0,3.9,0.3,6.2,0.3    c2.5,0,6.3-0.3,6.3-0.3c1.3-0.1,1.4,1.8,0.2,2c0,0-1.3,0.2-2.7,0.2l8.6,25.5l2.4-7.9C43.5,31.5,44.3,29.2,44.3,27.1z"/>
		<path fill="#464342" d="M28.7,30.4l-7.1,20.6c2.1,0.6,4.4,1,6.7,1c2.8,0,5.4-0.5,7.9-1.3c-0.1-0.1-0.1-0.2-0.2-0.3L28.7,30.4z"/>
		<path fill="#464342" d="M49.1,17c0.1,0.8,0.2,1.6,0.2,2.4c0,2.4-0.4,5.1-1.8,8.5l-7.2,20.9c7-4.1,11.8-11.7,11.8-20.5    C52,24.2,50.9,20.4,49.1,17z"/>
		<path fill="#464342" d="M28.3,0.7C13.1,0.7,0.7,13.1,0.7,28.3c0,15.2,12.4,27.6,27.6,27.6c15.2,0,27.6-12.4,27.6-27.6    C55.9,13.1,43.5,0.7,28.3,0.7z M28.3,54.7C13.8,54.7,2,42.9,2,28.3C2,13.8,13.8,2,28.3,2c14.5,0,26.3,11.8,26.3,26.3    C54.6,42.9,42.8,54.7,28.3,54.7z"/>
	</g>
</g>
</svg>