<?xml version="1.0" ?><svg id="Layer_1" style="enable-background:new 0 0 547 103;" version="1.1" viewBox="0 0 547 103" xml:space="preserve" xmlns="http://www.w3.org/2000/svg" xmlns:xlink="http://www.w3.org/1999/xlink"><style type="text/css">
	.st0{fill:#68B604;}
</style><g><path class="st0" d="M91,34.3c0,0,0-24.3,24.3-24.3h73c0,0,0,24.3-24.3,24.3H91z"/><path class="st0" d="M91,65.4c0,0,0-24.3,24.3-24.3h36.5c0,0,0,24.3-24.3,24.3H91z"/><path class="st0" d="M91,96.5c0,0,0-24.3,24.3-24.3h12.2c0,0,0,24.3-24.3,24.3H91z"/><polygon class="st0" points="82.8,77.5 82.8,96.9 4.5,96.9 54.9,28.1 11.7,28.1 11.7,8.7 93.3,8.7 43.1,77.5  "/></g><path class="st0" d="M230.8,47.1h-25.4v-4.6L225,14.4h-18.6v-4.4h24v4.4l-19.7,28.3h20.2L230.8,47.1L230.8,47.1z M258.5,42.8v4.4  h-22.8V10.1h22.8v4.4h-17.9v10.2h16.7V29h-16.7v13.8H258.5L258.5,42.8z M284.5,47.1l-16.1-32v32h-4.5V10.1h6.8l14.6,29.4V10.1h4.5  v37.1H284.5L284.5,47.1z M324,37.8c-1.3,2.7-3.1,4.8-5.4,6.4c-1.8,1.2-3.7,2-5.6,2.4c-1.9,0.4-4.3,0.6-7.3,0.6h-8.4V10.1h8.3  c3.4,0,6.1,0.3,8,0.8c1.9,0.5,3.6,1.2,5,2.2c2.3,1.6,4.2,3.7,5.4,6.3c1.3,2.6,1.9,5.7,1.9,9.4C326,32,325.3,35.1,324,37.8L324,37.8z   M319.6,21.3c-0.9-2-2.3-3.6-4.1-4.7c-1.3-0.8-2.7-1.4-4.1-1.7c-1.5-0.3-3.3-0.5-5.4-0.5h-3.7v28.6h3.7c2.1,0,4-0.2,5.6-0.5  c1.6-0.3,3.1-1,4.4-1.9c1.7-1.2,2.9-2.7,3.8-4.6c0.8-1.9,1.3-4.3,1.3-7.2C320.9,25.7,320.5,23.3,319.6,21.3L319.6,21.3z M216.9,66.4  v7h14v7h-14v16h-9.1V59.3h24.4v7H216.9L216.9,66.4z M258.2,80.6l12.2,15.8h-11.1l-10.1-13.6h-3.2v13.6h-9.1V59.3h14.6  c2,0,3.8,0.1,5.3,0.4c1.5,0.3,2.9,0.8,4.2,1.6c1.3,0.8,2.3,1.9,3.1,3.2c0.8,1.3,1.1,3,1.1,5c0,2.8-0.6,5.1-1.9,6.9  C262,78.2,260.3,79.6,258.2,80.6L258.2,80.6z M255.2,68.3c-0.4-0.7-0.9-1.2-1.7-1.6c-0.6-0.3-1.2-0.4-1.9-0.5  c-0.7-0.1-1.6-0.1-2.6-0.1h-3v10h2.6c1.3,0,2.3-0.1,3.2-0.2c0.9-0.2,1.6-0.5,2.2-1c0.6-0.5,1-1,1.3-1.7c0.3-0.6,0.4-1.5,0.4-2.6  C255.7,69.7,255.5,68.9,255.2,68.3L255.2,68.3z M294.4,96.4l-2.2-7.5h-11.5l-2.2,7.5h-9.1l12.3-37.1h10l12.3,37.1H294.4L294.4,96.4z   M286.4,69.8l-3.7,12.3h7.5L286.4,69.8L286.4,69.8z M335.3,96.4V71.8l-6.6,15.8h-6.2l-6.6-15.8v24.6h-8.6V59.3h10.5l8,18.3l8-18.3  h10.5v37.1L335.3,96.4L335.3,96.4z M376.6,89.4v7H352V59.3h24.6v7h-15.5v6.5h14.3v7h-14.3v9.5L376.6,89.4L376.6,89.4z M420.5,96.4  h-10l-5.9-22.9l-5.7,22.9h-10l-9.2-37.1h9.5l5,24.9l6.1-24.9h9.1l5.8,24.9l5.3-24.9h9.2L420.5,96.4L420.5,96.4z M462.5,92.1  c-3.1,3.4-7.4,5.2-12.9,5.2c-5.5,0-9.8-1.7-12.9-5.2c-3.1-3.5-4.7-8.2-4.7-14.1c0-6,1.6-10.7,4.7-14.2c3.1-3.5,7.4-5.2,12.9-5.2  c5.5,0,9.8,1.7,12.9,5.2c3.1,3.4,4.7,8.2,4.7,14.2C467.2,83.9,465.7,88.6,462.5,92.1L462.5,92.1z M457.1,72.2  c-0.4-1.6-1-2.8-1.8-3.8c-0.8-1-1.7-1.7-2.6-2.2c-1-0.4-2-0.7-3.1-0.7c-1.1,0-2.1,0.2-3,0.6c-0.9,0.4-1.8,1.1-2.6,2.2  c-0.7,1-1.4,2.2-1.8,3.8c-0.5,1.6-0.7,3.5-0.7,5.7c0,2.3,0.2,4.2,0.7,5.7c0.4,1.5,1,2.8,1.8,3.8c0.8,1,1.7,1.8,2.7,2.2  c1,0.4,2,0.7,3.1,0.7c1.1,0,2.1-0.2,3.1-0.7c1-0.5,1.9-1.2,2.6-2.2c0.8-1.1,1.4-2.3,1.8-3.8c0.4-1.4,0.6-3.3,0.6-5.6  C457.8,75.7,457.6,73.8,457.1,72.2L457.1,72.2z M494,80.6l12.2,15.8h-11.1L485,82.8h-3.2v13.6h-9.1V59.3h14.6c2,0,3.8,0.1,5.3,0.4  c1.5,0.3,2.9,0.8,4.2,1.6c1.3,0.8,2.3,1.9,3.1,3.2c0.8,1.3,1.2,3,1.2,5c0,2.8-0.6,5.1-1.9,6.9C497.8,78.2,496.2,79.6,494,80.6  L494,80.6z M491,68.3c-0.3-0.7-0.9-1.2-1.7-1.6c-0.6-0.3-1.2-0.4-1.9-0.5c-0.7-0.1-1.6-0.1-2.6-0.1h-3v10h2.6c1.3,0,2.3-0.1,3.2-0.2  c0.9-0.2,1.6-0.5,2.2-1c0.6-0.5,1-1,1.3-1.7c0.3-0.6,0.4-1.5,0.4-2.6C491.6,69.7,491.4,68.9,491,68.3L491,68.3z M540.8,96.4h-11  l-9.9-15.1l-1.8,2.5v12.5H509V59.3h9.1v16.5l11.6-16.5h10.6l-13,17.2L540.8,96.4L540.8,96.4z"/></svg>